NotoSans-CondensedItalic.ufo
<glyph name="exclam" format="2">
  <advance width="473.671875"/>
  <unicode hex="0021"/>
  <outline>
    <contour>
      <point x="124.34375" y="400.5625" type="line"/>
      <point x="244.59375" y="400.5625" type="line"/>
      <point x="502.15625" y="1462.0" type="line"/>
      <point x="330.265625" y="1462.0" type="line"/>
    </contour>
    <contour>
      <point x="101.84375" y="-14.46875" type="curve" smooth="yes"/>
      <point x="172.234375" y="-14.46875"/>
      <point x="224.078125" y="53.0"/>
      <point x="224.078125" y="138.765625" type="curve" smooth="yes"/>
      <point x="224.078125" y="192.46875"/>
      <point x="194.9375" y="225.390625"/>
      <point x="148.78125" y="225.390625" type="curve" smooth="yes"/>
      <point x="65.921875" y="225.390625"/>
      <point x="21.203125" y="150.125"/>
      <point x="21.203125" y="69.265625" type="curve" smooth="yes"/>
      <point x="21.203125" y="14.218750000000002"/>
      <point x="53.90625" y="-14.46875"/>
    </contour>
  </outline>
</glyph>
<glyph name="numbersign" format="2">
  <advance width="853.3125"/>
  <unicode hex="0023"/>
  <outline>
    <contour>
      <point x="7.5624999999999964" y="0.0" type="line"/>
      <point x="124.6875" y="0.0" type="line"/>
      <point x="262.890625" y="449.828125" type="line"/>
      <point x="451.390625" y="449.828125" type="line"/>
      <point x="308.734375" y="0.0" type="line"/>
      <point x="425.96875" y="0.0" type="line"/>
      <point x="566.734375" y="449.828125" type="line"/>
      <point x="741.203125" y="449.828125" type="line"/>
      <point x="760.796875" y="568.515625" type="line"/>
      <point x="602.4375" y="568.515625" type="line"/>
      <point x="716.5" y="930.671875" type="line"/>
      <point x="880.859375" y="930.671875" type="line"/>
      <point x="903.125" y="1049.359375" type="line"/>
      <point x="754.765625" y="1049.359375" type="line"/>
      <point x="882.203125" y="1462.0" type="line"/>
      <point x="766.859375" y="1462.0" type="line"/>
      <point x="637.640625" y="1049.359375" type="line"/>
      <point x="451.8125" y="1049.359375" type="line"/>
      <point x="581.03125" y="1462.0" type="line"/>
      <point x="463.90625" y="1462.0" type="line"/>
      <point x="336.46875" y="1049.359375" type="line"/>
      <point x="160.90625" y="1049.359375" type="line"/>
      <point x="140.421875" y="930.671875" type="line"/>
      <point x="298.09375" y="930.671875" type="line"/>
      <point x="184.03125" y="568.515625" type="line"/>
      <point x="21.140624999999996" y="568.515625" type="line"/>
      <point x="0.6562499999999991" y="449.828125" type="line"/>
      <point x="147.546875" y="449.828125" type="line"/>
    </contour>
    <contour>
      <point x="301.15625" y="568.515625" type="line"/>
      <point x="415.21875" y="930.671875" type="line"/>
      <point x="601.15625" y="930.671875" type="line"/>
      <point x="487.875" y="568.515625" type="line"/>
    </contour>
  </outline>
</glyph>
<glyph name="ampersand" format="2">
  <advance width="853.484375"/>
  <unicode hex="0026"/>
  <outline>
    <contour>
      <point x="231.0" y="-20.0" type="curve" smooth="yes"/>
      <point x="360.65625" y="-20.0"/>
      <point x="441.78125" y="53.953125"/>
      <point x="518.15625" y="141.046875" type="curve"/>
      <point x="559.375" y="0.0" type="line"/>
      <point x="727.5" y="0.0" type="line"/>
      <point x="635.53125" y="257.734375" type="line"/>
      <point x="717.5625" y="382.953125"/>
      <point x="789.046875" y="542.4375"/>
      <point x="824.953125" y="683.25" type="curve"/>
      <point x="680.328125" y="683.25" type="line"/>
      <point x="652.546875" y="577.9375"/>
      <point x="616.671875" y="479.859375"/>
      <point x="577.453125" y="404.546875" type="curve"/>
      <point x="467.140625" y="772.65625" type="line"/>
      <point x="623.9375" y="909.65625"/>
      <point x="727.828125" y="1080.640625"/>
      <point x="727.828125" y="1277.609375" type="curve" smooth="yes"/>
      <point x="727.828125" y="1413.875"/>
      <point x="643.875" y="1483.0"/>
      <point x="538.71875" y="1483.0" type="curve" smooth="yes"/>
      <point x="351.296875" y="1483.0"/>
      <point x="250.25" y="1299.171875"/>
      <point x="250.25" y="1072.390625" type="curve" smooth="yes"/>
      <point x="250.25" y="977.40625"/>
      <point x="267.8125" y="885.0"/>
      <point x="296.265625" y="798.34375" type="curve"/>
      <point x="104.68749999999999" y="653.9375"/>
      <point x="-13.421875000000007" y="479.9375"/>
      <point x="-13.421875000000007" y="252.609375" type="curve" smooth="yes"/>
      <point x="-13.421875000000007" y="81.703125"/>
      <point x="78.609375" y="-20.0"/>
    </contour>
    <contour>
      <point x="258.15625" y="112.93749999999999" type="curve" smooth="yes"/>
      <point x="178.84375" y="112.93749999999999"/>
      <point x="136.984375" y="171.25"/>
      <point x="136.984375" y="279.3125" type="curve" smooth="yes"/>
      <point x="136.984375" y="440.90625"/>
      <point x="207.8125" y="574.421875"/>
      <point x="338.421875" y="688.453125" type="curve"/>
      <point x="469.203125" y="265.953125" type="line"/>
      <point x="413.984375" y="189.78125"/>
      <point x="353.546875" y="112.93749999999999"/>
    </contour>
    <contour>
      <point x="421.96875" y="881.203125" type="curve"/>
      <point x="401.640625" y="945.515625"/>
      <point x="390.75" y="1013.703125"/>
      <point x="390.75" y="1094.875" type="curve" smooth="yes"/>
      <point x="390.75" y="1223.015625"/>
      <point x="426.375" y="1364.3125"/>
      <point x="517.578125" y="1364.3125" type="curve" smooth="yes"/>
      <point x="565.015625" y="1364.3125"/>
      <point x="587.0" y="1320.765625"/>
      <point x="587.0" y="1256.90625" type="curve" smooth="yes"/>
      <point x="587.0" y="1112.65625"/>
      <point x="518.59375" y="975.828125"/>
    </contour>
  </outline>
</glyph>
<glyph name="parenleft" format="2">
  <advance width="522.5"/>
  <unicode hex="0028"/>
  <outline>
    <contour>
      <point x="147.046875" y="-324.0" type="curve"/>
      <point x="269.078125" y="-324.0" type="line"/>
      <point x="209.890625" y="-172.90625"/>
      <point x="181.140625" y="30.281250000000007"/>
      <point x="181.140625" y="215.890625" type="curve" smooth="yes"/>
      <point x="181.140625" y="664.875"/>
      <point x="358.828125" y="1105.734375"/>
      <point x="651.421875" y="1470.921875" type="curve"/>
      <point x="524.046875" y="1470.921875" type="line"/>
      <point x="218.53125" y="1134.734375"/>
      <point x="38.75" y="674.421875"/>
      <point x="38.75" y="217.890625" type="curve" smooth="yes"/>
      <point x="38.75" y="35.84375000000001"/>
      <point x="77.28125" y="-185.59375"/>
    </contour>
  </outline>
</glyph>
<glyph name="period" format="2">
  <advance width="403.171875"/>
  <unicode hex="002E"/>
  <outline>
    <contour>
      <point x="104.734375" y="-14.46875" type="curve" smooth="yes"/>
      <point x="172.453125" y="-14.46875"/>
      <point x="226.078125" y="53.0"/>
      <point x="226.078125" y="138.765625" type="curve" smooth="yes"/>
      <point x="226.078125" y="192.46875"/>
      <point x="196.9375" y="225.390625"/>
      <point x="149.0" y="225.390625" type="curve" smooth="yes"/>
      <point x="67.921875" y="225.390625"/>
      <point x="24.09375" y="150.125"/>
      <point x="24.09375" y="69.265625" type="curve" smooth="yes"/>
      <point x="24.09375" y="14.218750000000002"/>
      <point x="55.90625" y="-14.46875"/>
    </contour>
  </outline>
</glyph>
<glyph name="eight" format="2">
  <advance width="790.171875"/>
  <unicode hex="0038"/>
  <outline>
    <contour>
      <point x="302.984375" y="-20.0" type="curve" smooth="yes"/>
      <point x="538.25" y="-20.0"/>
      <point x="680.625" y="175.8125"/>
      <point x="680.625" y="390.734375" type="curve" smooth="yes"/>
      <point x="680.625" y="534.015625"/>
      <point x="628.671875" y="648.5625"/>
      <point x="512.875" y="763.78125" type="curve"/>
      <point x="703.296875" y="865.78125"/>
      <point x="813.84375" y="1017.78125"/>
      <point x="813.84375" y="1205.859375" type="curve" smooth="yes"/>
      <point x="813.84375" y="1374.0"/>
      <point x="708.5" y="1483.0"/>
      <point x="543.78125" y="1483.0" type="curve" smooth="yes"/>
      <point x="319.046875" y="1483.0"/>
      <point x="185.125" y="1315.1875"/>
      <point x="185.125" y="1101.28125" type="curve" smooth="yes"/>
      <point x="185.125" y="976.3125"/>
      <point x="229.765625" y="868.984375"/>
      <point x="315.984375" y="772.21875" type="curve"/>
      <point x="109.0" y="657.984375"/>
      <point x="-15.421875000000002" y="517.3125"/>
      <point x="-15.421875000000002" y="291.90625" type="curve" smooth="yes"/>
      <point x="-15.421875000000002" y="98.875"/>
      <point x="102.25" y="-20.0"/>
    </contour>
    <contour>
      <point x="304.765625" y="107.81249999999999" type="curve" smooth="yes"/>
      <point x="197.375" y="107.81249999999999"/>
      <point x="132.3125" y="193.78125"/>
      <point x="132.3125" y="303.03125" type="curve" smooth="yes"/>
      <point x="132.3125" y="495.28125"/>
      <point x="244.15625" y="606.046875"/>
      <point x="396.078125" y="689.796875" type="curve"/>
      <point x="477.9375" y="601.609375"/>
      <point x="534.671875" y="505.75"/>
      <point x="534.671875" y="383.609375" type="curve" smooth="yes"/>
      <point x="532.0" y="234.78125"/>
      <point x="458.046875" y="107.81249999999999"/>
    </contour>
    <contour>
      <point x="434.453125" y="844.203125" type="curve"/>
      <point x="369.15625" y="917.046875"/>
      <point x="330.078125" y="997.90625"/>
      <point x="330.078125" y="1105.390625" type="curve" smooth="yes"/>
      <point x="330.078125" y="1260.65625"/>
      <point x="407.46875" y="1355.40625"/>
      <point x="526.640625" y="1355.40625" type="curve" smooth="yes"/>
      <point x="611.375" y="1355.40625"/>
      <point x="668.0" y="1293.4375"/>
      <point x="668.0" y="1183.71875" type="curve" smooth="yes"/>
      <point x="668.0" y="1045.578125"/>
      <point x="589.921875" y="926.171875"/>
    </contour>
  </outline>
</glyph>
<glyph name="nine" format="2">
  <advance width="790.171875"/>
  <unicode hex="0039"/>
  <outline>
    <contour>
      <point x="164.203125" y="-20.0" type="curve" smooth="yes"/>
      <point x="371.78125" y="-20.0"/>
      <point x="512.15625" y="132.34375"/>
      <point x="603.96875" y="323.078125" type="curve" smooth="yes"/>
      <point x="717.328125" y="539.640625"/>
      <point x="781.734375" y="855.59375"/>
      <point x="781.734375" y="1125.609375" type="curve" smooth="yes"/>
      <point x="781.734375" y="1359.96875"/>
      <point x="691.0625" y="1483.0"/>
      <point x="528.0" y="1483.0" type="curve" smooth="yes"/>
      <point x="234.140625" y="1483.0"/>
      <point x="112.5625" y="1109.09375"/>
      <point x="112.5625" y="849.09375" type="curve" smooth="yes"/>
      <point x="112.5625" y="674.4375"/>
      <point x="181.640625" y="542.5"/>
      <point x="329.78125" y="542.5" type="curve" smooth="yes"/>
      <point x="431.3125" y="542.5"/>
      <point x="521.09375" y="604.046875"/>
      <point x="583.09375" y="697.359375" type="curve"/>
      <point x="588.875" y="697.359375" type="line"/>
      <point x="498.359375" y="309.890625"/>
      <point x="357.59375" y="112.93749999999999"/>
      <point x="159.078125" y="112.93749999999999" type="curve" smooth="yes"/>
      <point x="94.5" y="112.93749999999999"/>
      <point x="36.484375" y="123.15625"/>
      <point x="-2.875000000000001" y="140.046875" type="curve"/>
      <point x="-2.875000000000001" y="2.0" type="line"/>
      <point x="40.265625" y="-10.0"/>
      <point x="91.953125" y="-20.0"/>
    </contour>
    <contour>
      <point x="384.109375" y="677.328125" type="curve" smooth="yes"/>
      <point x="307.15625" y="677.328125"/>
      <point x="261.96875" y="745.296875"/>
      <point x="261.96875" y="869.5625" type="curve" smooth="yes"/>
      <point x="261.96875" y="1055.1875"/>
      <point x="346.40625" y="1347.390625"/>
      <point x="512.859375" y="1347.390625" type="curve" smooth="yes"/>
      <point x="591.921875" y="1347.390625"/>
      <point x="635.0" y="1272.640625"/>
      <point x="635.0" y="1128.296875" type="curve" smooth="yes"/>
      <point x="635.0" y="983.921875"/>
      <point x="608.296875" y="869.40625"/>
      <point x="553.453125" y="796.390625" type="curve" smooth="yes"/>
      <point x="515.796875" y="726.09375"/>
      <point x="458.3125" y="677.328125"/>
    </contour>
  </outline>
</glyph>
<glyph name="semicolon" format="2">
  <advance width="407.171875"/>
  <unicode hex="003B"/>
  <outline>
    <contour>
      <point x="-100.90625" y="-268.90625" type="curve"/>
      <point x="12.015624999999988" y="-268.90625" type="line"/>
      <point x="101.59374999999999" y="-123.84375"/>
      <point x="186.25" y="46.78125"/>
      <point x="246.40625" y="204.078125" type="curve"/>
      <point x="238.296875" y="224.296875" type="line"/>
      <point x="86.875" y="224.296875" type="line"/>
      <point x="43.1875" y="69.921875"/>
      <point x="-26.781249999999996" y="-106.26562500000001"/>
    </contour>
    <contour>
      <point x="283.390625" y="863.625" type="curve" smooth="yes"/>
      <point x="352.890625" y="863.625"/>
      <point x="404.734375" y="931.984375"/>
      <point x="404.734375" y="1017.75" type="curve" smooth="yes"/>
      <point x="404.734375" y="1067.0"/>
      <point x="377.375" y="1103.484375"/>
      <point x="327.65625" y="1103.484375" type="curve" smooth="yes"/>
      <point x="246.6875" y="1103.484375"/>
      <point x="202.75" y="1028.21875"/>
      <point x="202.75" y="947.359375" type="curve" smooth="yes"/>
      <point x="202.75" y="893.3125"/>
      <point x="235.453125" y="863.625"/>
    </contour>
  </outline>
</glyph>
<glyph name="greater" format="2">
  <advance width="874.0"/>
  <unicode hex="003E"/>
  <outline>
    <contour>
      <point x="79.484375" y="422.34375" type="line"/>
      <point x="79.484375" y="273.609375" type="line"/>
      <point x="832.59375" y="685.140625" type="line"/>
      <point x="832.59375" y="777.34375" type="line"/>
      <point x="79.484375" y="1179.515625" type="line"/>
      <point x="79.484375" y="1030.671875" type="line"/>
      <point x="658.140625" y="729.296875" type="line"/>
    </contour>
  </outline>
</glyph>
<glyph name="question" format="2">
  <advance width="581.28125"/>
  <unicode hex="003F"/>
  <outline>
    <contour>
      <point x="120.953125" y="400.5625" type="curve"/>
      <point x="242.984375" y="400.5625" type="line"/>
      <point x="274.640625" y="577.953125"/>
      <point x="318.765625" y="650.15625"/>
      <point x="441.734375" y="791.65625" type="curve" smooth="yes"/>
      <point x="567.828125" y="935.390625"/>
      <point x="667.0625" y="1064.171875"/>
      <point x="667.0625" y="1243.734375" type="curve" smooth="yes"/>
      <point x="667.0625" y="1393.875"/>
      <point x="580.15625" y="1483.0"/>
      <point x="425.328125" y="1483.0" type="curve" smooth="yes"/>
      <point x="338.640625" y="1483.0"/>
      <point x="252.828125" y="1452.65625"/>
      <point x="172.65625" y="1392.5" type="curve"/>
      <point x="208.34375" y="1276.46875" type="line"/>
      <point x="263.59375" y="1314.375"/>
      <point x="322.390625" y="1347.390625"/>
      <point x="395.28125" y="1347.390625" type="curve" smooth="yes"/>
      <point x="469.90625" y="1347.390625"/>
      <point x="516.65625" y="1304.09375"/>
      <point x="516.65625" y="1214.125" type="curve" smooth="yes"/>
      <point x="516.65625" y="1053.484375"/>
      <point x="433.09375" y="971.40625"/>
      <point x="310.34375" y="822.5625" type="curve" smooth="yes"/>
      <point x="202.734375" y="692.640625"/>
      <point x="161.734375" y="599.984375"/>
    </contour>
    <contour>
      <point x="111.09375" y="-14.46875" type="curve" smooth="yes"/>
      <point x="178.8125" y="-14.46875"/>
      <point x="230.765625" y="53.0"/>
      <point x="230.765625" y="138.765625" type="curve" smooth="yes"/>
      <point x="230.765625" y="192.46875"/>
      <point x="201.625" y="225.390625"/>
      <point x="155.46875" y="225.390625" type="curve" smooth="yes"/>
      <point x="72.609375" y="225.390625"/>
      <point x="28.78125" y="150.125"/>
      <point x="28.78125" y="69.265625" type="curve" smooth="yes"/>
      <point x="28.78125" y="14.218750000000002"/>
      <point x="60.59375" y="-14.46875"/>
    </contour>
  </outline>
</glyph>
<glyph name="at" format="2">
  <advance width="1182.71875"/>
  <unicode hex="0040"/>
  <outline>
    <contour>
      <point x="440.609375" y="-173.3125" type="curve" smooth="yes"/>
      <point x="531.078125" y="-173.3125"/>
      <point x="622.921875" y="-148.859375"/>
      <point x="700.109375" y="-110.046875" type="curve"/>
      <point x="700.109375" y="-8.062500000000014" type="line"/>
      <point x="627.359375" y="-46.875000000000014"/>
      <point x="534.421875" y="-70.65625000000001"/>
      <point x="444.609375" y="-70.65625000000001" type="curve" smooth="yes"/>
      <point x="240.125" y="-70.65625000000001"/>
      <point x="163.0" y="88.671875"/>
      <point x="163.0" y="312.078125" type="curve" smooth="yes"/>
      <point x="163.0" y="791.140625"/>
      <point x="389.8125" y="1370.015625"/>
      <point x="782.609375" y="1370.015625" type="curve" smooth="yes"/>
      <point x="955.953125" y="1370.015625"/>
      <point x="1047.296875" y="1248.65625"/>
      <point x="1047.296875" y="997.265625" type="curve" smooth="yes"/>
      <point x="1047.296875" y="782.859375"/>
      <point x="948.890625" y="337.765625"/>
      <point x="812.234375" y="337.765625" type="curve" smooth="yes"/>
      <point x="775.03125" y="337.765625"/>
      <point x="758.359375" y="363.53125"/>
      <point x="758.359375" y="422.171875" type="curve" smooth="yes"/>
      <point x="758.359375" y="450.484375"/>
      <point x="766.578125" y="498.65625"/>
      <point x="783.109375" y="563.453125" type="curve" smooth="yes"/>
      <point x="899.578125" y="1035.125" type="line"/>
      <point x="852.109375" y="1058.921875"/>
      <point x="792.421875" y="1072.375"/>
      <point x="722.25" y="1072.375" type="curve" smooth="yes"/>
      <point x="468.078125" y="1072.375"/>
      <point x="339.515625" y="661.921875"/>
      <point x="339.515625" y="436.6875" type="curve" smooth="yes"/>
      <point x="339.515625" y="297.90625"/>
      <point x="390.078125" y="231.0"/>
      <point x="485.6875" y="231.0" type="curve" smooth="yes"/>
      <point x="557.671875" y="231.0"/>
      <point x="624.46875" y="298.53125"/>
      <point x="666.15625" y="397.734375" type="curve"/>
      <point x="667.9375" y="397.734375" type="line"/>
      <point x="674.84375" y="297.875"/>
      <point x="702.859375" y="236.0"/>
      <point x="800.890625" y="236.0" type="curve" smooth="yes"/>
      <point x="1017.703125" y="236.0"/>
      <point x="1159.40625" y="704.265625"/>
      <point x="1159.40625" y="1009.28125" type="curve" smooth="yes"/>
      <point x="1159.40625" y="1291.140625"/>
      <point x="1027.015625" y="1474.453125"/>
      <point x="793.734375" y="1474.453125" type="curve" smooth="yes"/>
      <point x="331.21875" y="1474.453125"/>
      <point x="49.21875" y="854.890625"/>
      <point x="49.21875" y="301.171875" type="curve" smooth="yes"/>
      <point x="49.21875" y="18.734375"/>
      <point x="179.515625" y="-173.3125"/>
    </contour>
    <contour>
      <point x="515.5" y="337.328125" type="curve" smooth="yes"/>
      <point x="477.40625" y="337.328125"/>
      <point x="456.859375" y="373.203125"/>
      <point x="456.859375" y="452.265625" type="curve" smooth="yes"/>
      <point x="456.859375" y="621.4375"/>
      <point x="548.9375" y="970.5"/>
      <point x="703.78125" y="970.5" type="curve" smooth="yes"/>
      <point x="728.109375" y="970.5"/>
      <point x="747.4375" y="968.5"/>
      <point x="763.546875" y="961.609375" type="curve"/>
      <point x="686.671875" y="662.65625" type="line" smooth="yes"/>
      <point x="628.6875" y="442.28125"/>
      <point x="575.390625" y="337.328125"/>
    </contour>
  </outline>
</glyph>
<glyph name="B" format="2">
  <advance width="868.421875"/>
  <unicode hex="0042"/>
  <anchor x="326.78125" y="0.0" name="bottom"/>
  <anchor x="630.765625" y="1462.0" name="top"/>
  <anchor x="1021.75" y="1462.0" name="topright"/>
  <outline>
    <contour>
      <point x="0.8749999999999982" y="0.0" type="line"/>
      <point x="311.390625" y="0.0" type="line" smooth="yes"/>
      <point x="607.5" y="0.0"/>
      <point x="764.765625" y="221.21875"/>
      <point x="764.765625" y="494.21875" type="curve" smooth="yes"/>
      <point x="764.765625" y="623.84375"/>
      <point x="708.015625" y="731.875"/>
      <point x="603.234375" y="762.0" type="curve"/>
      <point x="603.234375" y="767.78125" type="line"/>
      <point x="797.109375" y="817.90625"/>
      <point x="881.765625" y="996.203125"/>
      <point x="881.765625" y="1179.96875" type="curve" smooth="yes"/>
      <point x="881.765625" y="1366.6875"/>
      <point x="750.78125" y="1462.0"/>
      <point x="571.90625" y="1462.0" type="curve" smooth="yes"/>
      <point x="309.65625" y="1462.0" type="line"/>
    </contour>
    <contour>
      <point x="181.546875" y="134.71875" type="line"/>
      <point x="300.9375" y="699.359375" type="line"/>
      <point x="424.8125" y="699.359375" type="line" smooth="yes"/>
      <point x="538.296875" y="699.359375"/>
      <point x="607.34375" y="632.578125"/>
      <point x="607.34375" y="497.015625" type="curve" smooth="yes"/>
      <point x="607.34375" y="301.828125"/>
      <point x="518.6875" y="134.71875"/>
      <point x="311.609375" y="134.71875" type="curve" smooth="yes"/>
    </contour>
    <contour>
      <point x="327.859375" y="829.734375" type="line"/>
      <point x="432.8125" y="1329.0625" type="line"/>
      <point x="541.421875" y="1329.0625" type="line" smooth="yes"/>
      <point x="664.140625" y="1329.0625"/>
      <point x="720.78125" y="1271.546875"/>
      <point x="720.78125" y="1157.265625" type="curve" smooth="yes"/>
      <point x="720.78125" y="985.515625"/>
      <point x="625.0" y="829.734375"/>
      <point x="447.375" y="829.734375" type="curve" smooth="yes"/>
    </contour>
  </outline>
</glyph>
<glyph name="F" format="2">
  <advance width="699.5625"/>
  <unicode hex="0046"/>
  <anchor x="236.171875" y="0.0" name="bottom"/>
  <anchor x="545.390625" y="1462.0" name="top"/>
  <anchor x="852.890625" y="1462.0" name="topright"/>
  <outline>
    <contour>
      <point x="0.4374999999999982" y="0.0" type="line"/>
      <point x="152.296875" y="0.0" type="line"/>
      <point x="286.5" y="635.703125" type="line"/>
      <point x="634.984375" y="635.703125" type="line"/>
      <point x="663.6875" y="772.203125" type="line"/>
      <point x="316.984375" y="772.203125" type="line"/>
      <point x="432.8125" y="1325.5" type="line"/>
      <point x="804.515625" y="1325.5" type="line"/>
      <point x="835.0" y="1462.0" type="line"/>
      <point x="309.65625" y="1462.0" type="line"/>
    </contour>
  </outline>
</glyph>
<glyph name="J" format="2">
  <advance width="403.171875"/>
  <unicode hex="004A"/>
  <anchor x="-166.625" y="-388.515625" name="bottom"/>
  <anchor x="395.859375" y="1462.0" name="top"/>
  <anchor x="556.5" y="1462.0" name="topright"/>
  <outline>
    <contour>
      <point x="-166.625" y="-388.515625" type="curve" smooth="yes"/>
      <point x="-4.453125000000009" y="-388.515625"/>
      <point x="94.84375" y="-282.703125"/>
      <point x="147.203125" y="-34.140625" type="curve" smooth="yes"/>
      <point x="463.40625" y="1462.0" type="line"/>
      <point x="311.4375" y="1462.0" type="line"/>
      <point x="1.1249999999999964" y="-6.453125000000011" type="line" smooth="yes"/>
      <point x="-32.75" y="-161.84375"/>
      <point x="-74.1875" y="-252.015625"/>
      <point x="-169.75" y="-252.015625" type="curve" smooth="yes"/>
      <point x="-202.75" y="-252.015625"/>
      <point x="-234.859375" y="-242.234375"/>
      <point x="-265.09375" y="-227.5625" type="curve"/>
      <point x="-299.90625" y="-364.515625" type="line"/>
      <point x="-266.0" y="-380.296875"/>
      <point x="-223.65625" y="-388.515625"/>
    </contour>
  </outline>
</glyph>
<glyph name="N" format="2">
  <advance width="1039.296875"/>
  <unicode hex="004E"/>
  <anchor x="406.09375" y="0.0" name="bottom"/>
  <anchor x="717.203125" y="1462.0" name="top"/>
  <anchor x="1194.40625" y="1462.0" name="topright"/>
  <outline>
    <contour>
      <point x="0.4374999999999982" y="0.0" type="line"/>
      <point x="147.171875" y="0.0" type="line"/>
      <point x="313.03125" y="790.46875" type="line" smooth="yes"/>
      <point x="330.90625" y="871.625"/>
      <point x="372.515625" y="1058.078125"/>
      <point x="391.421875" y="1203.03125" type="curve"/>
      <point x="397.203125" y="1203.03125" type="line"/>
      <point x="597.78125" y="0.0" type="line"/>
      <point x="772.4375" y="0.0" type="line"/>
      <point x="1084.328125" y="1462.0" type="line"/>
      <point x="935.8125" y="1462.0" type="line"/>
      <point x="762.59375" y="642.859375" type="line" smooth="yes"/>
      <point x="747.03125" y="563.265625"/>
      <point x="717.125" y="418.734375"/>
      <point x="692.890625" y="277.75" type="curve"/>
      <point x="687.109375" y="277.75" type="line"/>
      <point x="490.765625" y="1462.0" type="line"/>
      <point x="309.65625" y="1462.0" type="line"/>
    </contour>
  </outline>
</glyph>
<glyph name="O" format="2">
  <advance width="1004.296875"/>
  <unicode hex="004F"/>
  <anchor x="387.203125" y="0.0" name="bottom"/>
  <anchor x="552.109375" y="731.0" name="center"/>
  <anchor x="696.421875" y="1462.0" name="top"/>
  <anchor x="1157.625" y="1462.0" name="topright"/>
  <outline>
    <contour>
      <point x="384.109375" y="-20.0" type="curve" smooth="yes"/>
      <point x="806.28125" y="-20.0"/>
      <point x="972.203125" y="690.015625"/>
      <point x="972.203125" y="1073.484375" type="curve" smooth="yes"/>
      <point x="972.203125" y="1350.84375"/>
      <point x="871.515625" y="1483.0"/>
      <point x="663.875" y="1483.0" type="curve" smooth="yes"/>
      <point x="264.171875" y="1483.0"/>
      <point x="71.78125" y="841.71875"/>
      <point x="71.78125" y="406.828125" type="curve" smooth="yes"/>
      <point x="71.78125" y="115.796875"/>
      <point x="174.25" y="-20.0"/>
    </contour>
    <contour>
      <point x="395.453125" y="118.28125" type="curve" smooth="yes"/>
      <point x="286.28125" y="118.28125"/>
      <point x="229.203125" y="202.6875"/>
      <point x="229.203125" y="405.484375" type="curve" smooth="yes"/>
      <point x="229.203125" y="674.484375"/>
      <point x="345.46875" y="1345.609375"/>
      <point x="650.078125" y="1345.609375" type="curve" smooth="yes"/>
      <point x="762.46875" y="1345.609375"/>
      <point x="816.5625" y="1260.40625"/>
      <point x="816.5625" y="1074.828125" type="curve" smooth="yes"/>
      <point x="816.5625" y="744.421875"/>
      <point x="680.25" y="118.28125"/>
    </contour>
  </outline>
</glyph>
<glyph name="R" format="2">
  <advance width="842.328125"/>
  <unicode hex="0052"/>
  <anchor x="306.328125" y="0.0" name="bottom"/>
  <anchor x="616.4375" y="1462.0" name="top"/>
  <anchor x="996.546875" y="1462.0" name="topright"/>
  <outline>
    <contour>
      <point x="0.6562499999999982" y="0.0" type="line"/>
      <point x="152.515625" y="0.0" type="line"/>
      <point x="282.71875" y="616.921875" type="line"/>
      <point x="404.171875" y="616.921875" type="line"/>
      <point x="514.609375" y="0.0" type="line"/>
      <point x="679.265625" y="0.0" type="line"/>
      <point x="549.796875" y="647.296875" type="line"/>
      <point x="737.859375" y="693.640625"/>
      <point x="852.765625" y="903.953125"/>
      <point x="852.765625" y="1147.1875" type="curve" smooth="yes"/>
      <point x="852.765625" y="1347.96875"/>
      <point x="735.421875" y="1462.0"/>
      <point x="523.328125" y="1462.0" type="curve" smooth="yes"/>
      <point x="309.65625" y="1462.0" type="line"/>
    </contour>
    <contour>
      <point x="311.640625" y="747.296875" type="line"/>
      <point x="433.03125" y="1327.28125" type="line"/>
      <point x="499.984375" y="1327.28125" type="line" smooth="yes"/>
      <point x="626.703125" y="1327.28125"/>
      <point x="693.5625" y="1260.1875"/>
      <point x="693.5625" y="1127.828125" type="curve" smooth="yes"/>
      <point x="693.5625" y="938.734375"/>
      <point x="607.125" y="747.296875"/>
      <point x="407.65625" y="747.296875" type="curve" smooth="yes"/>
    </contour>
  </outline>
</glyph>
<glyph name="S" format="2">
  <advance width="762.125"/>
  <unicode hex="0053"/>
  <anchor x="268.0625" y="0.0" name="bottom"/>
  <anchor x="578.171875" y="1462.0" name="top"/>
  <anchor x="918.125" y="1462.0" name="topright"/>
  <outline>
    <contour>
      <point x="227.640625" y="-20.0" type="curve" smooth="yes"/>
      <point x="497.9375" y="-20.0"/>
      <point x="646.71875" y="157.953125"/>
      <point x="646.71875" y="413.296875" type="curve" smooth="yes"/>
      <point x="646.71875" y="568.546875"/>
      <point x="595.3125" y="670.640625"/>
      <point x="489.859375" y="777.296875" type="curve" smooth="yes"/>
      <point x="372.203125" y="898.59375"/>
      <point x="315.421875" y="965.0"/>
      <point x="315.421875" y="1085.953125" type="curve" smooth="yes"/>
      <point x="315.421875" y="1246.1875"/>
      <point x="419.5" y="1340.265625"/>
      <point x="555.421875" y="1340.265625" type="curve" smooth="yes"/>
      <point x="630.265625" y="1340.265625"/>
      <point x="699.375" y="1310.828125"/>
      <point x="761.296875" y="1269.359375" type="curve"/>
      <point x="833.9375" y="1408.3125" type="line"/>
      <point x="773.796875" y="1449.78125"/>
      <point x="662.859375" y="1483.0"/>
      <point x="566.546875" y="1483.0" type="curve" smooth="yes"/>
      <point x="318.34375" y="1483.0"/>
      <point x="156.21875" y="1323.265625"/>
      <point x="156.21875" y="1069.484375" type="curve" smooth="yes"/>
      <point x="156.21875" y="906.609375"/>
      <point x="223.65625" y="812.828125"/>
      <point x="332.4375" y="702.078125" type="curve" smooth="yes"/>
      <point x="456.5625" y="572.421875"/>
      <point x="487.515625" y="510.6875"/>
      <point x="487.515625" y="399.71875" type="curve" smooth="yes"/>
      <point x="487.515625" y="224.359375"/>
      <point x="385.21875" y="123.62499999999999"/>
      <point x="232.53125" y="123.62499999999999" type="curve" smooth="yes"/>
      <point x="134.546875" y="123.62499999999999"/>
      <point x="42.07812499999999" y="157.640625"/>
      <point x="-28.718750000000004" y="205.109375" type="curve"/>
      <point x="-48.3125" y="45.46875" type="line"/>
      <point x="13.593749999999998" y="4.21875"/>
      <point x="110.953125" y="-20.0"/>
    </contour>
  </outline>
</glyph>
<glyph name="T" format="2">
  <advance width="693.734375"/>
  <unicode hex="0054"/>
  <anchor x="232.3125" y="0.0" name="bottom"/>
  <anchor x="396.328125" y="731.0" name="center"/>
  <anchor x="541.640625" y="1462.0" name="top"/>
  <anchor x="847.0625" y="1462.0" name="topright"/>
  <outline>
    <contour>
      <point x="134.78125" y="0.0" type="line"/>
      <point x="286.640625" y="0.0" type="line"/>
      <point x="568.046875" y="1323.71875" type="line"/>
      <point x="820.359375" y="1323.71875" type="line"/>
      <point x="850.84375" y="1462.0" type="line"/>
      <point x="193.796875" y="1462.0" type="line"/>
      <point x="163.3125" y="1323.71875" type="line"/>
      <point x="416.1875" y="1323.71875" type="line"/>
    </contour>
  </outline>
</glyph>
<glyph name="X" format="2">
  <advance width="744.796875"/>
  <unicode hex="0058"/>
  <anchor x="256.671875" y="0.0" name="bottom"/>
  <anchor x="567.671875" y="1462.0" name="top"/>
  <anchor x="898.015625" y="1462.0" name="topright"/>
  <outline>
    <contour>
      <point x="-120.78125" y="0.0" type="line"/>
      <point x="40.53124999999997" y="0.0" type="line"/>
      <point x="372.734375" y="601.015625" type="line"/>
      <point x="430.390625" y="0.0" type="line"/>
      <point x="591.265625" y="0.0" type="line"/>
      <point x="494.328125" y="749.53125" type="line"/>
      <point x="889.796875" y="1462.0" type="line"/>
      <point x="728.59375" y="1462.0" type="line"/>
      <point x="441.265625" y="913.171875" type="line"/>
      <point x="378.71875" y="1462.0" type="line"/>
      <point x="221.515625" y="1462.0" type="line"/>
      <point x="319.0" y="770.65625" type="line"/>
    </contour>
  </outline>
</glyph>
<glyph name="bracketright" format="2">
  <advance width="576.140625"/>
  <unicode hex="005D"/>
  <outline>
    <contour>
      <point x="-133.90625" y="-329.34375" type="line"/>
      <point x="246.171875" y="-329.34375" type="line"/>
      <point x="630.734375" y="1473.578125" type="line"/>
      <point x="248.875" y="1473.578125" type="line"/>
      <point x="221.953125" y="1350.65625" type="line"/>
      <point x="467.3125" y="1350.65625" type="line"/>
      <point x="135.703125" y="-207.203125" type="line"/>
      <point x="-109.65625" y="-207.203125" type="line"/>
    </contour>
  </outline>
</glyph>
<glyph name="underscore" format="2">
  <advance width="611.59375"/>
  <unicode hex="005F"/>
  <outline>
    <contour>
      <point x="-175.375" y="-288.765625" type="line"/>
      <point x="436.015625" y="-288.765625" type="line"/>
      <point x="458.28125" y="-171.75" type="line"/>
      <point x="-154.0" y="-171.75" type="line"/>
    </contour>
  </outline>
</glyph>
<glyph name="c" format="2">
  <advance width="638.28125"/>
  <unicode hex="0063"/>
  <anchor x="203.859375" y="0.0" name="bottom"/>
  <anchor x="436.421875" y="1095.703125" name="top"/>
  <anchor x="714.0625" y="1095.703125" name="topright"/>
  <outline>
    <contour>
      <point x="309.9375" y="-20.0" type="curve" smooth="yes"/>
      <point x="383.859375" y="-20.0"/>
      <point x="454.6875" y="2.9062499999999982"/>
      <point x="505.5" y="33.828125" type="curve"/>
      <point x="505.5" y="163.421875" type="line"/>
      <point x="446.90625" y="128.5"/>
      <point x="392.109375" y="109.37499999999999"/>
      <point x="343.328125" y="109.37499999999999" type="curve" smooth="yes"/>
      <point x="250.375" y="109.37499999999999"/>
      <point x="202.28125" y="175.03125"/>
      <point x="202.28125" y="325.484375" type="curve" smooth="yes"/>
      <point x="202.28125" y="587.5"/>
      <point x="307.890625" y="986.4375"/>
      <point x="521.734375" y="986.4375" type="curve" smooth="yes"/>
      <point x="562.296875" y="986.4375"/>
      <point x="606.203125" y="973.203125"/>
      <point x="640.984375" y="949.1875" type="curve"/>
      <point x="699.953125" y="1071.4375" type="line"/>
      <point x="650.359375" y="1102.46875"/>
      <point x="592.890625" y="1115.8125"/>
      <point x="523.515625" y="1115.8125" type="curve" smooth="yes"/>
      <point x="190.984375" y="1115.8125"/>
      <point x="52.09375" y="633.46875"/>
      <point x="52.09375" y="309.90625" type="curve" smooth="yes"/>
      <point x="52.09375" y="90.93749999999999"/>
      <point x="142.125" y="-20.0"/>
    </contour>
  </outline>
</glyph>
<glyph name="m" format="2">
  <advance width="1239.796875"/>
  <unicode hex="006D"/>
  <anchor x="506.34375" y="0.0" name="bottom"/>
  <anchor x="735.453125" y="1082.34375" name="top"/>
  <anchor x="1313.796875" y="1082.34375" name="topright"/>
  <outline>
    <contour>
      <point x="-0.4687499999999991" y="0.0" type="line"/>
      <point x="147.9375" y="0.0" type="line"/>
      <point x="274.9375" y="597.78125" type="line" smooth="yes"/>
      <point x="315.46875" y="798.796875"/>
      <point x="376.6875" y="982.875"/>
      <point x="519.296875" y="982.875" type="curve" smooth="yes"/>
      <point x="579.703125" y="982.875"/>
      <point x="609.34375" y="944.890625"/>
      <point x="609.34375" y="874.125" type="curve" smooth="yes"/>
      <point x="609.34375" y="846.453125"/>
      <point x="605.5625" y="804.328125"/>
      <point x="595.78125" y="762.203125" type="curve" smooth="yes"/>
      <point x="433.59375" y="0.0" type="line"/>
      <point x="580.109375" y="0.0" type="line"/>
      <point x="733.1875" y="718.109375" type="line" smooth="yes"/>
      <point x="760.84375" y="848.96875"/>
      <point x="824.515625" y="982.875"/>
      <point x="939.25" y="982.875" type="curve" smooth="yes"/>
      <point x="999.4375" y="982.875"/>
      <point x="1032.171875" y="945.4375"/>
      <point x="1032.171875" y="872.125" type="curve" smooth="yes"/>
      <point x="1032.171875" y="843.578125"/>
      <point x="1024.390625" y="792.78125"/>
      <point x="1014.171875" y="742.90625" type="curve" smooth="yes"/>
      <point x="856.859375" y="0.0" type="line"/>
      <point x="1003.375" y="0.0" type="line"/>
      <point x="1166.03125" y="770.1875" type="line" smooth="yes"/>
      <point x="1175.8125" y="818.09375"/>
      <point x="1184.140625" y="870.515625"/>
      <point x="1184.140625" y="911.078125" type="curve" smooth="yes"/>
      <point x="1184.140625" y="1046.671875"/>
      <point x="1112.828125" y="1115.8125"/>
      <point x="999.015625" y="1115.8125" type="curve" smooth="yes"/>
      <point x="899.359375" y="1115.8125"/>
      <point x="820.6875" y="1064.265625"/>
      <point x="760.765625" y="974.265625" type="curve"/>
      <point x="756.765625" y="974.265625" type="line"/>
      <point x="738.296875" y="1069.828125"/>
      <point x="678.625" y="1115.8125"/>
      <point x="574.953125" y="1115.8125" type="curve" smooth="yes"/>
      <point x="476.28125" y="1115.8125"/>
      <point x="395.609375" y="1058.484375"/>
      <point x="336.8125" y="951.59375" type="curve"/>
      <point x="331.03125" y="951.59375" type="line"/>
      <point x="351.796875" y="1095.703125" type="line"/>
      <point x="231.984375" y="1095.703125" type="line"/>
    </contour>
  </outline>
</glyph>
<glyph name="o" format="2">
  <advance width="823.171875"/>
  <unicode hex="006F"/>
  <anchor x="297.640625" y="0.0" name="bottom"/>
  <anchor x="443.8125" y="542.5625" name="center"/>
  <anchor x="526.640625" y="1082.34375" name="top"/>
  <anchor x="896.28125" y="1082.34375" name="topright"/>
  <outline>
    <contour>
      <point x="308.078125" y="-20.0" type="curve" smooth="yes"/>
      <point x="625.59375" y="-20.0"/>
      <point x="770.625" y="448.046875"/>
      <point x="770.625" y="783.421875" type="curve" smooth="yes"/>
      <point x="770.625" y="997.984375"/>
      <point x="676.8125" y="1115.8125"/>
      <point x="516.859375" y="1115.8125" type="curve" smooth="yes"/>
      <point x="172.6875" y="1115.8125"/>
      <point x="51.65625" y="583.21875"/>
      <point x="51.65625" y="307.71875" type="curve" smooth="yes"/>
      <point x="51.65625" y="92.9375"/>
      <point x="146.125" y="-20.0"/>
    </contour>
    <contour>
      <point x="323.4375" y="109.37499999999999" type="curve" smooth="yes"/>
      <point x="241.03125" y="109.37499999999999"/>
      <point x="200.28125" y="178.015625"/>
      <point x="200.28125" y="305.9375" type="curve" smooth="yes"/>
      <point x="200.28125" y="523.8125"/>
      <point x="292.25" y="988.21875"/>
      <point x="498.609375" y="988.21875" type="curve" smooth="yes"/>
      <point x="580.796875" y="988.21875"/>
      <point x="621.21875" y="914.90625"/>
      <point x="621.21875" y="786.984375" type="curve" smooth="yes"/>
      <point x="621.21875" y="531.34375"/>
      <point x="515.5625" y="109.37499999999999"/>
    </contour>
  </outline>
</glyph>
<glyph name="q" format="2">
  <advance width="854.59375"/>
  <unicode hex="0071"/>
  <anchor x="210.296875" y="-487.90625" name="bottom"/>
  <anchor x="542.296875" y="1082.34375" name="top"/>
  <anchor x="928.59375" y="1082.34375" name="topright"/>
  <outline>
    <contour>
      <point x="367.875" y="-487.90625" type="line"/>
      <point x="513.5" y="-487.90625" type="line"/>
      <point x="848.625" y="1095.703125" type="line"/>
      <point x="723.6875" y="1095.703125" type="line"/>
      <point x="680.90625" y="951.765625" type="line"/>
      <point x="676.90625" y="951.765625" type="line"/>
      <point x="653.984375" y="1057.203125"/>
      <point x="596.65625" y="1115.8125"/>
      <point x="492.359375" y="1115.8125" type="curve" smooth="yes"/>
      <point x="186.4375" y="1115.8125"/>
      <point x="50.09375" y="575.921875"/>
      <point x="50.09375" y="279.4375" type="curve" smooth="yes"/>
      <point x="50.09375" y="81.5625"/>
      <point x="125.65625" y="-20.0"/>
      <point x="258.0" y="-20.0" type="curve" smooth="yes"/>
      <point x="356.515625" y="-20.0"/>
      <point x="436.953125" y="39.04687500000001"/>
      <point x="505.09375" y="147.484375" type="curve"/>
      <point x="509.09375" y="147.484375" type="line"/>
      <point x="494.1875" y="92.3125"/>
      <point x="478.390625" y="37.031250000000014"/>
      <point x="469.953125" y="-1.7187499999999858" type="curve" smooth="yes"/>
    </contour>
    <contour>
      <point x="311.203125" y="109.37499999999999" type="curve" smooth="yes"/>
      <point x="238.34375" y="109.37499999999999"/>
      <point x="202.28125" y="165.46875"/>
      <point x="202.28125" y="294.125" type="curve" smooth="yes"/>
      <point x="202.28125" y="538.015625"/>
      <point x="309.59375" y="984.65625"/>
      <point x="504.609375" y="984.65625" type="curve" smooth="yes"/>
      <point x="581.5625" y="984.65625"/>
      <point x="625.65625" y="926.484375"/>
      <point x="625.65625" y="820.78125" type="curve" smooth="yes"/>
      <point x="625.65625" y="597.84375"/>
      <point x="515.96875" y="109.37499999999999"/>
    </contour>
  </outline>
</glyph>
<glyph name="v" format="2">
  <advance width="673.453125"/>
  <unicode hex="0076"/>
  <anchor x="221.890625" y="0.0" name="bottom"/>
  <anchor x="451.78125" y="1082.34375" name="top"/>
  <anchor x="747.453125" y="1082.34375" name="topright"/>
  <outline>
    <contour>
      <point x="135.46875" y="0.0" type="line"/>
      <point x="296.890625" y="0.0" type="line"/>
      <point x="777.90625" y="1095.703125" type="line"/>
      <point x="625.828125" y="1095.703125" type="line"/>
      <point x="337.6875" y="415.5" type="line" smooth="yes"/>
      <point x="310.140625" y="350.1875"/>
      <point x="285.15625" y="287.546875"/>
      <point x="261.5" y="214.890625" type="curve"/>
      <point x="253.71875" y="214.890625" type="line"/>
      <point x="259.28125" y="274.609375"/>
      <point x="262.84375" y="406.28125"/>
      <point x="262.84375" y="472.484375" type="curve" smooth="yes"/>
      <point x="266.859375" y="1095.703125" type="line"/>
      <point x="120.5625" y="1095.703125" type="line"/>
    </contour>
  </outline>
</glyph>
<glyph name="x" format="2">
  <advance width="691.546875"/>
  <unicode hex="0078"/>
  <anchor x="231.21875" y="0.0" name="bottom"/>
  <anchor x="460.328125" y="1082.34375" name="top"/>
  <anchor x="764.546875" y="1082.34375" name="topright"/>
  <outline>
    <contour>
      <point x="-93.34375" y="0.0" type="line"/>
      <point x="66.29687499999999" y="0.0" type="line"/>
      <point x="317.734375" y="429.40625" type="line"/>
      <point x="393.03125" y="0.0" type="line"/>
      <point x="546.671875" y="0.0" type="line"/>
      <point x="430.875" y="556.125" type="line"/>
      <point x="767.453125" y="1095.703125" type="line"/>
      <point x="606.03125" y="1095.703125" type="line"/>
      <point x="374.25" y="695.734375" type="line"/>
      <point x="307.84375" y="1095.703125" type="line"/>
      <point x="155.09375" y="1095.703125" type="line"/>
      <point x="258.4375" y="570.125" type="line"/>
    </contour>
  </outline>
</glyph>
<glyph name="braceleft" format="2">
  <advance width="667.953125"/>
  <unicode hex="007B"/>
  <outline>
    <contour>
      <point x="418.78125" y="-324.0" type="curve" smooth="yes"/>
      <point x="429.765625" y="-324.0" type="line"/>
      <point x="434.640625" y="-198.96875" type="line"/>
      <point x="326.59375" y="-197.1875"/>
      <point x="285.296875" y="-159.625"/>
      <point x="285.296875" y="-66.65625" type="curve" smooth="yes"/>
      <point x="285.296875" y="-45.45312500000001"/>
      <point x="287.84375" y="-17.906250000000007"/>
      <point x="294.0625" y="15.296874999999993" type="curve" smooth="yes"/>
      <point x="352.921875" y="295.046875" type="line" smooth="yes"/>
      <point x="361.8125" y="333.828125"/>
      <point x="365.8125" y="365.828125"/>
      <point x="365.8125" y="393.046875" type="curve" smooth="yes"/>
      <point x="365.8125" y="484.609375"/>
      <point x="319.46875" y="542.09375"/>
      <point x="220.953125" y="565.0" type="curve"/>
      <point x="220.953125" y="570.5625" type="line"/>
      <point x="364.46875" y="592.6875"/>
      <point x="435.28125" y="675.046875"/>
      <point x="464.0625" y="810.734375" type="curve" smooth="yes"/>
      <point x="535.8125" y="1149.484375" type="line" smooth="yes"/>
      <point x="566.359375" y="1287.4375"/>
      <point x="622.21875" y="1336.1875"/>
      <point x="765.8125" y="1337.96875" type="curve"/>
      <point x="794.734375" y="1462.0" type="line"/>
      <point x="787.75" y="1462.0" type="line" smooth="yes"/>
      <point x="559.46875" y="1462.0"/>
      <point x="444.765625" y="1401.6875"/>
      <point x="396.640625" y="1180.625" type="curve" smooth="yes"/>
      <point x="322.21875" y="833.734375" type="line" smooth="yes"/>
      <point x="292.5625" y="691.109375"/>
      <point x="220.3125" y="632.296875"/>
      <point x="76.21875" y="632.296875" type="curve"/>
      <point x="49.296875" y="510.046875" type="line"/>
      <point x="173.96875" y="510.046875"/>
      <point x="219.078125" y="470.359375"/>
      <point x="219.078125" y="380.796875" type="curve" smooth="yes"/>
      <point x="219.078125" y="353.140625"/>
      <point x="214.75" y="325.71875"/>
      <point x="208.3125" y="298.09375" type="curve" smooth="yes"/>
      <point x="150.0" y="18.296874999999996" type="line" smooth="yes"/>
      <point x="142.78125" y="-20.921875000000007"/>
      <point x="136.78125" y="-56.140625"/>
      <point x="136.78125" y="-90.921875" type="curve" smooth="yes"/>
      <point x="136.78125" y="-241.75"/>
      <point x="221.25" y="-322.21875"/>
    </contour>
  </outline>
</glyph>
<glyph name="bar" format="2">
  <advance width="744.75"/>
  <unicode hex="007C"/>
  <outline>
    <contour>
      <point x="301.1875" y="-486.640625" type="line"/>
      <point x="434.453125" y="-486.640625" type="line"/>
      <point x="434.453125" y="1564.34375" type="line"/>
      <point x="301.1875" y="1564.34375" type="line"/>
    </contour>
  </outline>
</glyph>
<glyph name="exclamdown" format="2">
  <advance width="473.890625"/>
  <unicode hex="00A1"/>
  <outline>
    <contour>
      <point x="-40.265625" y="-377.90625" type="line"/>
      <point x="131.62499999999997" y="-377.90625" type="line"/>
      <point x="335.328125" y="693.4375" type="line"/>
      <point x="217.734375" y="693.4375" type="line"/>
    </contour>
    <contour>
      <point x="316.5625" y="868.5" type="curve" smooth="yes"/>
      <point x="397.640625" y="868.5"/>
      <point x="444.25" y="943.875"/>
      <point x="444.25" y="1024.734375" type="curve" smooth="yes"/>
      <point x="444.25" y="1078.78125"/>
      <point x="411.4375" y="1108.46875"/>
      <point x="361.828125" y="1108.46875" type="curve" smooth="yes"/>
      <point x="293.21875" y="1108.46875"/>
      <point x="242.15625" y="1040.0"/>
      <point x="242.15625" y="954.34375" type="curve" smooth="yes"/>
      <point x="242.15625" y="901.53125"/>
      <point x="270.515625" y="868.5"/>
    </contour>
  </outline>
</glyph>
<glyph name="sterling" format="2">
  <advance width="792.5"/>
  <unicode hex="00A3"/>
  <outline>
    <contour>
      <point x="-49.296875" y="0.0" type="line"/>
      <point x="592.375" y="0.0" type="line"/>
      <point x="621.078125" y="136.5" type="line"/>
      <point x="151.203125" y="136.5" type="line"/>
      <point x="226.6875" y="184.640625"/>
      <point x="284.453125" y="270.890625"/>
      <point x="316.984375" y="423.546875" type="curve" smooth="yes"/>
      <point x="370.0625" y="671.0625" type="line"/>
      <point x="596.40625" y="671.0625" type="line"/>
      <point x="621.546875" y="793.421875" type="line"/>
      <point x="395.203125" y="793.421875" type="line"/>
      <point x="462.9375" y="1117.65625" type="line" smooth="yes"/>
      <point x="495.9375" y="1267.984375"/>
      <point x="540.71875" y="1345.609375"/>
      <point x="646.984375" y="1345.609375" type="curve" smooth="yes"/>
      <point x="709.171875" y="1345.609375"/>
      <point x="759.734375" y="1320.40625"/>
      <point x="803.859375" y="1280.0625" type="curve"/>
      <point x="877.15625" y="1401.0" type="line"/>
      <point x="812.109375" y="1454.46875"/>
      <point x="739.859375" y="1483.0"/>
      <point x="649.203125" y="1483.0" type="curve" smooth="yes"/>
      <point x="456.953125" y="1483.0"/>
      <point x="367.0" y="1353.3125"/>
      <point x="319.984375" y="1143.484375" type="curve" smooth="yes"/>
      <point x="246.6875" y="793.421875" type="line"/>
      <point x="110.484375" y="793.421875" type="line"/>
      <point x="85.34375" y="671.0625" type="line"/>
      <point x="221.65625" y="671.0625" type="line"/>
      <point x="168.6875" y="421.765625" type="line" smooth="yes"/>
      <point x="132.59375" y="255.75"/>
      <point x="71.046875" y="166.625"/>
      <point x="-22.265625000000004" y="125.15625" type="curve"/>
    </contour>
  </outline>
</glyph>
<glyph name="dieresis" format="2">
  <advance width="962.78125"/>
  <unicode hex="00A8"/>
  <outline>
    <contour>
      <point x="726.296875" y="1295.609375" type="curve" smooth="yes"/>
      <point x="783.5625" y="1295.609375"/>
      <point x="825.609375" y="1353.0625"/>
      <point x="825.609375" y="1427.921875" type="curve" smooth="yes"/>
      <point x="825.609375" y="1473.171875"/>
      <point x="801.8125" y="1496.296875"/>
      <point x="761.109375" y="1496.296875" type="curve" smooth="yes"/>
      <point x="696.71875" y="1496.296875"/>
      <point x="658.125" y="1434.609375"/>
      <point x="658.125" y="1368.4375" type="curve" smooth="yes"/>
      <point x="658.125" y="1319.625"/>
      <point x="682.03125" y="1295.609375"/>
    </contour>
    <contour>
      <point x="424.65625" y="1295.609375" type="curve" smooth="yes"/>
      <point x="482.8125" y="1295.609375"/>
      <point x="523.078125" y="1353.0625"/>
      <point x="523.078125" y="1427.921875" type="curve" smooth="yes"/>
      <point x="523.078125" y="1473.171875"/>
      <point x="500.171875" y="1496.296875"/>
      <point x="461.140625" y="1496.296875" type="curve" smooth="yes"/>
      <point x="395.078125" y="1496.296875"/>
      <point x="358.265625" y="1434.609375"/>
      <point x="358.265625" y="1368.4375" type="curve" smooth="yes"/>
      <point x="358.265625" y="1319.625"/>
      <point x="382.171875" y="1295.609375"/>
    </contour>
  </outline>
</glyph>
<glyph name="acute" format="2">
  <advance width="504.625"/>
  <unicode hex="00B4"/>
  <anchor x="321.734375" y="1085.0" name="_top"/>
  <outline>
    <contour>
      <point x="231.765625" y="1241.0" type="line"/>
      <point x="327.46875" y="1241.0" type="line"/>
      <point x="409.21875" y="1305.65625"/>
      <point x="578.734375" y="1472.015625"/>
      <point x="635.84375" y="1552.0" type="curve"/>
      <point x="637.625" y="1569.0" type="line"/>
      <point x="459.84375" y="1569.0" type="line"/>
      <point x="409.5" y="1479.65625"/>
      <point x="327.3125" y="1368.46875"/>
      <point x="233.328125" y="1259.671875" type="curve"/>
    </contour>
  </outline>
</glyph>
<glyph name="cedilla" format="2">
  <advance width="391.015625"/>
  <unicode hex="00B8"/>
  <outline>
    <contour>
      <point x="-22.234375" y="-492.0" type="curve" smooth="yes"/>
      <point x="122.78125" y="-492.0"/>
      <point x="231.6875" y="-408.796875"/>
      <point x="231.6875" y="-262.515625" type="curve" smooth="yes"/>
      <point x="231.6875" y="-180.078125"/>
      <point x="178.03125" y="-125.953125"/>
      <point x="89.8125" y="-107.171875" type="curve"/>
      <point x="164.21875" y="0.0" type="line"/>
      <point x="71.359375" y="0.0" type="line"/>
      <point x="-34.953125" y="-163.78125" type="line"/>
      <point x="62.35937500000001" y="-175.5625"/>
      <point x="109.4375" y="-208.5625"/>
      <point x="109.4375" y="-270.296875" type="curve" smooth="yes"/>
      <point x="109.4375" y="-343.609375"/>
      <point x="54.14062500000001" y="-393.015625"/>
      <point x="-37.828125" y="-393.015625" type="curve" smooth="yes"/>
      <point x="-90.25" y="-393.015625"/>
      <point x="-127.46875" y="-386.796875"/>
      <point x="-150.140625" y="-378.796875" type="curve"/>
      <point x="-150.140625" y="-477.0" type="line"/>
      <point x="-112.234375" y="-486.5625"/>
      <point x="-70.65625" y="-492.0"/>
    </contour>
  </outline>
</glyph>
<glyph name="germandbls" format="2">
  <advance width="825.1875"/>
  <unicode hex="00DF"/>
  <anchor x="193.59375" y="-492.0" name="bottom"/>
  <anchor x="629.8125" y="1567.0" name="top"/>
  <outline>
    <contour>
      <point x="-174.265625" y="-492.0" type="curve" smooth="yes"/>
      <point x="12.828124999999993" y="-492.0"/>
      <point x="60.515625" y="-333.828125"/>
      <point x="104.421875" y="-132.1875" type="curve" smooth="yes"/>
      <point x="386.25" y="1184.859375" type="line" smooth="yes"/>
      <point x="423.46875" y="1353.171875"/>
      <point x="479.59375" y="1434.953125"/>
      <point x="577.6875" y="1434.953125" type="curve" smooth="yes"/>
      <point x="641.890625" y="1434.953125"/>
      <point x="684.421875" y="1394.75"/>
      <point x="684.421875" y="1321.671875" type="curve" smooth="yes"/>
      <point x="684.421875" y="1207.140625"/>
      <point x="628.984375" y="1139.921875"/>
      <point x="537.78125" y="1043.171875" type="curve" smooth="yes"/>
      <point x="454.4375" y="957.171875"/>
      <point x="409.875" y="871.828125"/>
      <point x="409.875" y="774.265625" type="curve" smooth="yes"/>
      <point x="409.875" y="695.828125"/>
      <point x="439.296875" y="628.5625"/>
      <point x="489.4375" y="541.65625" type="curve" smooth="yes"/>
      <point x="536.6875" y="456.96875"/>
      <point x="563.453125" y="391.4375"/>
      <point x="563.453125" y="315.6875" type="curve" smooth="yes"/>
      <point x="563.453125" y="192.0"/>
      <point x="497.71875" y="111.15624999999999"/>
      <point x="392.328125" y="111.15624999999999" type="curve" smooth="yes"/>
      <point x="335.890625" y="111.15624999999999"/>
      <point x="277.765625" y="128.9375"/>
      <point x="223.421875" y="170.40625" type="curve"/>
      <point x="204.71875" y="27.796875" type="line"/>
      <point x="248.40625" y="-1.9999999999999998"/>
      <point x="315.421875" y="-20.0"/>
      <point x="387.328125" y="-20.0" type="curve" smooth="yes"/>
      <point x="591.703125" y="-20.0"/>
      <point x="715.53125" y="124.34375"/>
      <point x="715.53125" y="330.828125" type="curve" smooth="yes"/>
      <point x="715.53125" y="440.28125"/>
      <point x="676.09375" y="521.8125"/>
      <point x="632.625" y="595.265625" type="curve" smooth="yes"/>
      <point x="593.625" y="669.125"/>
      <point x="562.0625" y="733.4375"/>
      <point x="562.0625" y="792.96875" type="curve" smooth="yes"/>
      <point x="562.0625" y="880.53125"/>
      <point x="608.765625" y="938.40625"/>
      <point x="685.640625" y="1021.390625" type="curve" smooth="yes"/>
      <point x="782.40625" y="1124.265625"/>
      <point x="834.71875" y="1209.828125"/>
      <point x="834.71875" y="1335.921875" type="curve" smooth="yes"/>
      <point x="834.71875" y="1471.640625"/>
      <point x="747.453125" y="1567.0"/>
      <point x="589.03125" y="1567.0" type="curve" smooth="yes"/>
      <point x="399.9375" y="1567.0"/>
      <point x="292.96875" y="1436.921875"/>
      <point x="240.625" y="1192.3125" type="curve" smooth="yes"/>
      <point x="-38.53125" y="-120.84375" type="line" smooth="yes"/>
      <point x="-71.53125" y="-281.1875"/>
      <point x="-101.640625" y="-358.0625"/>
      <point x="-190.515625" y="-358.0625" type="curve" smooth="yes"/>
      <point x="-221.734375" y="-358.0625"/>
      <point x="-253.75" y="-351.84375"/>
      <point x="-277.421875" y="-343.625" type="curve"/>
      <point x="-277.421875" y="-476.78125" type="line"/>
      <point x="-247.28125" y="-486.5625"/>
      <point x="-214.828125" y="-492.0"/>
    </contour>
  </outline>
</glyph>
<glyph name="eogonek" format="2">
  <advance width="769.53125"/>
  <unicode hex="0119"/>
  <anchor x="178.640625" y="-426.609375" name="bottom"/>
  <anchor x="499.765625" y="1082.34375" name="top"/>
  <outline>
    <contour>
      <point x="379.828125" y="-426.609375" type="curve" smooth="yes"/>
      <point x="420.171875" y="-426.609375"/>
      <point x="454.296875" y="-422.390625"/>
      <point x="485.65625" y="-408.828125" type="curve"/>
      <point x="508.34375" y="-305.265625" type="line"/>
      <point x="481.890625" y="-311.046875"/>
      <point x="456.4375" y="-315.046875"/>
      <point x="435.546875" y="-315.046875" type="curve" smooth="yes"/>
      <point x="395.015625" y="-315.046875"/>
      <point x="370.6875" y="-292.28125"/>
      <point x="370.6875" y="-245.75" type="curve" smooth="yes"/>
      <point x="372.46875" y="-160.4375"/>
      <point x="427.90625" y="-61.765625"/>
      <point x="555.84375" y="36.5625" type="curve"/>
      <point x="435.5625" y="30.093750000000004" type="line"/>
      <point x="294.484375" y="-76.4375"/>
      <point x="236.21875" y="-167.5625"/>
      <point x="236.21875" y="-278.921875" type="curve" smooth="yes"/>
      <point x="236.21875" y="-364.265625"/>
      <point x="284.34375" y="-426.609375"/>
    </contour>
    <component base="e"/>
  </outline>
</glyph>
<glyph name="lslash" format="2">
  <advance width="428.578125"/>
  <unicode hex="0142"/>
  <anchor x="101.125" y="0.0" name="bottom"/>
  <anchor x="430.453125" y="1556.0" name="top"/>
  <outline>
    <contour>
      <point x="15.343749999999998" y="0.0" type="line"/>
      <point x="160.078125" y="0.0" type="line"/>
      <point x="318.734375" y="741.953125" type="line"/>
      <point x="542.453125" y="867.421875" type="line"/>
      <point x="495.0625" y="969.640625" type="line"/>
      <point x="348.65625" y="886.21875" type="line"/>
      <point x="492.078125" y="1556.0" type="line"/>
      <point x="345.5625" y="1556.0" type="line"/>
      <point x="185.34375" y="807.6875" type="line"/>
      <point x="-12.218750000000004" y="696.46875" type="line"/>
      <point x="33.390625" y="593.359375" type="line"/>
      <point x="157.09375" y="663.09375" type="line"/>
    </contour>
  </outline>
</glyph>
<glyph name="oe" format="2">
  <advance width="1279.96875"/>
  <unicode hex="0153"/>
  <anchor x="525.984375" y="0.0" name="bottom"/>
  <anchor x="755.984375" y="1082.34375" name="top"/>
  <outline>
    <contour>
      <point x="299.171875" y="-20.0" type="curve" smooth="yes"/>
      <point x="431.8125" y="-20.0"/>
      <point x="532.921875" y="68.6875"/>
      <point x="603.375" y="214.1875" type="curve"/>
      <point x="627.421875" y="57.515625"/>
      <point x="706.65625" y="-20.0"/>
      <point x="846.859375" y="-20.0" type="curve" smooth="yes"/>
      <point x="937.546875" y="-20.0"/>
      <point x="1018.8125" y="3.562499999999999"/>
      <point x="1089.421875" y="44.59375" type="curve"/>
      <point x="1089.421875" y="165.9375" type="line"/>
      <point x="1021.5" y="126.03125"/>
      <point x="955.59375" y="104.03124999999999"/>
      <point x="882.6875" y="104.03124999999999" type="curve" smooth="yes"/>
      <point x="767.9375" y="104.03124999999999"/>
      <point x="712.71875" y="172.671875"/>
      <point x="712.71875" y="330.390625" type="curve" smooth="yes"/>
      <point x="712.71875" y="384.5625"/>
      <point x="716.9375" y="441.203125"/>
      <point x="727.15625" y="496.1875" type="curve"/>
      <point x="743.609375" y="496.1875" type="line" smooth="yes"/>
      <point x="1066.328125" y="496.1875"/>
      <point x="1251.640625" y="655.53125"/>
      <point x="1251.640625" y="893.625" type="curve" smooth="yes"/>
      <point x="1251.640625" y="1040.765625"/>
      <point x="1167.828125" y="1115.8125"/>
      <point x="1036.203125" y="1115.8125" type="curve" smooth="yes"/>
      <point x="915.4375" y="1115.8125"/>
      <point x="802.0" y="1025.546875"/>
      <point x="722.546875" y="877.515625" type="curve"/>
      <point x="708.515625" y="1034.640625"/>
      <point x="641.609375" y="1115.8125"/>
      <point x="511.515625" y="1115.8125" type="curve" smooth="yes"/>
      <point x="162.0" y="1115.8125"/>
      <point x="51.65625" y="559.171875"/>
      <point x="51.65625" y="313.46875" type="curve" smooth="yes"/>
      <point x="51.65625" y="92.9375"/>
      <point x="146.125" y="-20.0"/>
    </contour>
    <contour>
      <point x="323.65625" y="107.59374999999999" type="curve" smooth="yes"/>
      <point x="243.03125" y="107.59374999999999"/>
      <point x="200.28125" y="170.125"/>
      <point x="200.28125" y="304.5625" type="curve" smooth="yes"/>
      <point x="200.28125" y="547.609375"/>
      <point x="300.28125" y="986.4375"/>
      <point x="498.609375" y="986.4375" type="curve" smooth="yes"/>
      <point x="580.796875" y="986.4375"/>
      <point x="621.21875" y="922.921875"/>
      <point x="621.21875" y="793.21875" type="curve" smooth="yes"/>
      <point x="621.21875" y="537.578125"/>
      <point x="514.0" y="107.59374999999999"/>
    </contour>
    <contour>
      <point x="750.296875" y="610.421875" type="line"/>
      <point x="785.59375" y="793.03125"/>
      <point x="892.984375" y="991.78125"/>
      <point x="1016.390625" y="991.78125" type="curve" smooth="yes"/>
      <point x="1082.375" y="991.78125"/>
      <point x="1112.03125" y="951.578125"/>
      <point x="1112.03125" y="886.28125" type="curve" smooth="yes"/>
      <point x="1112.03125" y="727.734375"/>
      <point x="1010.171875" y="610.421875"/>
      <point x="758.625" y="610.421875" type="curve" smooth="yes"/>
    </contour>
  </outline>
</glyph>
<glyph name="uni0180" format="2">
  <advance width="844.375"/>
  <unicode hex="0180"/>
  <anchor x="308.078125" y="0.0" name="bottom"/>
  <anchor x="638.296875" y="1556.0" name="top"/>
  <outline>
    <contour>
      <point x="358.46875" y="-20.0" type="curve" smooth="yes"/>
      <point x="650.140625" y="-20.0"/>
      <point x="799.84375" y="477.921875"/>
      <point x="799.84375" y="812.8125" type="curve" smooth="yes"/>
      <point x="799.84375" y="1012.359375"/>
      <point x="722.5" y="1115.8125"/>
      <point x="590.15625" y="1115.8125" type="curve" smooth="yes"/>
      <point x="491.640625" y="1115.8125"/>
      <point x="407.640625" y="1053.203125"/>
      <point x="343.0625" y="943.765625" type="curve"/>
      <point x="339.0625" y="943.765625" type="line"/>
      <point x="354.828125" y="993.90625"/>
      <point x="361.59375" y="1030.296875"/>
      <point x="411.25" y="1256.6875" type="curve"/>
      <point x="606.640625" y="1256.6875" type="line"/>
      <point x="631.78125" y="1371.8125" type="line"/>
      <point x="435.5" y="1371.8125" type="line"/>
      <point x="474.9375" y="1556.0" type="line"/>
      <point x="329.3125" y="1556.0" type="line"/>
      <point x="289.875" y="1371.8125" type="line"/>
      <point x="170.65625" y="1371.8125" type="line"/>
      <point x="145.515625" y="1256.6875" type="line"/>
      <point x="264.734375" y="1256.6875" type="line"/>
      <point x="-0.4687499999999991" y="0.0" type="line"/>
      <point x="117.34375" y="0.0" type="line"/>
      <point x="165.46875" y="139.484375" type="line"/>
      <point x="171.25" y="139.484375" type="line"/>
      <point x="192.390625" y="43.953125"/>
      <point x="256.84375" y="-20.0"/>
    </contour>
    <contour>
      <point x="345.328125" y="107.59374999999999" type="curve" smooth="yes"/>
      <point x="264.8125" y="107.59374999999999"/>
      <point x="225.171875" y="167.546875"/>
      <point x="225.171875" y="285.609375" type="curve" smooth="yes"/>
      <point x="225.171875" y="504.984375"/>
      <point x="330.40625" y="986.4375"/>
      <point x="538.734375" y="986.4375" type="curve" smooth="yes"/>
      <point x="611.59375" y="986.4375"/>
      <point x="647.65625" y="930.234375"/>
      <point x="647.65625" y="801.6875" type="curve" smooth="yes"/>
      <point x="647.65625" y="574.609375"/>
      <point x="538.5625" y="107.59374999999999"/>
    </contour>
  </outline>
</glyph>
<glyph name="uni0181" format="2">
  <advance width="1070.640625"/>
  <unicode hex="0181"/>
  <anchor x="422.59375" y="0.0" name="bottom"/>
  <anchor x="731.8125" y="1462.0" name="top"/>
  <outline>
    <contour>
      <point x="206.765625" y="0.0" type="line"/>
      <point x="514.609375" y="0.0" type="line" smooth="yes"/>
      <point x="800.921875" y="0.0"/>
      <point x="968.875" y="221.21875"/>
      <point x="968.875" y="503.125" type="curve" smooth="yes"/>
      <point x="968.875" y="625.625"/>
      <point x="913.796875" y="733.65625"/>
      <point x="807.34375" y="765.5625" type="curve"/>
      <point x="807.34375" y="771.34375" type="line"/>
      <point x="1002.890625" y="821.46875"/>
      <point x="1085.875" y="999.765625"/>
      <point x="1085.875" y="1187.09375" type="curve" smooth="yes"/>
      <point x="1085.875" y="1368.46875"/>
      <point x="949.546875" y="1462.0"/>
      <point x="777.6875" y="1462.0" type="curve" smooth="yes"/>
      <point x="461.859375" y="1462.0" type="line" smooth="yes"/>
      <point x="259.59375" y="1462.0"/>
      <point x="162.875" y="1343.546875"/>
      <point x="162.875" y="1192.703125" type="curve" smooth="yes"/>
      <point x="162.875" y="1153.703125"/>
      <point x="167.09375" y="1121.578125"/>
      <point x="174.875" y="1099.796875" type="curve"/>
      <point x="308.359375" y="1099.796875" type="line"/>
      <point x="302.25" y="1123.359375"/>
      <point x="297.8125" y="1152.140625"/>
      <point x="297.8125" y="1183.796875" type="curve" smooth="yes"/>
      <point x="297.8125" y="1264.21875"/>
      <point x="335.6875" y="1329.0625"/>
      <point x="459.203125" y="1329.0625" type="curve" smooth="yes"/>
      <point x="485.0625" y="1329.0625" type="line"/>
    </contour>
    <contour>
      <point x="387.328125" y="134.71875" type="line"/>
      <point x="506.828125" y="699.359375" type="line"/>
      <point x="630.703125" y="699.359375" type="line" smooth="yes"/>
      <point x="744.078125" y="699.359375"/>
      <point x="813.234375" y="632.578125"/>
      <point x="813.234375" y="497.015625" type="curve" smooth="yes"/>
      <point x="813.234375" y="301.828125"/>
      <point x="728.03125" y="134.71875"/>
      <point x="519.28125" y="134.71875" type="curve" smooth="yes"/>
    </contour>
    <contour>
      <point x="533.75" y="829.734375" type="line"/>
      <point x="638.703125" y="1329.0625" type="line"/>
      <point x="747.203125" y="1329.0625" type="line" smooth="yes"/>
      <point x="870.03125" y="1329.0625"/>
      <point x="926.5625" y="1271.546875"/>
      <point x="926.5625" y="1157.265625" type="curve" smooth="yes"/>
      <point x="926.5625" y="985.515625"/>
      <point x="830.78125" y="829.734375"/>
      <point x="653.15625" y="829.734375" type="curve" smooth="yes"/>
    </contour>
  </outline>
</glyph>
<glyph name="uni0185" format="2">
  <advance width="844.375"/>
  <unicode hex="0185"/>
  <anchor x="308.078125" y="0.0" name="bottom"/>
  <anchor x="638.296875" y="1556.0" name="top"/>
  <outline>
    <contour>
      <point x="337.546875" y="-20.0" type="curve" smooth="yes"/>
      <point x="670.84375" y="-20.0"/>
      <point x="799.84375" y="510.875"/>
      <point x="799.84375" y="812.8125" type="curve" smooth="yes"/>
      <point x="799.84375" y="1012.359375"/>
      <point x="724.28125" y="1115.8125"/>
      <point x="591.9375" y="1115.8125" type="curve" smooth="yes"/>
      <point x="491.640625" y="1115.8125"/>
      <point x="409.421875" y="1053.203125"/>
      <point x="344.84375" y="943.765625" type="curve"/>
      <point x="340.84375" y="943.765625" type="line"/>
      <point x="353.078125" y="983.015625"/>
      <point x="362.640625" y="1022.15625"/>
      <point x="369.296875" y="1059.125" type="curve" smooth="yes"/>
      <point x="474.9375" y="1556.0" type="line"/>
      <point x="329.3125" y="1556.0" type="line"/>
      <point x="115.40625" y="536.125" type="line" smooth="yes"/>
      <point x="95.3125" y="444.765625"/>
      <point x="81.09375" y="343.78125"/>
      <point x="81.09375" y="283.578125" type="curve" smooth="yes"/>
      <point x="81.09375" y="85.09375"/>
      <point x="163.734375" y="-20.0"/>
    </contour>
    <contour>
      <point x="345.328125" y="107.59374999999999" type="curve" smooth="yes"/>
      <point x="264.8125" y="107.59374999999999"/>
      <point x="227.828125" y="163.90625"/>
      <point x="227.828125" y="292.921875" type="curve" smooth="yes"/>
      <point x="227.828125" y="503.671875"/>
      <point x="330.078125" y="986.4375"/>
      <point x="538.734375" y="986.4375" type="curve" smooth="yes"/>
      <point x="611.59375" y="986.4375"/>
      <point x="647.65625" y="930.234375"/>
      <point x="647.65625" y="801.6875" type="curve" smooth="yes"/>
      <point x="647.65625" y="557.6875"/>
      <point x="535.0" y="107.59374999999999"/>
    </contour>
  </outline>
</glyph>
<glyph name="uni018B" format="2">
  <advance width="818.5"/>
  <unicode hex="018B"/>
  <anchor x="295.640625" y="0.0" name="bottom"/>
  <anchor x="604.859375" y="1462.0" name="top"/>
  <outline>
    <contour>
      <point x="339.046875" y="0.0" type="curve" smooth="yes"/>
      <point x="550.53125" y="0.0" type="line"/>
      <point x="859.53125" y="1462.0" type="line"/>
      <point x="283.359375" y="1462.0" type="line"/>
      <point x="252.875" y="1323.71875" type="line"/>
      <point x="677.96875" y="1323.71875" type="line"/>
      <point x="586.140625" y="884.984375" type="line"/>
      <point x="493.484375" y="884.984375" type="line" smooth="yes"/>
      <point x="185.34375" y="884.984375"/>
      <point x="8.656250000000004" y="641.390625"/>
      <point x="8.656250000000004" y="316.8125" type="curve" smooth="yes"/>
      <point x="8.656250000000004" y="123.25"/>
      <point x="121.90625" y="0.0"/>
    </contour>
    <contour>
      <point x="365.640625" y="136.5" type="line" smooth="yes"/>
      <point x="234.078125" y="136.5"/>
      <point x="168.1875" y="205.78125"/>
      <point x="168.1875" y="335.734375" type="curve" smooth="yes"/>
      <point x="168.1875" y="578.796875"/>
      <point x="278.71875" y="747.484375"/>
      <point x="497.484375" y="747.484375" type="curve" smooth="yes"/>
      <point x="559.21875" y="747.484375" type="line"/>
      <point x="427.046875" y="136.5" type="line"/>
    </contour>
  </outline>
</glyph>
<glyph name="uni0190" format="2">
  <advance width="742.6875"/>
  <unicode hex="0190"/>
  <anchor x="256.453125" y="0.0" name="bottom"/>
  <anchor x="565.671875" y="1462.0" name="top"/>
  <outline>
    <contour>
      <point x="333.765625" y="-20.0" type="curve" smooth="yes"/>
      <point x="430.015625" y="-20.0"/>
      <point x="522.421875" y="1.78125"/>
      <point x="589.484375" y="36.921875" type="curve"/>
      <point x="589.484375" y="181.765625" type="line"/>
      <point x="520.890625" y="142.296875"/>
      <point x="446.171875" y="118.28124999999999"/>
      <point x="358.03125" y="118.28124999999999" type="curve" smooth="yes"/>
      <point x="241.640625" y="118.28124999999999"/>
      <point x="173.890625" y="188.25"/>
      <point x="173.890625" y="331.953125" type="curve" smooth="yes"/>
      <point x="173.890625" y="522.640625"/>
      <point x="269.9375" y="690.921875"/>
      <point x="481.609375" y="690.921875" type="curve" smooth="yes"/>
      <point x="581.421875" y="690.921875" type="line"/>
      <point x="612.453125" y="825.640625" type="line"/>
      <point x="536.640625" y="825.640625" type="line" smooth="yes"/>
      <point x="417.421875" y="825.640625"/>
      <point x="355.984375" y="898.375"/>
      <point x="355.984375" y="1041.78125" type="curve" smooth="yes"/>
      <point x="355.984375" y="1193.96875"/>
      <point x="437.765625" y="1345.609375"/>
      <point x="594.125" y="1345.609375" type="curve" smooth="yes"/>
      <point x="666.125" y="1345.609375"/>
      <point x="718.25" y="1317.28125"/>
      <point x="765.71875" y="1267.359375" type="curve"/>
      <point x="849.703125" y="1383.390625" type="line"/>
      <point x="780.421875" y="1444.4375"/>
      <point x="706.9375" y="1483.0"/>
      <point x="583.65625" y="1483.0" type="curve" smooth="yes"/>
      <point x="341.109375" y="1483.0"/>
      <point x="203.90625" y="1261.515625"/>
      <point x="203.90625" y="1048.015625" type="curve" smooth="yes"/>
      <point x="203.90625" y="902.5625"/>
      <point x="252.46875" y="812.78125"/>
      <point x="343.953125" y="771.78125" type="curve"/>
      <point x="342.171875" y="764.21875" type="line"/>
      <point x="135.9375" y="729.875"/>
      <point x="14.687499999999993" y="549.609375"/>
      <point x="14.687499999999993" y="320.828125" type="curve" smooth="yes"/>
      <point x="14.687499999999993" y="102.03125"/>
      <point x="128.265625" y="-20.0"/>
    </contour>
  </outline>
</glyph>
<glyph name="uni0193" format="2">
  <advance width="997.25"/>
  <unicode hex="0193"/>
  <anchor x="384.515625" y="0.0" name="bottom"/>
  <anchor x="693.734375" y="1462.0" name="top"/>
  <outline>
    <contour>
      <point x="461.828125" y="-20.0" type="curve" smooth="yes"/>
      <point x="560.375" y="-20.0"/>
      <point x="667.4375" y="1.5624999999999998"/>
      <point x="769.71875" y="41.03124999999999" type="curve"/>
      <point x="924.84375" y="766.421875" type="line"/>
      <point x="590.46875" y="766.421875" type="line"/>
      <point x="561.4375" y="631.703125" type="line"/>
      <point x="743.953125" y="631.703125" type="line"/>
      <point x="641.0" y="142.59375" type="line"/>
      <point x="589.125" y="124.9375"/>
      <point x="534.921875" y="116.5"/>
      <point x="475.171875" y="116.5" type="curve" smooth="yes"/>
      <point x="312.8125" y="116.5"/>
      <point x="231.421875" y="217.234375"/>
      <point x="231.421875" y="452.234375" type="curve" smooth="yes"/>
      <point x="231.421875" y="876.125"/>
      <point x="423.71875" y="1345.828125"/>
      <point x="741.71875" y="1345.828125" type="curve" smooth="yes"/>
      <point x="827.25" y="1345.828125"/>
      <point x="915.921875" y="1316.84375"/>
      <point x="996.296875" y="1254.484375" type="curve"/>
      <point x="1056.078125" y="1523.609375" type="line" smooth="yes"/>
      <point x="1070.078125" y="1595.28125"/>
      <point x="1098.640625" y="1630.28125"/>
      <point x="1159.640625" y="1630.28125" type="curve" smooth="yes"/>
      <point x="1187.296875" y="1630.28125"/>
      <point x="1215.53125" y="1624.28125"/>
      <point x="1244.765625" y="1609.828125" type="curve"/>
      <point x="1244.765625" y="1740.3125" type="line"/>
      <point x="1217.640625" y="1751.875"/>
      <point x="1183.734375" y="1759.65625"/>
      <point x="1139.828125" y="1759.65625" type="curve" smooth="yes"/>
      <point x="1024.0" y="1759.65625"/>
      <point x="953.828125" y="1687.3125"/>
      <point x="925.140625" y="1563.21875" type="curve" smooth="yes"/>
      <point x="901.734375" y="1453.8125" type="line"/>
      <point x="855.96875" y="1473.796875"/>
      <point x="805.0" y="1485.0"/>
      <point x="741.71875" y="1485.0" type="curve" smooth="yes"/>
      <point x="349.984375" y="1485.0"/>
      <point x="74.0" y="1012.78125"/>
      <point x="74.0" y="443.5625" type="curve" smooth="yes"/>
      <point x="74.0" y="137.90625"/>
      <point x="200.78125" y="-20.0"/>
    </contour>
  </outline>
</glyph>
<glyph name="uni0199" format="2">
  <advance width="724.453125"/>
  <unicode hex="0199"/>
  <anchor x="248.5625" y="0.0" name="bottom"/>
  <anchor x="582.5625" y="1573.90625" name="top"/>
  <outline>
    <contour>
      <point x="1.09375" y="0.0" type="line"/>
      <point x="147.609375" y="0.0" type="line"/>
      <point x="227.828125" y="387.0" type="line"/>
      <point x="357.625" y="531.40625" type="line"/>
      <point x="445.828125" y="0.0" type="line"/>
      <point x="600.359375" y="0.0" type="line"/>
      <point x="485.453125" y="653.984375" type="line"/>
      <point x="812.703125" y="1095.703125" type="line"/>
      <point x="653.0625" y="1095.703125" type="line"/>
      <point x="266.640625" y="574.296875" type="line"/>
      <point x="261.96875" y="574.296875" type="line"/>
      <point x="286.421875" y="664.078125"/>
      <point x="302.53125" y="738.296875"/>
      <point x="316.296875" y="797.78125" type="curve" smooth="yes"/>
      <point x="430.8125" y="1333.921875" type="line" smooth="yes"/>
      <point x="448.25" y="1413.890625"/>
      <point x="477.015625" y="1446.203125"/>
      <point x="538.296875" y="1446.203125" type="curve" smooth="yes"/>
      <point x="564.515625" y="1446.203125"/>
      <point x="591.296875" y="1440.203125"/>
      <point x="610.859375" y="1429.75" type="curve"/>
      <point x="610.859375" y="1555.78125" type="line"/>
      <point x="585.953125" y="1566.34375"/>
      <point x="548.484375" y="1573.90625"/>
      <point x="507.125" y="1573.90625" type="curve" smooth="yes"/>
      <point x="382.125" y="1573.90625"/>
      <point x="322.65625" y="1505.46875"/>
      <point x="292.3125" y="1368.875" type="curve" smooth="yes"/>
    </contour>
  </outline>
</glyph>
<glyph name="uni019C" format="2">
  <advance width="1347.875"/>
  <unicode hex="019C"/>
  <anchor x="558.9375" y="0.0" name="bottom"/>
  <anchor x="870.828125" y="1462.0" name="top"/>
  <outline>
    <contour>
      <point x="260.171875" y="-20.0" type="curve" smooth="yes"/>
      <point x="366.046875" y="-20.0"/>
      <point x="450.953125" y="33.21875"/>
      <point x="513.546875" y="141.03125" type="curve"/>
      <point x="517.546875" y="141.03125" type="line"/>
      <point x="533.34375" y="38.34375"/>
      <point x="604.59375" y="-20.0"/>
      <point x="722.5" y="-20.0" type="curve" smooth="yes"/>
      <point x="825.828125" y="-20.0"/>
      <point x="912.734375" y="35.4375"/>
      <point x="972.421875" y="139.65625" type="curve"/>
      <point x="976.421875" y="139.65625" type="line"/>
      <point x="955.765625" y="0.0" type="line"/>
      <point x="1079.140625" y="0.0" type="line"/>
      <point x="1387.921875" y="1462.0" type="line"/>
      <point x="1236.0625" y="1462.0" type="line"/>
      <point x="1035.296875" y="506.828125" type="line" smooth="yes"/>
      <point x="979.625" y="255.046875"/>
      <point x="907.609375" y="120.0625"/>
      <point x="771.921875" y="120.0625" type="curve" smooth="yes"/>
      <point x="704.40625" y="120.0625"/>
      <point x="670.3125" y="157.9375"/>
      <point x="670.3125" y="222.578125" type="curve" smooth="yes"/>
      <point x="670.3125" y="263.5"/>
      <point x="681.21875" y="326.109375"/>
      <point x="693.671875" y="380.703125" type="curve" smooth="yes"/>
      <point x="922.5" y="1462.0" type="line"/>
      <point x="770.640625" y="1462.0" type="line"/>
      <point x="555.375" y="454.1875" type="line" smooth="yes"/>
      <point x="508.34375" y="232.59375"/>
      <point x="433.765625" y="120.0625"/>
      <point x="312.8125" y="120.0625" type="curve" smooth="yes"/>
      <point x="242.625" y="120.0625"/>
      <point x="205.328125" y="157.5"/>
      <point x="205.328125" y="222.796875" type="curve" smooth="yes"/>
      <point x="205.328125" y="266.375"/>
      <point x="216.671875" y="329.640625"/>
      <point x="231.453125" y="390.3125" type="curve" smooth="yes"/>
      <point x="457.078125" y="1462.0" type="line"/>
      <point x="305.21875" y="1462.0" type="line"/>
      <point x="72.359375" y="363.8125" type="line" smooth="yes"/>
      <point x="59.90624999999999" y="304.328125"/>
      <point x="48.125" y="235.875"/>
      <point x="48.125" y="185.625" type="curve" smooth="yes"/>
      <point x="48.125" y="52.59375"/>
      <point x="130.125" y="-20.0"/>
    </contour>
  </outline>
</glyph>
<glyph name="ohorn" format="2">
  <advance width="851.671875"/>
  <unicode hex="01A1"/>
  <anchor x="311.890625" y="0.0" name="bottom"/>
  <anchor x="541.78125" y="1082.34375" name="top"/>
  <outline>
    <contour>
      <point x="299.171875" y="-20.0" type="curve" smooth="yes"/>
      <point x="601.546875" y="-20.0"/>
      <point x="761.71875" y="437.359375"/>
      <point x="761.71875" y="783.421875" type="curve" smooth="yes"/>
      <point x="761.71875" y="807.40625"/>
      <point x="759.71875" y="833.953125"/>
      <point x="755.71875" y="864.734375" type="curve"/>
      <point x="905.203125" y="915.0"/>
      <point x="986.453125" y="1039.375"/>
      <point x="1023.234375" y="1235.03125" type="curve"/>
      <point x="1017.015625" y="1257.046875" type="line"/>
      <point x="885.390625" y="1257.046875" type="line"/>
      <point x="860.859375" y="1105.6875"/>
      <point x="812.984375" y="1009.21875"/>
      <point x="727.453125" y="966.515625" type="curve"/>
      <point x="687.765625" y="1066.265625"/>
      <point x="612.859375" y="1115.8125"/>
      <point x="507.953125" y="1115.8125" type="curve" smooth="yes"/>
      <point x="196.734375" y="1115.8125"/>
      <point x="42.75" y="644.671875"/>
      <point x="42.75" y="307.71875" type="curve" smooth="yes"/>
      <point x="42.75" y="94.71875"/>
      <point x="137.21875" y="-20.0"/>
    </contour>
    <contour>
      <point x="313.640625" y="107.59374999999999" type="curve" smooth="yes"/>
      <point x="232.125" y="107.59374999999999"/>
      <point x="191.375" y="170.890625"/>
      <point x="191.375" y="298.8125" type="curve" smooth="yes"/>
      <point x="191.375" y="523.8125"/>
      <point x="294.03125" y="986.4375"/>
      <point x="489.703125" y="986.4375" type="curve" smooth="yes"/>
      <point x="571.0" y="986.4375"/>
      <point x="611.421875" y="922.921875"/>
      <point x="611.421875" y="793.21875" type="curve" smooth="yes"/>
      <point x="611.421875" y="548.265625"/>
      <point x="508.4375" y="107.59374999999999"/>
    </contour>
  </outline>
</glyph>
<glyph name="uni01A5" format="2">
  <advance width="844.375"/>
  <unicode hex="01A5"/>
  <anchor x="206.515625" y="-475.90625" name="bottom"/>
  <anchor x="642.078125" y="1573.90625" name="top"/>
  <outline>
    <contour>
      <point x="-96.46875" y="-475.90625" type="line"/>
      <point x="47.374999999999986" y="-475.90625" type="line"/>
      <point x="135.15625" y="-66.0" type="line" smooth="yes"/>
      <point x="148.59375" y="-6.250000000000001"/>
      <point x="161.03125" y="66.171875"/>
      <point x="171.03125" y="135.296875" type="curve"/>
      <point x="176.8125" y="135.296875" type="line"/>
      <point x="198.9375" y="42.53125"/>
      <point x="264.625" y="-20.0"/>
      <point x="359.375" y="-20.0" type="curve" smooth="yes"/>
      <point x="656.734375" y="-20.0"/>
      <point x="800.0625" y="497.265625"/>
      <point x="800.0625" y="811.03125" type="curve" smooth="yes"/>
      <point x="800.0625" y="1015.046875"/>
      <point x="724.5" y="1115.8125"/>
      <point x="590.375" y="1115.8125" type="curve" smooth="yes"/>
      <point x="495.859375" y="1115.8125"/>
      <point x="416.078125" y="1057.859375"/>
      <point x="345.0625" y="943.546875" type="curve"/>
      <point x="339.28125" y="943.546875" type="line"/>
      <point x="358.640625" y="1012.40625"/>
      <point x="370.203125" y="1053.328125"/>
      <point x="383.765625" y="1119.6875" type="curve" smooth="yes"/>
      <point x="430.8125" y="1333.921875" type="line" smooth="yes"/>
      <point x="448.25" y="1412.109375"/>
      <point x="477.015625" y="1446.203125"/>
      <point x="538.296875" y="1446.203125" type="curve" smooth="yes"/>
      <point x="564.515625" y="1446.203125"/>
      <point x="591.296875" y="1440.203125"/>
      <point x="610.859375" y="1429.75" type="curve"/>
      <point x="610.859375" y="1555.78125" type="line"/>
      <point x="585.953125" y="1566.34375"/>
      <point x="546.703125" y="1573.90625"/>
      <point x="507.125" y="1573.90625" type="curve" smooth="yes"/>
      <point x="382.125" y="1573.90625"/>
      <point x="322.65625" y="1505.25"/>
      <point x="292.3125" y="1368.65625" type="curve" smooth="yes"/>
    </contour>
    <contour>
      <point x="344.453125" y="109.37499999999999" type="curve" smooth="yes"/>
      <point x="266.921875" y="109.37499999999999"/>
      <point x="227.171875" y="168.671875"/>
      <point x="227.171875" y="278.4375" type="curve" smooth="yes"/>
      <point x="227.171875" y="536.046875"/>
      <point x="345.796875" y="990.0"/>
      <point x="540.734375" y="990.0" type="curve" smooth="yes"/>
      <point x="613.59375" y="990.0"/>
      <point x="649.65625" y="931.140625"/>
      <point x="649.65625" y="803.46875" type="curve" smooth="yes"/>
      <point x="649.65625" y="545.859375"/>
      <point x="535.359375" y="109.37499999999999"/>
    </contour>
  </outline>
</glyph>
<glyph name="uni01AB" format="2">
  <advance width="474.3125"/>
  <unicode hex="01AB"/>
  <anchor x="42.078125" y="-382.109375" name="bottom"/>
  <anchor x="409.4375" y="1347.234375" name="top"/>
  <outline>
    <contour>
      <point x="64.171875" y="-382.109375" type="curve" smooth="yes"/>
      <point x="201.375" y="-382.109375"/>
      <point x="260.1875" y="-305.203125"/>
      <point x="287.765625" y="-180.21875" type="curve" smooth="yes"/>
      <point x="355.6875" y="128.5" type="line"/>
      <point x="326.109375" y="117.15624999999999"/>
      <point x="287.078125" y="111.15624999999999"/>
      <point x="263.96875" y="111.15624999999999" type="curve" smooth="yes"/>
      <point x="215.328125" y="111.15624999999999"/>
      <point x="193.546875" y="134.03125"/>
      <point x="193.546875" y="181.796875" type="curve" smooth="yes"/>
      <point x="193.546875" y="209.890625"/>
      <point x="201.765625" y="252.421875"/>
      <point x="210.53125" y="296.8125" type="curve" smooth="yes"/>
      <point x="354.390625" y="969.890625" type="line"/>
      <point x="506.765625" y="969.890625" type="line"/>
      <point x="533.796875" y="1095.703125" type="line"/>
      <point x="380.53125" y="1095.703125" type="line"/>
      <point x="433.75" y="1347.234375" type="line"/>
      <point x="327.515625" y="1347.234375" type="line"/>
      <point x="241.703125" y="1094.140625" type="line"/>
      <point x="127.21875" y="1055.1875" type="line"/>
      <point x="110.09375" y="969.890625" type="line"/>
      <point x="207.875" y="969.890625" type="line"/>
      <point x="66.578125" y="306.15625" type="line" smooth="yes"/>
      <point x="53.46875" y="248.171875"/>
      <point x="47.03125" y="197.421875"/>
      <point x="47.03125" y="157.984375" type="curve" smooth="yes"/>
      <point x="47.03125" y="55.28124999999999"/>
      <point x="86.90625" y="-5.750000000000002"/>
      <point x="176.46875" y="-16.4375" type="curve"/>
      <point x="151.484375" y="-133.484375" type="line" smooth="yes"/>
      <point x="136.375" y="-207.046875"/>
      <point x="110.703125" y="-252.625"/>
      <point x="45.25" y="-252.625" type="curve" smooth="yes"/>
      <point x="17.593750000000004" y="-252.625"/>
      <point x="-11.640624999999993" y="-246.625"/>
      <point x="-41.65624999999999" y="-233.953125" type="curve"/>
      <point x="-41.65624999999999" y="-362.65625" type="line"/>
      <point x="-11.859374999999993" y="-374.21875"/>
      <point x="15.812500000000007" y="-382.109375"/>
    </contour>
  </outline>
</glyph>
<glyph name="uni01AD" format="2">
  <advance width="474.3125"/>
  <unicode hex="01AD"/>
  <anchor x="122.765625" y="0.0" name="bottom"/>
  <anchor x="456.765625" y="1566.78125" name="top"/>
  <outline>
    <contour>
      <point x="202.546875" y="-20.0" type="curve" smooth="yes"/>
      <point x="246.34375" y="-20.0"/>
      <point x="301.625" y="-10.4375"/>
      <point x="344.109375" y="8.249999999999996" type="curve"/>
      <point x="344.109375" y="128.5" type="line"/>
      <point x="317.203125" y="117.15624999999999"/>
      <point x="281.734375" y="111.15624999999999"/>
      <point x="255.96875" y="111.15624999999999" type="curve" smooth="yes"/>
      <point x="210.203125" y="111.15624999999999"/>
      <point x="193.546875" y="134.03125"/>
      <point x="193.546875" y="181.796875" type="curve" smooth="yes"/>
      <point x="193.546875" y="209.890625"/>
      <point x="201.765625" y="252.421875"/>
      <point x="210.53125" y="296.8125" type="curve" smooth="yes"/>
      <point x="354.390625" y="969.890625" type="line"/>
      <point x="506.765625" y="969.890625" type="line"/>
      <point x="533.796875" y="1095.703125" type="line"/>
      <point x="380.53125" y="1095.703125" type="line"/>
      <point x="416.59375" y="1269.578125" type="line" smooth="yes"/>
      <point x="441.046875" y="1375.375"/>
      <point x="468.03125" y="1434.625"/>
      <point x="552.46875" y="1434.625" type="curve" smooth="yes"/>
      <point x="581.46875" y="1434.625"/>
      <point x="615.375" y="1428.625"/>
      <point x="638.5" y="1420.84375" type="curve"/>
      <point x="638.5" y="1552.21875" type="line"/>
      <point x="609.140625" y="1561.0"/>
      <point x="574.34375" y="1566.78125"/>
      <point x="538.21875" y="1566.78125" type="curve" smooth="yes"/>
      <point x="356.21875" y="1566.78125"/>
      <point x="303.875" y="1421.53125"/>
      <point x="262.953125" y="1234.171875" type="curve" smooth="yes"/>
      <point x="231.90625" y="1088.796875" type="line"/>
      <point x="127.21875" y="1055.1875" type="line"/>
      <point x="110.09375" y="969.890625" type="line"/>
      <point x="207.875" y="969.890625" type="line"/>
      <point x="68.359375" y="313.28125" type="line" smooth="yes"/>
      <point x="53.46875" y="248.171875"/>
      <point x="47.03125" y="197.421875"/>
      <point x="47.03125" y="157.984375" type="curve" smooth="yes"/>
      <point x="47.03125" y="46.375"/>
      <point x="93.8125" y="-20.0"/>
    </contour>
  </outline>
</glyph>
<glyph name="uni01B5" format="2">
  <advance width="650.03125"/>
  <unicode hex="01B5"/>
  <anchor x="210.90625" y="0.0" name="bottom"/>
  <anchor x="520.234375" y="1462.0" name="top"/>
  <outline>
    <contour>
      <point x="-84.21875" y="0.0" type="line"/>
      <point x="508.671875" y="0.0" type="line"/>
      <point x="537.375" y="136.5" type="line"/>
      <point x="111.79687499999997" y="136.5" type="line"/>
      <point x="419.546875" y="699.140625" type="line"/>
      <point x="614.390625" y="699.140625" type="line"/>
      <point x="640.53125" y="825.0625" type="line"/>
      <point x="495.640625" y="825.0625" type="line"/>
      <point x="780.421875" y="1341.53125" type="line"/>
      <point x="805.5625" y="1462.0" type="line"/>
      <point x="237.53125" y="1462.0" type="line"/>
      <point x="208.609375" y="1325.28125" type="line"/>
      <point x="606.3125" y="1325.28125" type="line"/>
      <point x="334.0" y="825.0625" type="line"/>
      <point x="135.296875" y="825.0625" type="line"/>
      <point x="108.265625" y="699.140625" type="line"/>
      <point x="257.796875" y="699.140625" type="line"/>
      <point x="-59.078125" y="118.46875" type="line"/>
    </contour>
  </outline>
</glyph>
<glyph name="uni01B8" format="2">
  <advance width="742.6875"/>
  <unicode hex="01B8"/>
  <anchor x="256.453125" y="0.0" name="bottom"/>
  <anchor x="565.671875" y="1462.0" name="top"/>
  <outline>
    <contour>
      <point x="330.125" y="-20.0" type="curve" smooth="yes"/>
      <point x="424.8125" y="-20.0"/>
      <point x="521.546875" y="2.0"/>
      <point x="591.703125" y="39.90625" type="curve"/>
      <point x="591.703125" y="184.859375" type="line"/>
      <point x="520.890625" y="144.734375"/>
      <point x="443.296875" y="118.28124999999999"/>
      <point x="354.828125" y="118.28124999999999" type="curve" smooth="yes"/>
      <point x="238.984375" y="118.28124999999999"/>
      <point x="173.671875" y="190.6875"/>
      <point x="173.671875" y="326.203125" type="curve" smooth="yes"/>
      <point x="173.671875" y="525.84375"/>
      <point x="278.890625" y="688.453125"/>
      <point x="493.65625" y="688.453125" type="curve" smooth="yes"/>
      <point x="596.84375" y="688.453125" type="line"/>
      <point x="621.984375" y="807.25" type="line"/>
      <point x="388.671875" y="1325.5" type="line"/>
      <point x="810.5" y="1325.5" type="line"/>
      <point x="837.203125" y="1462.0" type="line"/>
      <point x="249.046875" y="1462.0" type="line"/>
      <point x="222.34375" y="1334.40625" type="line"/>
      <point x="455.4375" y="818.15625" type="line"/>
      <point x="164.203125" y="796.78125"/>
      <point x="14.468749999999996" y="583.5"/>
      <point x="14.468749999999996" y="314.625" type="curve" smooth="yes"/>
      <point x="14.468749999999996" y="105.5625"/>
      <point x="122.515625" y="-20.0"/>
    </contour>
  </outline>
</glyph>
<glyph name="uni01B9" format="2">
  <advance width="732.3125"/>
  <unicode hex="01B9"/>
  <anchor x="147.65625" y="-492.0" name="bottom"/>
  <anchor x="480.765625" y="1082.34375" name="top"/>
  <outline>
    <contour>
      <point x="253.109375" y="-492.0" type="curve" smooth="yes"/>
      <point x="347.796875" y="-492.0"/>
      <point x="442.640625" y="-467.21875"/>
      <point x="512.796875" y="-427.53125" type="curve"/>
      <point x="512.796875" y="-286.140625" type="line"/>
      <point x="443.765625" y="-336.0625"/>
      <point x="366.28125" y="-361.625"/>
      <point x="277.8125" y="-361.625" type="curve" smooth="yes"/>
      <point x="162.625" y="-361.625"/>
      <point x="93.09374999999997" y="-274.96875"/>
      <point x="93.09374999999997" y="-112.34375" type="curve" smooth="yes"/>
      <point x="93.09374999999997" y="126.515625"/>
      <point x="214.53125" y="318.6875"/>
      <point x="431.078125" y="318.6875" type="curve" smooth="yes"/>
      <point x="531.59375" y="318.6875" type="line"/>
      <point x="554.0625" y="430.25" type="line"/>
      <point x="316.078125" y="969.890625" type="line"/>
      <point x="745.03125" y="969.890625" type="line"/>
      <point x="772.625" y="1095.703125" type="line"/>
      <point x="184.46875" y="1095.703125" type="line"/>
      <point x="158.65625" y="971.671875" type="line"/>
      <point x="396.421875" y="441.15625" type="line"/>
      <point x="106.078125" y="425.125"/>
      <point x="-58.20312500000001" y="182.390625"/>
      <point x="-58.20312500000001" y="-118.578125" type="curve" smooth="yes"/>
      <point x="-58.20312500000001" y="-350.296875"/>
      <point x="47.937499999999986" y="-492.0"/>
    </contour>
  </outline>
</glyph>
<glyph name="uni01BC" format="2">
  <advance width="780.671875"/>
  <unicode hex="01BC"/>
  <anchor x="275.78125" y="0.0" name="bottom"/>
  <anchor x="585.0" y="1462.0" name="top"/>
  <outline>
    <contour>
      <point x="195.37499999999997" y="-20.0" type="curve" smooth="yes"/>
      <point x="491.46875" y="-20.0"/>
      <point x="662.03125" y="208.359375"/>
      <point x="662.03125" y="481.0" type="curve" smooth="yes"/>
      <point x="662.03125" y="685.75"/>
      <point x="559.578125" y="831.703125"/>
      <point x="365.109375" y="831.703125" type="curve" smooth="yes"/>
      <point x="355.328125" y="831.703125" type="line"/>
      <point x="458.28125" y="1325.5" type="line"/>
      <point x="787.984375" y="1325.5" type="line"/>
      <point x="816.015625" y="1462.0" type="line"/>
      <point x="255.125" y="1462.0" type="line"/>
      <point x="224.421875" y="1325.5" type="line"/>
      <point x="313.4375" y="1325.5" type="line"/>
      <point x="183.34374999999997" y="714.796875" type="line"/>
      <point x="288.984375" y="714.796875" type="line" smooth="yes"/>
      <point x="430.609375" y="714.796875"/>
      <point x="506.390625" y="645.734375"/>
      <point x="506.390625" y="484.125" type="curve" smooth="yes"/>
      <point x="506.390625" y="287.578125"/>
      <point x="407.046875" y="118.28124999999999"/>
      <point x="190.46874999999997" y="118.28124999999999" type="curve" smooth="yes"/>
      <point x="94.45312499999999" y="118.28124999999999"/>
      <point x="5.515624999999986" y="146.734375"/>
      <point x="-55.953125000000014" y="195.984375" type="curve"/>
      <point x="-55.953125000000014" y="36.34375" type="line"/>
      <point x="8.203125" y="-1.3437499999999991"/>
      <point x="102.03124999999997" y="-20.0"/>
    </contour>
  </outline>
</glyph>
<glyph name="uni01F6" format="2">
  <advance width="1427.8125"/>
  <unicode hex="01F6"/>
  <anchor x="598.234375" y="0.0" name="bottom"/>
  <anchor x="910.125" y="1462.0" name="top"/>
  <outline>
    <contour>
      <point x="875.53125" y="-18.21875" type="curve" smooth="yes"/>
      <point x="1094.8125" y="-18.21875"/>
      <point x="1214.8125" y="112.5625"/>
      <point x="1273.625" y="408.984375" type="curve" smooth="yes"/>
      <point x="1411.796875" y="1095.703125" type="line"/>
      <point x="1260.828125" y="1095.703125" type="line"/>
      <point x="1114.640625" y="407.203125" type="line" smooth="yes"/>
      <point x="1070.296875" y="191.59375"/>
      <point x="1004.390625" y="118.28125"/>
      <point x="890.328125" y="118.28125" type="curve" smooth="yes"/>
      <point x="813.625" y="118.28125"/>
      <point x="777.765625" y="160.59375"/>
      <point x="777.765625" y="246.34375" type="curve" smooth="yes"/>
      <point x="777.765625" y="300.46875"/>
      <point x="789.328125" y="361.59375"/>
      <point x="803.109375" y="427.5" type="curve" smooth="yes"/>
      <point x="1022.625" y="1462.0" type="line"/>
      <point x="870.765625" y="1462.0" type="line"/>
      <point x="736.78125" y="835.078125" type="line"/>
      <point x="329.421875" y="835.078125" type="line"/>
      <point x="461.625" y="1462.0" type="line"/>
      <point x="309.65625" y="1462.0" type="line"/>
      <point x="0.4374999999999982" y="0.0" type="line"/>
      <point x="152.296875" y="0.0" type="line"/>
      <point x="298.71875" y="695.796875" type="line"/>
      <point x="706.96875" y="695.796875" type="line"/>
      <point x="653.25" y="444.859375" type="line" smooth="yes"/>
      <point x="637.90625" y="364.6875"/>
      <point x="624.015625" y="283.421875"/>
      <point x="624.015625" y="225.640625" type="curve" smooth="yes"/>
      <point x="624.015625" y="69.703125"/>
      <point x="705.359375" y="-18.21875"/>
    </contour>
  </outline>
</glyph>
<glyph name="uni0221" format="2">
  <advance width="1169.453125"/>
  <unicode hex="0221"/>
  <anchor x="411.0" y="-280.015625" name="bottom"/>
  <anchor x="800.0" y="1556.0" name="top"/>
  <outline>
    <contour>
      <point x="575.46875" y="-280.015625" type="line"/>
      <point x="617.15625" y="-162.21875"/>
      <point x="658.375" y="-58.8125"/>
      <point x="688.375" y="17.640625" type="curve"/>
      <point x="731.625" y="-4.468749999999998"/>
      <point x="787.515625" y="-19.5625"/>
      <point x="849.9375" y="-19.5625" type="curve" smooth="yes"/>
      <point x="993.640625" y="-19.5625"/>
      <point x="1113.453125" y="58.34374999999999"/>
      <point x="1113.890625" y="213.390625" type="curve" smooth="yes"/>
      <point x="1114.109375" y="323.4375"/>
      <point x="1049.546875" y="399.46875"/>
      <point x="933.28125" y="399.46875" type="curve" smooth="yes"/>
      <point x="835.859375" y="399.46875"/>
      <point x="766.546875" y="354.859375"/>
      <point x="698.859375" y="238.765625" type="curve"/>
      <point x="692.421875" y="257.09375"/>
      <point x="689.3125" y="284.203125"/>
      <point x="691.984375" y="312.515625" type="curve" smooth="yes"/>
      <point x="691.984375" y="341.9375"/>
      <point x="696.203125" y="373.8125"/>
      <point x="702.421875" y="413.46875" type="curve" smooth="yes"/>
      <point x="945.0625" y="1556.0" type="line"/>
      <point x="799.4375" y="1556.0" type="line"/>
      <point x="707.875" y="1122.515625" type="line" smooth="yes"/>
      <point x="696.21875" y="1069.0"/>
      <point x="685.78125" y="1013.046875"/>
      <point x="677.34375" y="962.296875" type="curve"/>
      <point x="671.34375" y="962.296875" type="line"/>
      <point x="649.21875" y="1054.953125"/>
      <point x="585.3125" y="1115.8125"/>
      <point x="485.4375" y="1115.8125" type="curve" smooth="yes"/>
      <point x="210.34375" y="1115.8125"/>
      <point x="50.09375" y="631.390625"/>
      <point x="50.09375" y="284.78125" type="curve" smooth="yes"/>
      <point x="50.09375" y="87.78125"/>
      <point x="131.0" y="-20.0"/>
      <point x="265.125" y="-20.0" type="curve" smooth="yes"/>
      <point x="398.8125" y="-20.0"/>
      <point x="495.046875" y="64.203125"/>
      <point x="566.515625" y="192.953125" type="curve"/>
      <point x="573.296875" y="192.953125" type="line"/>
      <point x="578.640625" y="147.984375"/>
      <point x="592.859375" y="109.796875"/>
      <point x="611.078125" y="80.6875" type="curve"/>
      <point x="575.078125" y="-3.0937500000000018"/>
      <point x="529.53125" y="-118.28125"/>
      <point x="483.0625" y="-243.75" type="curve"/>
    </contour>
    <contour>
      <point x="309.421875" y="107.59374999999999" type="curve" smooth="yes"/>
      <point x="238.34375" y="107.59374999999999"/>
      <point x="202.28125" y="166.34375"/>
      <point x="202.28125" y="292.34375" type="curve" smooth="yes"/>
      <point x="202.28125" y="525.796875"/>
      <point x="311.234375" y="984.65625"/>
      <point x="507.484375" y="984.65625" type="curve" smooth="yes"/>
      <point x="586.90625" y="984.65625"/>
      <point x="625.65625" y="927.140625"/>
      <point x="625.65625" y="822.609375" type="curve" smooth="yes"/>
      <point x="625.65625" y="602.578125"/>
      <point x="514.515625" y="107.59374999999999"/>
    </contour>
    <contour>
      <point x="862.625" y="82.203125" type="curve" smooth="yes"/>
      <point x="811.875" y="82.203125"/>
      <point x="770.109375" y="98.859375"/>
      <point x="742.546875" y="131.203125" type="curve"/>
      <point x="807.328125" y="267.078125"/>
      <point x="852.625" y="296.8125"/>
      <point x="917.03125" y="296.8125" type="curve" smooth="yes"/>
      <point x="965.5625" y="296.8125"/>
      <point x="1002.78125" y="263.15625"/>
      <point x="1002.78125" y="206.046875" type="curve" smooth="yes"/>
      <point x="1002.78125" y="126.953125"/>
      <point x="944.015625" y="82.203125"/>
    </contour>
  </outline>
</glyph>
<glyph name="uni0235" format="2">
  <advance width="1131.765625"/>
  <unicode hex="0235"/>
  <anchor x="450.4375" y="0.0" name="bottom"/>
  <anchor x="679.546875" y="1082.34375" name="top"/>
  <outline>
    <contour>
      <point x="422.390625" y="-86.4375" type="line"/>
      <point x="460.296875" y="-14.437500000000002"/>
      <point x="497.296875" y="48.75"/>
      <point x="532.078125" y="97.640625" type="curve"/>
      <point x="573.90625" y="26.0625"/>
      <point x="659.859375" y="-19.78125"/>
      <point x="788.171875" y="-19.78125" type="curve" smooth="yes"/>
      <point x="951.328125" y="-19.78125"/>
      <point x="1068.703125" y="76.0"/>
      <point x="1066.921875" y="224.296875" type="curve" smooth="yes"/>
      <point x="1068.703125" y="343.328125"/>
      <point x="988.6875" y="430.15625"/>
      <point x="854.1875" y="430.15625" type="curve" smooth="yes"/>
      <point x="779.03125" y="430.15625"/>
      <point x="720.84375" y="409.890625"/>
      <point x="668.140625" y="366.671875" type="curve"/>
      <point x="742.109375" y="701.609375" type="line" smooth="yes"/>
      <point x="756.546875" y="773.8125"/>
      <point x="771.53125" y="855.53125"/>
      <point x="771.53125" y="913.296875" type="curve" smooth="yes"/>
      <point x="771.53125" y="1053.578125"/>
      <point x="689.28125" y="1115.8125"/>
      <point x="578.59375" y="1115.8125" type="curve" smooth="yes"/>
      <point x="478.71875" y="1115.8125"/>
      <point x="394.953125" y="1055.828125"/>
      <point x="336.375" y="946.5" type="curve"/>
      <point x="330.59375" y="946.5" type="line"/>
      <point x="351.578125" y="1095.703125" type="line"/>
      <point x="231.984375" y="1095.703125" type="line"/>
      <point x="-0.4687499999999991" y="0.0" type="line"/>
      <point x="147.9375" y="0.0" type="line"/>
      <point x="272.828125" y="589.78125" type="line" smooth="yes"/>
      <point x="327.03125" y="844.015625"/>
      <point x="402.5625" y="981.09375"/>
      <point x="528.0625" y="981.09375" type="curve" smooth="yes"/>
      <point x="589.484375" y="981.09375"/>
      <point x="620.453125" y="945.65625"/>
      <point x="620.453125" y="882.578125" type="curve" smooth="yes"/>
      <point x="620.453125" y="826.828125"/>
      <point x="604.90625" y="750.84375"/>
      <point x="590.6875" y="683.3125" type="curve" smooth="yes"/>
      <point x="517.375" y="342.640625" type="line" smooth="yes"/>
      <point x="507.265625" y="297.421875"/>
      <point x="503.046875" y="255.328125"/>
      <point x="501.265625" y="227.421875" type="curve"/>
      <point x="451.140625" y="161.296875"/>
      <point x="391.46875" y="67.21875"/>
      <point x="337.09375" y="-36.0625" type="curve"/>
    </contour>
    <contour>
      <point x="809.765625" y="81.98437499999999" type="curve" smooth="yes"/>
      <point x="720.890625" y="79.98437499999999"/>
      <point x="651.34375" y="126.328125"/>
      <point x="653.125" y="232.5625" type="curve"/>
      <point x="715.359375" y="308.546875"/>
      <point x="779.328125" y="330.171875"/>
      <point x="837.71875" y="330.171875" type="curve" smooth="yes"/>
      <point x="912.59375" y="330.171875"/>
      <point x="957.59375" y="282.734375"/>
      <point x="957.59375" y="214.953125" type="curve" smooth="yes"/>
      <point x="957.59375" y="138.515625"/>
      <point x="898.9375" y="82.20312499999999"/>
    </contour>
  </outline>
</glyph>
<glyph name="uni0236" format="2">
  <advance width="687.75"/>
  <unicode hex="0236"/>
  <anchor x="229.875" y="0.0" name="bottom"/>
  <anchor x="513.984375" y="1347.234375" name="top"/>
  <outline>
    <contour>
      <point x="-20.734375000000004" y="-86.4375" type="line"/>
      <point x="16.28125" y="-14.437500000000002"/>
      <point x="53.28125" y="48.75"/>
      <point x="87.953125" y="97.640625" type="curve"/>
      <point x="129.890625" y="26.0625"/>
      <point x="215.84375" y="-19.78125"/>
      <point x="345.9375" y="-19.78125" type="curve" smooth="yes"/>
      <point x="507.203125" y="-19.78125"/>
      <point x="625.578125" y="76.0"/>
      <point x="623.796875" y="224.296875" type="curve" smooth="yes"/>
      <point x="625.578125" y="343.328125"/>
      <point x="546.453125" y="430.15625"/>
      <point x="411.0625" y="430.15625" type="curve" smooth="yes"/>
      <point x="335.015625" y="430.15625"/>
      <point x="277.71875" y="409.890625"/>
      <point x="224.90625" y="366.671875" type="curve"/>
      <point x="354.609375" y="969.890625" type="line"/>
      <point x="506.984375" y="969.890625" type="line"/>
      <point x="534.015625" y="1095.703125" type="line"/>
      <point x="380.75" y="1095.703125" type="line"/>
      <point x="433.96875" y="1347.234375" type="line"/>
      <point x="327.734375" y="1347.234375" type="line"/>
      <point x="241.921875" y="1094.140625" type="line"/>
      <point x="127.4375" y="1055.1875" type="line"/>
      <point x="110.3125" y="969.890625" type="line"/>
      <point x="208.09375" y="969.890625" type="line"/>
      <point x="74.140625" y="340.203125" type="line" smooth="yes"/>
      <point x="64.140625" y="296.765625"/>
      <point x="59.03125" y="255.328125"/>
      <point x="59.03125" y="227.421875" type="curve"/>
      <point x="7.124999999999998" y="161.296875"/>
      <point x="-51.65625000000001" y="67.21875"/>
      <point x="-106.921875" y="-36.0625" type="curve"/>
    </contour>
    <contour>
      <point x="366.640625" y="81.98437499999999" type="curve" smooth="yes"/>
      <point x="277.765625" y="79.98437499999999"/>
      <point x="207.328125" y="126.328125"/>
      <point x="209.109375" y="232.5625" type="curve"/>
      <point x="272.234375" y="308.546875"/>
      <point x="335.203125" y="330.171875"/>
      <point x="393.59375" y="330.171875" type="curve" smooth="yes"/>
      <point x="468.46875" y="330.171875"/>
      <point x="513.46875" y="282.734375"/>
      <point x="513.46875" y="214.953125" type="curve" smooth="yes"/>
      <point x="513.46875" y="138.515625"/>
      <point x="455.8125" y="82.20312499999999"/>
    </contour>
  </outline>
</glyph>
<glyph name="uni023D" format="2">
  <advance width="679.03125"/>
  <unicode hex="023D"/>
  <anchor x="224.515625" y="0.0" name="bottom"/>
  <anchor x="534.734375" y="1462.0" name="top"/>
  <outline>
    <contour>
      <point x="0.4374999999999982" y="0.0" type="line"/>
      <point x="515.03125" y="0.0" type="line"/>
      <point x="542.0625" y="136.5" type="line"/>
      <point x="181.109375" y="136.5" type="line"/>
      <point x="298.71875" y="699.140625" type="line"/>
      <point x="494.734375" y="699.140625" type="line"/>
      <point x="521.765625" y="825.0625" type="line"/>
      <point x="325.640625" y="825.0625" type="line"/>
      <point x="461.625" y="1462.0" type="line"/>
      <point x="309.65625" y="1462.0" type="line"/>
      <point x="173.78125" y="825.0625" type="line"/>
      <point x="80.65625" y="825.0625" type="line"/>
      <point x="53.734375" y="699.140625" type="line"/>
      <point x="148.640625" y="699.140625" type="line"/>
    </contour>
  </outline>
</glyph>
<glyph name="uni0243" format="2">
  <advance width="870.859375"/>
  <unicode hex="0243"/>
  <anchor x="321.875" y="0.0" name="bottom"/>
  <anchor x="631.203125" y="1462.0" name="top"/>
  <outline>
    <contour>
      <point x="0.8749999999999982" y="0.0" type="line"/>
      <point x="311.390625" y="0.0" type="line" smooth="yes"/>
      <point x="596.8125" y="0.0"/>
      <point x="764.765625" y="221.21875"/>
      <point x="764.765625" y="503.125" type="curve" smooth="yes"/>
      <point x="764.765625" y="625.625"/>
      <point x="709.796875" y="733.65625"/>
      <point x="601.453125" y="765.5625" type="curve"/>
      <point x="603.234375" y="771.34375" type="line"/>
      <point x="798.890625" y="821.46875"/>
      <point x="881.765625" y="999.765625"/>
      <point x="881.765625" y="1187.09375" type="curve" smooth="yes"/>
      <point x="881.765625" y="1368.46875"/>
      <point x="745.4375" y="1462.0"/>
      <point x="571.90625" y="1462.0" type="curve" smooth="yes"/>
      <point x="309.65625" y="1462.0" type="line"/>
      <point x="101.78125" y="481.640625" type="line"/>
      <point x="16.281249999999993" y="481.640625" type="line"/>
      <point x="-8.296875" y="369.1875" type="line"/>
      <point x="79.3125" y="369.1875" type="line"/>
    </contour>
    <contour>
      <point x="179.765625" y="125.8125" type="line"/>
      <point x="231.171875" y="369.1875" type="line"/>
      <point x="424.859375" y="369.1875" type="line"/>
      <point x="450.21875" y="481.640625" type="line"/>
      <point x="255.53125" y="481.640625" type="line"/>
      <point x="302.71875" y="709.15625" type="line"/>
      <point x="428.375" y="709.15625" type="line" smooth="yes"/>
      <point x="540.078125" y="709.15625"/>
      <point x="607.34375" y="643.265625"/>
      <point x="607.34375" y="497.015625" type="curve" smooth="yes"/>
      <point x="607.34375" y="294.703125"/>
      <point x="518.6875" y="125.8125"/>
      <point x="311.609375" y="125.8125" type="curve" smooth="yes"/>
    </contour>
    <contour>
      <point x="327.859375" y="829.734375" type="line"/>
      <point x="432.8125" y="1329.0625" type="line"/>
      <point x="541.421875" y="1329.0625" type="line" smooth="yes"/>
      <point x="664.140625" y="1329.0625"/>
      <point x="720.78125" y="1271.546875"/>
      <point x="720.78125" y="1157.265625" type="curve" smooth="yes"/>
      <point x="720.78125" y="985.515625"/>
      <point x="625.0" y="829.734375"/>
      <point x="447.375" y="829.734375" type="curve" smooth="yes"/>
    </contour>
  </outline>
</glyph>
<glyph name="uni0246" format="2">
  <advance width="743.65625"/>
  <unicode hex="0246"/>
  <anchor x="258.609375" y="0.0" name="bottom"/>
  <anchor x="567.9375" y="1462.0" name="top"/>
  <outline>
    <contour>
      <point x="135.375" y="-156.0" type="line"/>
      <point x="238.359375" y="-156.0" type="line"/>
      <point x="792.875" y="1559.0" type="line"/>
      <point x="690.0" y="1559.0" type="line"/>
    </contour>
    <component base="E"/>
  </outline>
</glyph>
<glyph name="uni0247" format="2">
  <advance width="767.75"/>
  <unicode hex="0247"/>
  <anchor x="206.765625" y="-297.0" name="bottom"/>
  <anchor x="568.984375" y="1413.0" name="top"/>
  <outline>
    <contour>
      <point x="72.796875" y="-297.0" type="line"/>
      <point x="160.640625" y="-297.0" type="line"/>
      <point x="253.984375" y="-6.21875" type="line"/>
      <point x="277.09375" y="-16.0"/>
      <point x="304.984375" y="-20.0"/>
      <point x="335.984375" y="-20.0" type="curve" smooth="yes"/>
      <point x="423.109375" y="-20.0"/>
      <point x="502.59375" y="-1.7812499999999998"/>
      <point x="571.421875" y="41.03125" type="curve"/>
      <point x="571.421875" y="165.9375" type="line"/>
      <point x="494.59375" y="122.46875"/>
      <point x="442.828125" y="104.03124999999999"/>
      <point x="370.03125" y="104.03124999999999" type="curve" smooth="yes"/>
      <point x="339.25" y="104.03124999999999"/>
      <point x="313.25" y="109.8125"/>
      <point x="292.25" y="121.375" type="curve"/>
      <point x="421.765625" y="518.953125" type="line"/>
      <point x="625.5625" y="564.390625"/>
      <point x="735.421875" y="708.09375"/>
      <point x="735.421875" y="893.625" type="curve" smooth="yes"/>
      <point x="735.421875" y="998.859375"/>
      <point x="688.625" y="1068.78125"/>
      <point x="605.796875" y="1098.578125" type="curve"/>
      <point x="708.25" y="1413.0" type="line"/>
      <point x="620.515625" y="1413.0" type="line"/>
      <point x="523.515625" y="1114.03125" type="line"/>
      <point x="517.515625" y="1115.8125"/>
      <point x="509.953125" y="1115.8125"/>
      <point x="502.171875" y="1115.8125" type="curve" smooth="yes"/>
      <point x="253.5625" y="1115.8125"/>
      <point x="49.65625" y="754.609375"/>
      <point x="49.65625" y="312.375" type="curve" smooth="yes"/>
      <point x="49.65625" y="174.9375"/>
      <point x="95.34375" y="77.703125"/>
      <point x="177.59375" y="29.140625" type="curve"/>
    </contour>
    <contour>
      <point x="226.765625" y="186.890625" type="line"/>
      <point x="207.59375" y="218.09375"/>
      <point x="198.28125" y="266.375"/>
      <point x="198.28125" y="330.390625" type="curve" smooth="yes"/>
      <point x="198.28125" y="386.34375"/>
      <point x="202.5" y="442.984375"/>
      <point x="214.5" y="496.1875" type="curve"/>
      <point x="331.921875" y="505.609375" type="line"/>
    </contour>
    <contour>
      <point x="234.078125" y="610.421875" type="line"/>
      <point x="282.0625" y="825.734375"/>
      <point x="382.765625" y="981.09375"/>
      <point x="487.25" y="988.21875" type="curve"/>
      <point x="364.953125" y="622.734375" type="line"/>
      <point x="329.984375" y="616.296875"/>
      <point x="285.8125" y="611.078125"/>
      <point x="245.71875" y="610.640625" type="curve" smooth="yes"/>
    </contour>
    <contour>
      <point x="464.03125" y="653.203125" type="curve"/>
      <point x="569.203125" y="970.765625" type="line"/>
      <point x="591.953125" y="955.4375"/>
      <point x="602.9375" y="921.34375"/>
      <point x="602.9375" y="886.28125" type="curve" smooth="yes"/>
      <point x="602.9375" y="786.078125"/>
      <point x="563.171875" y="693.078125"/>
    </contour>
  </outline>
</glyph>
<glyph name="uni024D" format="2">
  <advance width="550.28125"/>
  <unicode hex="024D"/>
  <anchor x="160.640625" y="0.0" name="bottom"/>
  <anchor x="389.640625" y="1082.34375" name="top"/>
  <outline>
    <contour>
      <point x="1.3080468750000045" y="0.0" type="line"/>
      <point x="147.9375" y="0.0" type="line"/>
      <point x="255.03125" y="510.484375" type="line"/>
      <point x="445.59375" y="510.484375" type="line"/>
      <point x="469.84375" y="627.390625" type="line"/>
      <point x="283.84375" y="627.390625" type="line"/>
      <point x="321.71875" y="785.640625"/>
      <point x="403.171875" y="962.390625"/>
      <point x="534.296875" y="962.390625" type="curve" smooth="yes"/>
      <point x="560.078125" y="962.390625"/>
      <point x="584.640625" y="958.28125"/>
      <point x="605.765625" y="948.71875" type="curve"/>
      <point x="648.9375" y="1103.703125" type="line"/>
      <point x="624.25" y="1111.59375"/>
      <point x="599.25" y="1115.8125"/>
      <point x="572.59375" y="1115.8125" type="curve" smooth="yes"/>
      <point x="465.375" y="1115.8125"/>
      <point x="388.71875" y="1049.390625"/>
      <point x="326.8125" y="915.484375" type="curve"/>
      <point x="322.8125" y="915.484375" type="line"/>
      <point x="346.234375" y="1095.703125" type="line"/>
      <point x="231.984375" y="1095.703125" type="line"/>
      <point x="133.65625" y="627.390625" type="line"/>
      <point x="22.234375" y="627.390625" type="line"/>
      <point x="-2.9062499999999982" y="510.484375" type="line"/>
      <point x="108.296875" y="510.484375" type="line"/>
    </contour>
  </outline>
</glyph>
<glyph name="uni0256" format="2">
  <advance width="857.03125"/>
  <unicode hex="0256"/>
  <anchor x="210.515625" y="-491.671875" name="bottom"/>
  <anchor x="644.296875" y="1552.90625" name="top"/>
  <anchor x="1028.59375" y="1556.0" name="topright"/>
  <outline>
    <contour>
      <point x="575.21875" y="-491.671875" type="curve" smooth="yes"/>
      <point x="622.25" y="-491.671875"/>
      <point x="664.953125" y="-481.21875"/>
      <point x="690.1875" y="-473.4375" type="curve"/>
      <point x="690.1875" y="-347.625" type="line"/>
      <point x="671.640625" y="-357.40625"/>
      <point x="643.625" y="-363.1875"/>
      <point x="619.078125" y="-363.1875" type="curve" smooth="yes"/>
      <point x="583.421875" y="-363.1875"/>
      <point x="556.96875" y="-346.75"/>
      <point x="556.96875" y="-303.53125" type="curve" smooth="yes"/>
      <point x="556.96875" y="-274.53125"/>
      <point x="562.96875" y="-241.3125"/>
      <point x="570.515625" y="-212.359375" type="curve" smooth="yes"/>
      <point x="945.0625" y="1552.90625" type="line"/>
      <point x="799.4375" y="1552.90625" type="line"/>
      <point x="717.0" y="1164.375" type="line" smooth="yes"/>
      <point x="704.453125" y="1103.734375"/>
      <point x="691.125" y="1032.203125"/>
      <point x="679.34375" y="964.078125" type="curve"/>
      <point x="673.5625" y="964.078125" type="line"/>
      <point x="651.65625" y="1058.515625"/>
      <point x="583.96875" y="1115.8125"/>
      <point x="485.765625" y="1115.8125" type="curve" smooth="yes"/>
      <point x="190.078125" y="1115.8125"/>
      <point x="50.3125" y="587.75"/>
      <point x="50.3125" y="284.78125" type="curve" smooth="yes"/>
      <point x="50.3125" y="87.78125"/>
      <point x="125.875" y="-20.0"/>
      <point x="260.0" y="-20.0" type="curve" smooth="yes"/>
      <point x="361.640625" y="-20.0"/>
      <point x="434.296875" y="43.18750000000001"/>
      <point x="508.875" y="153.9375" type="curve"/>
      <point x="512.875" y="153.9375" type="line"/>
      <point x="499.75" y="110.125"/>
      <point x="483.734375" y="61.96875000000001"/>
      <point x="473.734375" y="12.531250000000014" type="curve" smooth="yes"/>
      <point x="425.78125" y="-207.015625" type="line" smooth="yes"/>
      <point x="413.78125" y="-263.578125"/>
      <point x="407.78125" y="-302.578125"/>
      <point x="407.78125" y="-336.921875" type="curve" smooth="yes"/>
      <point x="407.78125" y="-428.734375"/>
      <point x="466.8125" y="-491.671875"/>
    </contour>
    <contour>
      <point x="309.640625" y="107.59374999999999" type="curve" smooth="yes"/>
      <point x="238.5625" y="107.59374999999999"/>
      <point x="202.5" y="166.34375"/>
      <point x="202.5" y="292.34375" type="curve" smooth="yes"/>
      <point x="202.5" y="531.140625"/>
      <point x="309.671875" y="984.65625"/>
      <point x="507.703125" y="984.65625" type="curve" smooth="yes"/>
      <point x="587.125" y="984.65625"/>
      <point x="625.875" y="927.796875"/>
      <point x="625.875" y="822.609375" type="curve" smooth="yes"/>
      <point x="625.875" y="643.0625"/>
      <point x="535.21875" y="107.59374999999999"/>
    </contour>
  </outline>
</glyph>
<glyph name="eopenreversedhook" format="2">
  <advance width="908.015625"/>
  <unicode hex="025D"/>
  <anchor x="177.25" y="-20.328125" name="bottom"/>
  <anchor x="364.6875" y="1115.8125" name="top"/>
  <outline>
    <contour>
      <point x="811.359375" y="569.015625" type="curve" smooth="yes"/>
      <point x="867.5" y="569.015625"/>
      <point x="918.96875" y="593.140625"/>
      <point x="960.875" y="626.5" type="curve"/>
      <point x="927.625" y="713.140625" type="line"/>
      <point x="899.84375" y="692.90625"/>
      <point x="871.0625" y="678.90625"/>
      <point x="832.5" y="678.90625" type="curve" smooth="yes"/>
      <point x="778.625" y="678.90625"/>
      <point x="756.53125" y="720.5625"/>
      <point x="744.09375" y="869.203125" type="curve" smooth="yes"/>
      <point x="735.984375" y="964.015625" type="line"/>
      <point x="503.6875" y="872.296875" type="line"/>
      <point x="523.796875" y="772.96875" type="line"/>
      <point x="644.890625" y="820.65625" type="line"/>
      <point x="663.890625" y="647.015625"/>
      <point x="706.453125" y="569.015625"/>
    </contour>
    <component base="afii10073"/>
  </outline>
</glyph>
<glyph name="uni0260" format="2">
  <advance width="853.9375"/>
  <unicode hex="0260"/>
  <anchor x="208.078125" y="-492.0" name="bottom"/>
  <anchor x="646.078125" y="1573.90625" name="top"/>
  <outline>
    <contour>
      <point x="182.5" y="-492.0" type="curve" smooth="yes"/>
      <point x="412.203125" y="-492.0"/>
      <point x="540.28125" y="-364.921875"/>
      <point x="602.1875" y="-73.28125" type="curve" smooth="yes"/>
      <point x="898.9375" y="1333.703125" type="line" smooth="yes"/>
      <point x="918.15625" y="1413.671875"/>
      <point x="946.8125" y="1446.203125"/>
      <point x="1008.203125" y="1446.203125" type="curve" smooth="yes"/>
      <point x="1034.421875" y="1446.203125"/>
      <point x="1059.421875" y="1440.203125"/>
      <point x="1078.984375" y="1429.75" type="curve"/>
      <point x="1078.984375" y="1555.78125" type="line"/>
      <point x="1054.078125" y="1566.34375"/>
      <point x="1016.609375" y="1573.90625"/>
      <point x="975.25" y="1573.90625" type="curve" smooth="yes"/>
      <point x="850.25" y="1573.90625"/>
      <point x="790.671875" y="1505.25"/>
      <point x="760.4375" y="1368.65625" type="curve" smooth="yes"/>
      <point x="711.4375" y="1134.09375" type="line" smooth="yes"/>
      <point x="698.0" y="1074.34375"/>
      <point x="689.34375" y="1014.828125"/>
      <point x="682.6875" y="962.296875" type="curve"/>
      <point x="674.90625" y="962.296875" type="line"/>
      <point x="649.21875" y="1062.078125"/>
      <point x="592.4375" y="1115.8125"/>
      <point x="495.234375" y="1115.8125" type="curve" smooth="yes"/>
      <point x="191.640625" y="1115.8125"/>
      <point x="50.09375" y="587.75"/>
      <point x="50.09375" y="279.4375" type="curve" smooth="yes"/>
      <point x="50.09375" y="84.21875"/>
      <point x="125.65625" y="-20.0"/>
      <point x="258.0" y="-20.0" type="curve" smooth="yes"/>
      <point x="356.296875" y="-20.0"/>
      <point x="433.859375" y="35.62499999999999"/>
      <point x="505.09375" y="147.484375" type="curve"/>
      <point x="509.09375" y="147.484375" type="line"/>
      <point x="493.53125" y="90.921875"/>
      <point x="478.859375" y="34.140625"/>
      <point x="472.75" y="3.578125000000007" type="curve" smooth="yes"/>
      <point x="455.4375" y="-76.875" type="line" smooth="yes"/>
      <point x="411.5625" y="-267.0"/>
      <point x="332.65625" y="-363.40625"/>
      <point x="186.0625" y="-363.40625" type="curve" smooth="yes"/>
      <point x="99.15625" y="-363.40625"/>
      <point x="5.343749999999998" y="-323.609375"/>
      <point x="-44.125" y="-285.921875" type="curve"/>
      <point x="-44.125" y="-429.53125" type="line"/>
      <point x="6.906249999999998" y="-461.21875"/>
      <point x="93.59375" y="-492.0"/>
    </contour>
    <contour>
      <point x="311.203125" y="109.37499999999999" type="curve" smooth="yes"/>
      <point x="236.125" y="109.37499999999999"/>
      <point x="202.28125" y="168.125"/>
      <point x="202.28125" y="294.125" type="curve" smooth="yes"/>
      <point x="202.28125" y="531.140625"/>
      <point x="309.453125" y="984.65625"/>
      <point x="507.484375" y="984.65625" type="curve" smooth="yes"/>
      <point x="581.5625" y="984.65625"/>
      <point x="625.65625" y="928.921875"/>
      <point x="625.65625" y="829.734375" type="curve" smooth="yes"/>
      <point x="625.65625" y="618.140625"/>
      <point x="518.078125" y="109.37499999999999"/>
    </contour>
  </outline>
</glyph>
<glyph name="uni0262" format="2">
  <advance width="749.890625"/>
  <unicode hex="0262"/>
  <anchor x="260.890625" y="0.0" name="bottom"/>
  <anchor x="490.78125" y="1082.34375" name="top"/>
  <anchor x="828.46875" y="1095.703125" name="topright"/>
  <outline>
    <contour>
      <point x="334.171875" y="-20.0" type="curve" smooth="yes"/>
      <point x="409.21875" y="-20.0"/>
      <point x="486.515625" y="-6.0"/>
      <point x="558.015625" y="32.265625" type="curve"/>
      <point x="672.578125" y="588.171875" type="line"/>
      <point x="389.234375" y="588.171875" type="line"/>
      <point x="364.875" y="463.921875" type="line"/>
      <point x="508.609375" y="463.921875" type="line"/>
      <point x="437.984375" y="116.90625" type="line"/>
      <point x="414.203125" y="108.6875"/>
      <point x="380.546875" y="104.6875"/>
      <point x="360.65625" y="104.6875" type="curve" smooth="yes"/>
      <point x="254.8125" y="104.6875"/>
      <point x="202.28125" y="172.890625"/>
      <point x="202.28125" y="313.640625" type="curve" smooth="yes"/>
      <point x="202.28125" y="602.0"/>
      <point x="325.25" y="986.109375"/>
      <point x="553.171875" y="986.109375" type="curve" smooth="yes"/>
      <point x="601.078125" y="986.109375"/>
      <point x="654.78125" y="972.765625"/>
      <point x="697.125" y="950.75" type="curve"/>
      <point x="755.640625" y="1071.4375" type="line"/>
      <point x="699.59375" y="1102.46875"/>
      <point x="638.328125" y="1115.8125"/>
      <point x="559.609375" y="1115.8125" type="curve" smooth="yes"/>
      <point x="199.65625" y="1115.8125"/>
      <point x="52.09375" y="639.828125"/>
      <point x="52.09375" y="304.15625" type="curve" smooth="yes"/>
      <point x="52.09375" y="96.46875"/>
      <point x="149.671875" y="-20.0"/>
    </contour>
  </outline>
</glyph>
<glyph name="uni0268" format="2">
  <advance width="384.6875"/>
  <unicode hex="0268"/>
  <anchor x="77.953125" y="0.0" name="bottom"/>
  <anchor x="396.078125" y="1503.421875" name="top"/>
  <outline>
    <contour>
      <point x="-0.4687499999999991" y="0.0" type="line"/>
      <point x="144.375" y="0.0" type="line"/>
      <point x="253.03125" y="510.046875" type="line"/>
      <point x="365.5625" y="510.046875" type="line"/>
      <point x="391.59375" y="630.515625" type="line"/>
      <point x="280.28125" y="630.515625" type="line"/>
      <point x="376.9375" y="1095.703125" type="line"/>
      <point x="232.203125" y="1095.703125" type="line"/>
      <point x="133.65625" y="630.515625" type="line"/>
      <point x="22.234375" y="630.515625" type="line"/>
      <point x="-4.687499999999998" y="510.046875" type="line"/>
      <point x="106.515625" y="510.046875" type="line"/>
    </contour>
    <contour>
      <point x="352.5" y="1285.828125" type="curve" smooth="yes"/>
      <point x="419.328125" y="1285.828125"/>
      <point x="461.375" y="1352.40625"/>
      <point x="461.375" y="1431.046875" type="curve" smooth="yes"/>
      <point x="461.375" y="1480.296875"/>
      <point x="435.796875" y="1503.421875"/>
      <point x="389.640625" y="1503.421875" type="curve" smooth="yes"/>
      <point x="315.6875" y="1503.421875"/>
      <point x="279.875" y="1430.828125"/>
      <point x="279.875" y="1362.4375" type="curve" smooth="yes"/>
      <point x="279.875" y="1311.84375"/>
      <point x="304.5625" y="1285.828125"/>
    </contour>
  </outline>
</glyph>
<glyph name="uni026B" format="2">
  <advance width="594.140625"/>
  <unicode hex="026B"/>
  <anchor x="182.234375" y="0.0" name="bottom"/>
  <anchor x="512.453125" y="1556.0" name="top"/>
  <outline>
    <contour>
      <point x="111.578125" y="0.0" type="line"/>
      <point x="257.3125" y="0.0" type="line"/>
      <point x="403.859375" y="678.046875" type="line"/>
      <point x="425.96875" y="662.390625"/>
      <point x="453.078125" y="650.171875"/>
      <point x="484.734375" y="650.171875" type="curve" smooth="yes"/>
      <point x="568.953125" y="650.171875"/>
      <point x="634.75" y="715.84375"/>
      <point x="669.671875" y="898.515625" type="curve"/>
      <point x="575.03125" y="898.515625" type="line"/>
      <point x="552.6875" y="802.515625"/>
      <point x="531.15625" y="774.203125"/>
      <point x="486.953125" y="774.203125" type="curve" smooth="yes"/>
      <point x="464.96875" y="774.203125"/>
      <point x="447.984375" y="788.078125"/>
      <point x="428.328125" y="803.171875" type="curve"/>
      <point x="589.203125" y="1556.0" type="line"/>
      <point x="442.6875" y="1556.0" type="line"/>
      <point x="298.046875" y="870.4375" type="line"/>
      <point x="272.9375" y="885.640625"/>
      <point x="248.171875" y="896.734375"/>
      <point x="216.078125" y="896.734375" type="curve" smooth="yes"/>
      <point x="111.82812500000001" y="896.734375"/>
      <point x="53.93750000000001" y="806.5625"/>
      <point x="21.578125" y="648.171875" type="curve"/>
      <point x="116.21875" y="648.171875" type="line"/>
      <point x="133.890625" y="730.609375"/>
      <point x="162.78125" y="772.703125"/>
      <point x="211.859375" y="772.703125" type="curve" smooth="yes"/>
      <point x="234.828125" y="772.703125"/>
      <point x="251.703125" y="759.0625"/>
      <point x="270.90625" y="742.640625" type="curve"/>
    </contour>
  </outline>
</glyph>
<glyph name="uni026E" format="2">
  <advance width="901.28125"/>
  <unicode hex="026E"/>
  <anchor x="231.640625" y="-492.0" name="bottom"/>
  <anchor x="667.640625" y="1556.0" name="top"/>
  <outline>
    <contour>
      <point x="301.140625" y="-492.0" type="curve" smooth="yes"/>
      <point x="590.828125" y="-492.0"/>
      <point x="748.046875" y="-202.984375"/>
      <point x="748.046875" y="94.0" type="curve" smooth="yes"/>
      <point x="748.046875" y="291.65625"/>
      <point x="672.953125" y="420.25"/>
      <point x="498.046875" y="450.734375" type="curve"/>
      <point x="908.453125" y="989.265625" type="line"/>
      <point x="929.140625" y="1095.703125" type="line"/>
      <point x="380.28125" y="1095.703125" type="line"/>
      <point x="478.71875" y="1556.0" type="line"/>
      <point x="333.09375" y="1556.0" type="line"/>
      <point x="1.09375" y="0.0" type="line"/>
      <point x="147.609375" y="0.0" type="line"/>
      <point x="353.359375" y="968.109375" type="line"/>
      <point x="724.984375" y="968.109375" type="line"/>
      <point x="337.96875" y="448.078125" type="line"/>
      <point x="315.609375" y="339.171875" type="line"/>
      <point x="382.3125" y="339.171875" type="line" smooth="yes"/>
      <point x="537.546875" y="339.171875"/>
      <point x="599.53125" y="257.75"/>
      <point x="599.53125" y="84.65625" type="curve" smooth="yes"/>
      <point x="599.53125" y="-131.21875"/>
      <point x="506.40625" y="-358.0625"/>
      <point x="290.890625" y="-358.0625" type="curve" smooth="yes"/>
      <point x="213.109375" y="-358.0625"/>
      <point x="135.84375" y="-328.046875"/>
      <point x="76.59374999999999" y="-276.796875" type="curve"/>
      <point x="76.59374999999999" y="-433.53125" type="line"/>
      <point x="125.62499999999999" y="-469.0"/>
      <point x="201.546875" y="-492.0"/>
    </contour>
  </outline>
</glyph>
<glyph name="uni0279" format="2">
  <advance width="550.28125"/>
  <unicode hex="0279"/>
  <anchor x="158.859375" y="0.0" name="bottom"/>
  <anchor x="391.421875" y="1095.703125" name="top"/>
  <outline>
    <contour>
      <point x="-29.625" y="-20.0" type="curve" smooth="yes"/>
      <point x="75.703125" y="-20.0"/>
      <point x="152.359375" y="46.31250000000001"/>
      <point x="214.375" y="180.21875" type="curve"/>
      <point x="218.375" y="180.21875" type="line"/>
      <point x="194.953125" y="0.0" type="line"/>
      <point x="309.203125" y="0.0" type="line"/>
      <point x="539.765625" y="1095.703125" type="line"/>
      <point x="393.25" y="1095.703125" type="line"/>
      <point x="272.03125" y="521.375" type="line" smooth="yes"/>
      <point x="235.265625" y="342.421875"/>
      <point x="155.484375" y="132.53125"/>
      <point x="6.890624999999998" y="132.53125" type="curve" smooth="yes"/>
      <point x="-19.000000000000007" y="132.53125"/>
      <point x="-43.45312500000001" y="137.421875"/>
      <point x="-64.6875" y="146.984375" type="curve"/>
      <point x="-107.859375" y="-8.0" type="line"/>
      <point x="-83.171875" y="-15.78125"/>
      <point x="-58.171875" y="-20.0"/>
    </contour>
  </outline>
</glyph>
<glyph name="uni027B" format="2">
  <advance width="550.28125"/>
  <unicode hex="027B"/>
  <anchor x="55.640625" y="-491.671875" name="bottom"/>
  <anchor x="389.640625" y="1082.34375" name="top"/>
  <outline>
    <contour>
      <point x="267.140625" y="-491.671875" type="curve" smooth="yes"/>
      <point x="313.171875" y="-491.671875"/>
      <point x="357.765625" y="-481.21875"/>
      <point x="382.890625" y="-473.4375" type="curve"/>
      <point x="382.890625" y="-347.625" type="line"/>
      <point x="364.453125" y="-357.40625"/>
      <point x="336.328125" y="-363.1875"/>
      <point x="311.890625" y="-363.1875" type="curve" smooth="yes"/>
      <point x="276.234375" y="-363.1875"/>
      <point x="249.671875" y="-346.75"/>
      <point x="249.671875" y="-303.53125" type="curve" smooth="yes"/>
      <point x="249.671875" y="-274.53125"/>
      <point x="255.890625" y="-241.31250000000003"/>
      <point x="262.4375" y="-214.140625" type="curve"/>
      <point x="539.765625" y="1095.703125" type="line"/>
      <point x="393.25" y="1095.703125" type="line"/>
      <point x="272.03125" y="521.375" type="line" smooth="yes"/>
      <point x="235.265625" y="342.421875"/>
      <point x="155.484375" y="132.53125"/>
      <point x="6.890624999999998" y="132.53125" type="curve" smooth="yes"/>
      <point x="-19.000000000000007" y="132.53125"/>
      <point x="-43.45312500000001" y="137.421875"/>
      <point x="-64.6875" y="146.984375" type="curve"/>
      <point x="-107.859375" y="-8.0" type="line"/>
      <point x="-83.171875" y="-15.78125"/>
      <point x="-58.171875" y="-20.0"/>
      <point x="-29.625" y="-20.0" type="curve" smooth="yes"/>
      <point x="75.703125" y="-20.0"/>
      <point x="148.359375" y="45.87500000000001"/>
      <point x="208.484375" y="171.78125" type="curve"/>
      <point x="214.375" y="171.78125" type="line"/>
      <point x="197.578125" y="121.40625"/>
      <point x="175.78125" y="62.359375"/>
      <point x="162.21875" y="-1.3281249999999858" type="curve" smooth="yes"/>
      <point x="116.703125" y="-215.921875" type="line" smooth="yes"/>
      <point x="106.484375" y="-263.578125"/>
      <point x="99.59375" y="-302.578125"/>
      <point x="99.59375" y="-336.921875" type="curve" smooth="yes"/>
      <point x="99.59375" y="-428.734375"/>
      <point x="159.515625" y="-491.671875"/>
    </contour>
  </outline>
</glyph>
<glyph name="rfishhookreversed" format="2">
  <advance width="454.859375"/>
  <unicode hex="027F"/>
  <anchor x="7.9843749999999964" y="-492.0" name="bottom"/>
  <anchor x="341.984375" y="1082.34375" name="top"/>
  <outline>
    <contour>
      <point x="-35.18750000000001" y="-492.0" type="line"/>
      <point x="111.328125" y="-492.0" type="line"/>
      <point x="393.640625" y="831.5625" type="line" smooth="yes"/>
      <point x="401.640625" y="876.125"/>
      <point x="409.421875" y="927.5"/>
      <point x="409.421875" y="956.046875" type="curve" smooth="yes"/>
      <point x="409.421875" y="1059.0"/>
      <point x="358.171875" y="1115.8125"/>
      <point x="256.890625" y="1115.8125" type="curve" smooth="yes"/>
      <point x="213.203125" y="1115.8125"/>
      <point x="164.609375" y="1104.25"/>
      <point x="124.34375" y="1084.78125" type="curve"/>
      <point x="124.34375" y="964.3125" type="line"/>
      <point x="154.359375" y="976.765625"/>
      <point x="183.8125" y="984.65625"/>
      <point x="210.8125" y="984.65625" type="curve" smooth="yes"/>
      <point x="242.796875" y="984.65625"/>
      <point x="261.125" y="963.65625"/>
      <point x="261.125" y="926.890625" type="curve" smooth="yes"/>
      <point x="261.125" y="901.453125"/>
      <point x="257.125" y="876.5625"/>
      <point x="248.90625" y="844.921875" type="curve" smooth="yes"/>
    </contour>
  </outline>
</glyph>
<glyph name="uni0280" format="2">
  <advance width="761.421875"/>
  <unicode hex="0280"/>
  <anchor x="265.765625" y="0.0" name="bottom"/>
  <anchor x="495.65625" y="1082.34375" name="top"/>
  <outline>
    <contour>
      <point x="1.5312500000000018" y="0.0" type="line"/>
      <point x="148.15625" y="0.0" type="line"/>
      <point x="242.8125" y="447.171875" type="line"/>
      <point x="361.390625" y="447.171875" type="line"/>
      <point x="473.609375" y="0.0" type="line"/>
      <point x="625.578125" y="0.0" type="line"/>
      <point x="499.890625" y="469.875" type="line"/>
      <point x="627.328125" y="505.34375"/>
      <point x="735.640625" y="623.578125"/>
      <point x="735.640625" y="826.859375" type="curve" smooth="yes"/>
      <point x="735.640625" y="996.5625"/>
      <point x="650.296875" y="1095.703125"/>
      <point x="473.890625" y="1095.703125" type="curve" smooth="yes"/>
      <point x="232.421875" y="1095.703125" type="line"/>
    </contour>
    <contour>
      <point x="268.171875" y="565.859375" type="line"/>
      <point x="353.796875" y="977.015625" type="line"/>
      <point x="449.640625" y="977.015625" type="line" smooth="yes"/>
      <point x="542.703125" y="977.015625"/>
      <point x="587.125" y="922.375"/>
      <point x="587.125" y="815.515625" type="curve" smooth="yes"/>
      <point x="587.125" y="670.578125"/>
      <point x="514.25" y="565.859375"/>
      <point x="386.765625" y="565.859375" type="curve" smooth="yes"/>
    </contour>
  </outline>
</glyph>
<glyph name="uni0281" format="2">
  <advance width="779.109375"/>
  <unicode hex="0281"/>
  <anchor x="274.21875" y="0.0" name="bottom"/>
  <anchor x="503.328125" y="1082.34375" name="top"/>
  <outline>
    <contour>
      <point x="-0.24999999999999822" y="0.0" type="line"/>
      <point x="257.25" y="0.0" type="line" smooth="yes"/>
      <point x="483.171875" y="0.0"/>
      <point x="645.4375" y="134.09375"/>
      <point x="645.4375" y="359.8125" type="curve" smooth="yes"/>
      <point x="645.4375" y="482.15625"/>
      <point x="587.890625" y="569.25"/>
      <point x="504.140625" y="599.59375" type="curve"/>
      <point x="846.796875" y="1095.703125" type="line"/>
      <point x="679.265625" y="1095.703125" type="line"/>
      <point x="368.4375" y="628.078125" type="line"/>
      <point x="279.953125" y="628.078125" type="line"/>
      <point x="378.71875" y="1095.703125" type="line"/>
      <point x="232.421875" y="1095.703125" type="line"/>
    </contour>
    <contour>
      <point x="170.62499999999997" y="117.78125" type="line"/>
      <point x="254.375" y="513.3125" type="line"/>
      <point x="336.890625" y="513.3125" type="line" smooth="yes"/>
      <point x="448.953125" y="513.3125"/>
      <point x="495.921875" y="463.875"/>
      <point x="495.921875" y="366.921875" type="curve" smooth="yes"/>
      <point x="495.921875" y="219.890625"/>
      <point x="413.078125" y="117.78125"/>
      <point x="268.453125" y="117.78125" type="curve" smooth="yes"/>
    </contour>
  </outline>
</glyph>
<glyph name="uni0282" format="2">
  <advance width="637.59375"/>
  <unicode hex="0282"/>
  <anchor x="118.734375" y="-406.828125" name="bottom"/>
  <anchor x="433.296875" y="1082.34375" name="top"/>
  <outline>
    <contour>
      <point x="60.31250000000001" y="-406.828125" type="curve" smooth="yes"/>
      <point x="105.5625" y="-406.828125"/>
      <point x="148.375" y="-398.15625"/>
      <point x="173.5" y="-390.375" type="curve"/>
      <point x="173.5" y="-264.453125" type="line"/>
      <point x="155.06249999999997" y="-274.34375"/>
      <point x="128.71874999999997" y="-280.125"/>
      <point x="102.39062499999997" y="-280.125" type="curve" smooth="yes"/>
      <point x="68.51562499999999" y="-280.125"/>
      <point x="40.281249999999986" y="-263.578125"/>
      <point x="40.281249999999986" y="-218.578125" type="curve" smooth="yes"/>
      <point x="40.281249999999986" y="-191.46875"/>
      <point x="46.281249999999986" y="-159.140625"/>
      <point x="55.609374999999986" y="-127.40625000000001" type="curve" smooth="yes"/>
      <point x="80.59375" y="-2.9062499999999964" type="line"/>
      <point x="114.03125" y="-13.343749999999998"/>
      <point x="157.90625" y="-20.0"/>
      <point x="199.640625" y="-20.0" type="curve" smooth="yes"/>
      <point x="400.8125" y="-20.0"/>
      <point x="517.0625" y="109.609375"/>
      <point x="517.0625" y="312.515625" type="curve" smooth="yes"/>
      <point x="517.0625" y="449.3125"/>
      <point x="472.75" y="508.859375"/>
      <point x="366.5" y="622.078125" type="curve" smooth="yes"/>
      <point x="285.59375" y="704.734375"/>
      <point x="262.84375" y="754.140625"/>
      <point x="262.84375" y="829.765625" type="curve" smooth="yes"/>
      <point x="262.84375" y="926.484375"/>
      <point x="324.8125" y="990.0"/>
      <point x="420.640625" y="990.0" type="curve" smooth="yes"/>
      <point x="485.9375" y="990.0"/>
      <point x="548.515625" y="967.234375"/>
      <point x="597.765625" y="927.984375" type="curve"/>
      <point x="663.71875" y="1046.234375" type="line"/>
      <point x="605.578125" y="1087.484375"/>
      <point x="522.421875" y="1115.8125"/>
      <point x="419.296875" y="1115.8125" type="curve" smooth="yes"/>
      <point x="225.6875" y="1115.8125"/>
      <point x="113.4375" y="981.0"/>
      <point x="113.4375" y="809.625" type="curve" smooth="yes"/>
      <point x="113.4375" y="691.640625"/>
      <point x="161.75" y="613.421875"/>
      <point x="249.34375" y="524.078125" type="curve" smooth="yes"/>
      <point x="340.6875" y="426.875"/>
      <point x="365.875" y="378.78125"/>
      <point x="365.875" y="298.046875" type="curve" smooth="yes"/>
      <point x="365.875" y="176.890625"/>
      <point x="297.875" y="111.15624999999999"/>
      <point x="184.5" y="111.15624999999999" type="curve" smooth="yes"/>
      <point x="110.515625" y="111.15624999999999"/>
      <point x="23.140624999999993" y="141.171875"/>
      <point x="-25.875000000000004" y="178.1875" type="curve"/>
      <point x="-89.125" y="-123.84375000000001" type="line" smooth="yes"/>
      <point x="-101.125" y="-178.734375"/>
      <point x="-108.015625" y="-217.734375"/>
      <point x="-108.015625" y="-253.75" type="curve" smooth="yes"/>
      <point x="-108.015625" y="-345.5625"/>
      <point x="-48.09375" y="-406.828125"/>
    </contour>
  </outline>
</glyph>
<glyph name="eshcurl" format="2">
  <advance width="419.671875"/>
  <unicode hex="0286"/>
  <anchor x="-9.218750000000007" y="-492.0" name="bottom"/>
  <anchor x="427.109375" y="1566.78125" name="top"/>
  <outline>
    <contour>
      <point x="-140.390625" y="-492.0" type="curve" smooth="yes"/>
      <point x="8.234374999999993" y="-492.0"/>
      <point x="79.203125" y="-392.859375"/>
      <point x="119.546875" y="-222.609375" type="curve"/>
      <point x="249.234375" y="-222.609375" type="line"/>
      <point x="271.03125" y="-120.84375000000001" type="line"/>
      <point x="141.125" y="-120.84375000000001" type="line"/>
      <point x="430.15625" y="1227.671875" type="line" smooth="yes"/>
      <point x="464.28125" y="1390.96875"/>
      <point x="495.9375" y="1436.40625"/>
      <point x="576.8125" y="1436.40625" type="curve" smooth="yes"/>
      <point x="601.25" y="1436.40625"/>
      <point x="638.71875" y="1430.40625"/>
      <point x="664.515625" y="1417.28125" type="curve"/>
      <point x="664.515625" y="1543.3125" type="line"/>
      <point x="635.15625" y="1559.21875"/>
      <point x="599.46875" y="1566.78125"/>
      <point x="556.328125" y="1566.78125" type="curve" smooth="yes"/>
      <point x="396.59375" y="1566.78125"/>
      <point x="335.34375" y="1470.296875"/>
      <point x="284.75" y="1238.671875" type="curve" smooth="yes"/>
      <point x="-3.609375000000007" y="-120.84375000000001" type="line"/>
      <point x="-53.26562500000001" y="-120.84375000000001" type="line" smooth="yes"/>
      <point x="-228.78125" y="-120.84375000000001"/>
      <point x="-313.71875" y="-198.53125"/>
      <point x="-313.71875" y="-332.703125" type="curve" smooth="yes"/>
      <point x="-313.71875" y="-435.3125"/>
      <point x="-243.34375" y="-492.0"/>
    </contour>
    <contour>
      <point x="-138.390625" y="-389.234375" type="curve" smooth="yes"/>
      <point x="-177.390625" y="-389.234375"/>
      <point x="-202.5" y="-370.796875"/>
      <point x="-202.5" y="-326.921875" type="curve" smooth="yes"/>
      <point x="-202.5" y="-258.484375"/>
      <point x="-160.265625" y="-222.609375"/>
      <point x="-75.75" y="-222.609375" type="curve" smooth="yes"/>
      <point x="-25.187500000000007" y="-222.609375" type="line"/>
      <point x="-49.73437500000001" y="-338.921875"/>
      <point x="-77.3125" y="-389.234375"/>
    </contour>
  </outline>
</glyph>
<glyph name="uni028A" format="2">
  <advance width="835.640625"/>
  <unicode hex="028A"/>
  <anchor x="302.984375" y="0.0" name="bottom"/>
  <anchor x="532.875" y="1082.34375" name="top"/>
  <outline>
    <contour>
      <point x="322.34375" y="-19.78125" type="curve" smooth="yes"/>
      <point x="630.28125" y="-19.78125"/>
      <point x="771.09375" y="359.828125"/>
      <point x="771.09375" y="704.953125" type="curve" smooth="yes"/>
      <point x="771.09375" y="820.21875"/>
      <point x="742.109375" y="918.4375"/>
      <point x="690.34375" y="965.875" type="curve"/>
      <point x="860.1875" y="965.875" type="line"/>
      <point x="886.890625" y="1090.578125" type="line"/>
      <point x="576.125" y="1090.578125" type="line"/>
      <point x="549.421875" y="970.546875" type="line"/>
      <point x="596.390625" y="942.234375"/>
      <point x="623.359375" y="846.671875"/>
      <point x="623.359375" y="736.5625" type="curve" smooth="yes"/>
      <point x="623.359375" y="483.203125"/>
      <point x="528.5" y="109.59374999999999"/>
      <point x="338.8125" y="109.59374999999999" type="curve" smooth="yes"/>
      <point x="256.40625" y="109.59374999999999"/>
      <point x="203.078125" y="175.03125"/>
      <point x="203.078125" y="303.609375" type="curve" smooth="yes"/>
      <point x="203.078125" y="543.484375"/>
      <point x="289.5625" y="901.96875"/>
      <point x="451.171875" y="972.546875" type="curve"/>
      <point x="476.984375" y="1090.578125" type="line"/>
      <point x="160.65625" y="1090.578125" type="line"/>
      <point x="133.734375" y="965.875" type="line"/>
      <point x="293.484375" y="965.875" type="line"/>
      <point x="135.234375" y="862.359375"/>
      <point x="54.5625" y="564.015625"/>
      <point x="54.5625" y="307.171875" type="curve" smooth="yes"/>
      <point x="54.5625" y="95.375"/>
      <point x="157.953125" y="-19.78125"/>
    </contour>
  </outline>
</glyph>
<glyph name="uni0291" format="2">
  <advance width="736.265625"/>
  <unicode hex="0291"/>
  <anchor x="213.625" y="-269.421875" name="bottom"/>
  <anchor x="439.546875" y="1095.703125" name="top"/>
  <outline>
    <contour>
      <point x="168.75" y="-267.78125" type="line"/>
      <point x="209.53125" y="-157.125"/>
      <point x="239.875" y="-72.0"/>
      <point x="269.3125" y="0.0" type="curve"/>
      <point x="414.5" y="0.0" type="line" smooth="yes"/>
      <point x="559.765625" y="0.0"/>
      <point x="681.15625" y="68.609375"/>
      <point x="682.9375" y="220.984375" type="curve" smooth="yes"/>
      <point x="682.9375" y="320.8125"/>
      <point x="616.796875" y="400.078125"/>
      <point x="497.1875" y="400.078125" type="curve" smooth="yes"/>
      <point x="382.40625" y="400.078125"/>
      <point x="308.203125" y="336.359375"/>
      <point x="210.484375" y="127.59374999999999" type="curve"/>
      <point x="120.01562499999997" y="127.59374999999999" type="line"/>
      <point x="606.15625" y="989.703125" type="line"/>
      <point x="629.625" y="1095.703125" type="line"/>
      <point x="179.3125" y="1095.703125" type="line"/>
      <point x="153.28125" y="969.890625" type="line"/>
      <point x="439.828125" y="969.890625" type="line"/>
      <point x="-51.65625" y="99.76562499999999" type="line"/>
      <point x="-73.34375" y="0.0" type="line"/>
      <point x="158.984375" y="0.0" type="line"/>
      <point x="129.546875" y="-68.65625"/>
      <point x="101.54687499999999" y="-146.640625"/>
      <point x="68.76562499999999" y="-237.96875" type="curve"/>
    </contour>
    <contour>
      <point x="322.265625" y="127.59374999999999" type="line"/>
      <point x="387.5" y="264.84375"/>
      <point x="431.453125" y="299.203125"/>
      <point x="486.0625" y="299.203125" type="curve" smooth="yes"/>
      <point x="532.59375" y="299.203125"/>
      <point x="564.25" y="265.984375"/>
      <point x="564.25" y="223.671875" type="curve" smooth="yes"/>
      <point x="564.25" y="148.59375"/>
      <point x="504.828125" y="127.59374999999999"/>
      <point x="430.40625" y="127.59374999999999" type="curve" smooth="yes"/>
    </contour>
  </outline>
</glyph>
<glyph name="uni0295" format="2">
  <advance width="568.953125"/>
  <unicode hex="0295"/>
  <anchor x="170.421875" y="0.0" name="bottom"/>
  <anchor x="502.640625" y="1567.0" name="top"/>
  <outline>
    <contour>
      <point x="145.90625" y="0.0" type="line"/>
      <point x="292.421875" y="0.0" type="line"/>
      <point x="438.421875" y="680.25" type="line"/>
      <point x="322.8125" y="815.0"/>
      <point x="280.46875" y="941.171875"/>
      <point x="280.46875" y="1070.828125" type="curve" smooth="yes"/>
      <point x="280.46875" y="1256.625"/>
      <point x="357.78125" y="1434.953125"/>
      <point x="525.515625" y="1434.953125" type="curve" smooth="yes"/>
      <point x="597.296875" y="1434.953125"/>
      <point x="649.640625" y="1412.625"/>
      <point x="698.21875" y="1371.15625" type="curve"/>
      <point x="775.96875" y="1483.1875" type="line"/>
      <point x="713.59375" y="1536.4375"/>
      <point x="629.5625" y="1567.0"/>
      <point x="525.84375" y="1567.0" type="curve" smooth="yes"/>
      <point x="262.0" y="1567.0"/>
      <point x="130.171875" y="1334.609375"/>
      <point x="130.171875" y="1063.703125" type="curve" smooth="yes"/>
      <point x="130.171875" y="895.921875"/>
      <point x="179.171875" y="768.1875"/>
      <point x="282.234375" y="642.53125" type="curve"/>
    </contour>
  </outline>
</glyph>
<glyph name="cstretched" format="2">
  <advance width="695.296875"/>
  <unicode hex="0297"/>
  <anchor x="129.203125" y="-492.0" name="bottom"/>
  <anchor x="463.203125" y="1082.34375" name="top"/>
  <outline>
    <contour>
      <point x="288.734375" y="-492.0" type="curve" smooth="yes"/>
      <point x="362.0" y="-492.0"/>
      <point x="430.15625" y="-468.3125"/>
      <point x="484.078125" y="-437.171875" type="curve"/>
      <point x="484.078125" y="-307.578125" type="line"/>
      <point x="424.375" y="-342.5"/>
      <point x="372.90625" y="-361.625"/>
      <point x="324.125" y="-361.625" type="curve" smooth="yes"/>
      <point x="235.71875" y="-361.625"/>
      <point x="159.421875" y="-303.53125"/>
      <point x="159.421875" y="-58.34375" type="curve" smooth="yes"/>
      <point x="159.421875" y="414.40625"/>
      <point x="326.546875" y="986.4375"/>
      <point x="580.421875" y="986.4375" type="curve" smooth="yes"/>
      <point x="622.65625" y="986.4375"/>
      <point x="664.78125" y="973.203125"/>
      <point x="701.5625" y="949.1875" type="curve"/>
      <point x="759.640625" y="1071.4375" type="line"/>
      <point x="710.9375" y="1102.46875"/>
      <point x="653.6875" y="1115.8125"/>
      <point x="584.421875" y="1115.8125" type="curve" smooth="yes"/>
      <point x="199.390625" y="1115.8125"/>
      <point x="9.343749999999996" y="483.46875"/>
      <point x="9.343749999999996" y="-49.87500000000001" type="curve" smooth="yes"/>
      <point x="9.343749999999996" y="-385.1875"/>
      <point x="129.6875" y="-492.0"/>
    </contour>
  </outline>
</glyph>
<glyph name="uni029D" format="2">
  <advance width="387.890625"/>
  <unicode hex="029D"/>
  <anchor x="-23.609375000000007" y="-492.0" name="bottom"/>
  <anchor x="398.515625" y="1503.421875" name="top"/>
  <outline>
    <contour>
      <point x="-155.5625" y="-492.0" type="curve" smooth="yes"/>
      <point x="-6.0468750000000036" y="-492.0"/>
      <point x="65.03125" y="-392.859375"/>
      <point x="105.375" y="-222.609375" type="curve"/>
      <point x="234.953125" y="-222.609375" type="line"/>
      <point x="254.1875" y="-120.84375000000001" type="line"/>
      <point x="124.28125" y="-120.84375000000001" type="line"/>
      <point x="381.8125" y="1095.703125" type="line"/>
      <point x="237.96875" y="1095.703125" type="line"/>
      <point x="-19.5625" y="-120.84375000000001" type="line"/>
      <point x="-68.4375" y="-120.84375000000001" type="line" smooth="yes"/>
      <point x="-243.953125" y="-120.84375000000001"/>
      <point x="-328.78125" y="-198.53125"/>
      <point x="-328.78125" y="-332.703125" type="curve" smooth="yes"/>
      <point x="-328.78125" y="-435.3125"/>
      <point x="-259.296875" y="-492.0"/>
    </contour>
    <contour>
      <point x="-155.34375" y="-389.234375" type="curve" smooth="yes"/>
      <point x="-192.453125" y="-389.234375"/>
      <point x="-216.78125" y="-370.796875"/>
      <point x="-216.78125" y="-326.921875" type="curve" smooth="yes"/>
      <point x="-216.78125" y="-258.484375"/>
      <point x="-174.4375" y="-222.609375"/>
      <point x="-90.03125" y="-222.609375" type="curve" smooth="yes"/>
      <point x="-39.46875" y="-222.609375" type="line"/>
      <point x="-64.796875" y="-338.921875"/>
      <point x="-91.59375" y="-389.234375"/>
    </contour>
    <contour>
      <point x="355.59375" y="1285.828125" type="curve" smooth="yes"/>
      <point x="422.421875" y="1285.828125"/>
      <point x="464.46875" y="1352.40625"/>
      <point x="464.46875" y="1431.046875" type="curve" smooth="yes"/>
      <point x="464.46875" y="1480.296875"/>
      <point x="438.890625" y="1503.421875"/>
      <point x="392.734375" y="1503.421875" type="curve" smooth="yes"/>
      <point x="318.78125" y="1503.421875"/>
      <point x="282.96875" y="1430.828125"/>
      <point x="282.96875" y="1362.4375" type="curve" smooth="yes"/>
      <point x="282.96875" y="1311.84375"/>
      <point x="307.65625" y="1285.828125"/>
    </contour>
  </outline>
</glyph>
<glyph name="kturned" format="2">
  <advance width="715.5"/>
  <unicode hex="029E"/>
  <anchor x="144.8125" y="-461.1875" name="bottom"/>
  <anchor x="472.25" y="1095.703125" name="top"/>
  <outline>
    <contour>
      <point x="241.078125" y="-461.1875" type="line"/>
      <point x="386.703125" y="-461.1875" type="line"/>
      <point x="718.703125" y="1095.703125" type="line"/>
      <point x="572.96875" y="1095.703125" type="line"/>
      <point x="492.859375" y="708.703125" type="line"/>
      <point x="363.953125" y="563.40625" type="line"/>
      <point x="274.859375" y="1095.703125" type="line"/>
      <point x="119.4375" y="1095.703125" type="line"/>
      <point x="235.234375" y="440.9375" type="line"/>
      <point x="-92.90625" y="0.0" type="line"/>
      <point x="66.734375" y="0.0" type="line"/>
      <point x="454.046875" y="521.40625" type="line"/>
      <point x="457.828125" y="521.40625" type="line"/>
      <point x="435.15625" y="431.625"/>
      <point x="417.265625" y="357.40625"/>
      <point x="406.171875" y="297.921875" type="curve" smooth="yes"/>
    </contour>
  </outline>
</glyph>
<glyph name="qhook" format="2">
  <advance width="857.03125"/>
  <unicode hex="02A0"/>
  <anchor x="210.515625" y="-492.0" name="bottom"/>
  <anchor x="648.515625" y="1573.90625" name="top"/>
  <outline>
    <contour>
      <point x="367.4375" y="-492.0" type="line"/>
      <point x="513.0625" y="-492.0" type="line"/>
      <point x="898.9375" y="1333.703125" type="line" smooth="yes"/>
      <point x="916.375" y="1413.671875"/>
      <point x="946.8125" y="1446.203125"/>
      <point x="1008.203125" y="1446.203125" type="curve" smooth="yes"/>
      <point x="1034.421875" y="1446.203125"/>
      <point x="1059.421875" y="1440.203125"/>
      <point x="1078.984375" y="1429.75" type="curve"/>
      <point x="1078.984375" y="1555.78125" type="line"/>
      <point x="1054.078125" y="1566.34375"/>
      <point x="1016.609375" y="1573.90625"/>
      <point x="975.25" y="1573.90625" type="curve" smooth="yes"/>
      <point x="850.25" y="1573.90625"/>
      <point x="790.671875" y="1505.25"/>
      <point x="760.4375" y="1368.65625" type="curve" smooth="yes"/>
      <point x="711.4375" y="1134.09375" type="line" smooth="yes"/>
      <point x="698.0" y="1074.34375"/>
      <point x="689.34375" y="1014.828125"/>
      <point x="682.6875" y="962.296875" type="curve"/>
      <point x="674.90625" y="962.296875" type="line"/>
      <point x="649.21875" y="1062.078125"/>
      <point x="592.4375" y="1115.8125"/>
      <point x="495.234375" y="1115.8125" type="curve" smooth="yes"/>
      <point x="191.640625" y="1115.8125"/>
      <point x="50.09375" y="587.75"/>
      <point x="50.09375" y="279.4375" type="curve" smooth="yes"/>
      <point x="50.09375" y="84.21875"/>
      <point x="125.65625" y="-20.0"/>
      <point x="258.0" y="-20.0" type="curve" smooth="yes"/>
      <point x="356.296875" y="-20.0"/>
      <point x="432.078125" y="35.62499999999999"/>
      <point x="505.09375" y="147.484375" type="curve"/>
      <point x="509.09375" y="147.484375" type="line"/>
      <point x="493.3125" y="90.921875"/>
      <point x="478.859375" y="37.015625000000014"/>
      <point x="470.75" y="3.5781250000000053" type="curve" smooth="yes"/>
    </contour>
    <contour>
      <point x="311.203125" y="109.37499999999999" type="curve" smooth="yes"/>
      <point x="236.125" y="109.37499999999999"/>
      <point x="202.28125" y="168.125"/>
      <point x="202.28125" y="294.125" type="curve" smooth="yes"/>
      <point x="202.28125" y="531.140625"/>
      <point x="309.453125" y="984.65625"/>
      <point x="507.484375" y="984.65625" type="curve" smooth="yes"/>
      <point x="581.5625" y="984.65625"/>
      <point x="625.65625" y="928.921875"/>
      <point x="625.65625" y="829.734375" type="curve" smooth="yes"/>
      <point x="625.65625" y="618.140625"/>
      <point x="518.078125" y="109.37499999999999"/>
    </contour>
  </outline>
</glyph>
<glyph name="dzligcurl" format="2">
  <advance width="1410.203125"/>
  <unicode hex="02A5"/>
  <anchor x="591.046875" y="0.0" name="bottom"/>
  <anchor x="921.15625" y="1556.0" name="top"/>
  <outline>
    <contour>
      <point x="842.6875" y="-267.78125" type="line"/>
      <point x="883.46875" y="-157.125"/>
      <point x="913.8125" y="-72.0"/>
      <point x="944.921875" y="0.0" type="curve"/>
      <point x="1090.21875" y="0.0" type="line" smooth="yes"/>
      <point x="1233.703125" y="0.0"/>
      <point x="1356.875" y="68.609375"/>
      <point x="1356.875" y="220.984375" type="curve" smooth="yes"/>
      <point x="1358.65625" y="320.8125"/>
      <point x="1290.734375" y="400.078125"/>
      <point x="1171.125" y="400.078125" type="curve" smooth="yes"/>
      <point x="1058.125" y="400.078125"/>
      <point x="982.140625" y="336.359375"/>
      <point x="886.203125" y="127.59374999999999" type="curve"/>
      <point x="793.953125" y="127.59374999999999" type="line"/>
      <point x="1282.765625" y="989.703125" type="line"/>
      <point x="1303.453125" y="1095.703125" type="line"/>
      <point x="848.625" y="1095.703125" type="line"/>
      <point x="945.0625" y="1556.0" type="line"/>
      <point x="799.4375" y="1556.0" type="line"/>
      <point x="716.78125" y="1164.375" type="line" smooth="yes"/>
      <point x="704.234375" y="1103.734375"/>
      <point x="691.125" y="1032.640625"/>
      <point x="679.125" y="964.078125" type="curve"/>
      <point x="673.125" y="964.078125" type="line"/>
      <point x="651.0" y="1058.515625"/>
      <point x="581.75" y="1115.8125"/>
      <point x="485.4375" y="1115.8125" type="curve" smooth="yes"/>
      <point x="189.859375" y="1115.8125"/>
      <point x="50.09375" y="587.75"/>
      <point x="50.09375" y="284.78125" type="curve" smooth="yes"/>
      <point x="50.09375" y="87.78125"/>
      <point x="125.65625" y="-20.0"/>
      <point x="259.78125" y="-20.0" type="curve" smooth="yes"/>
      <point x="361.640625" y="-20.0"/>
      <point x="434.078125" y="43.18749999999999"/>
      <point x="508.65625" y="156.15625" type="curve"/>
      <point x="512.65625" y="156.15625" type="line"/>
      <point x="498.359375" y="0.0" type="line"/>
      <point x="832.921875" y="0.0" type="line"/>
      <point x="803.484375" y="-68.65625"/>
      <point x="775.484375" y="-148.421875"/>
      <point x="742.703125" y="-237.96875" type="curve"/>
    </contour>
    <contour>
      <point x="309.421875" y="107.59374999999999" type="curve" smooth="yes"/>
      <point x="238.34375" y="107.59374999999999"/>
      <point x="202.28125" y="166.34375"/>
      <point x="202.28125" y="292.34375" type="curve" smooth="yes"/>
      <point x="202.28125" y="531.140625"/>
      <point x="309.453125" y="984.65625"/>
      <point x="507.484375" y="984.65625" type="curve" smooth="yes"/>
      <point x="586.90625" y="984.65625"/>
      <point x="625.65625" y="927.140625"/>
      <point x="625.65625" y="822.609375" type="curve" smooth="yes"/>
      <point x="625.65625" y="637.3125"/>
      <point x="535.0" y="107.59374999999999"/>
    </contour>
    <contour>
      <point x="997.984375" y="127.59374999999999" type="line"/>
      <point x="1063.21875" y="264.84375"/>
      <point x="1107.171875" y="299.203125"/>
      <point x="1163.5625" y="299.203125" type="curve" smooth="yes"/>
      <point x="1210.09375" y="299.203125"/>
      <point x="1239.96875" y="265.984375"/>
      <point x="1239.96875" y="223.671875" type="curve" smooth="yes"/>
      <point x="1239.96875" y="148.59375"/>
      <point x="1180.4375" y="127.59374999999999"/>
      <point x="1106.015625" y="127.59374999999999" type="curve" smooth="yes"/>
    </contour>
    <contour>
      <point x="644.3125" y="140.265625" type="line"/>
      <point x="819.59375" y="969.890625" type="line"/>
      <point x="1113.765625" y="969.890625" type="line"/>
    </contour>
  </outline>
</glyph>
<glyph name="uni02A7" format="2">
  <advance width="753.828125"/>
  <unicode hex="02A7"/>
  <anchor x="157.859375" y="-492.0" name="bottom"/>
  <anchor x="595.96875" y="1566.78125" name="top"/>
  <outline>
    <contour>
      <point x="190.65625" y="-492.0" type="curve" smooth="yes"/>
      <point x="378.609375" y="-492.0"/>
      <point x="433.1875" y="-338.015625"/>
      <point x="477.96875" y="-126.328125" type="curve" smooth="yes"/>
      <point x="766.5625" y="1227.671875" type="line" smooth="yes"/>
      <point x="802.359375" y="1390.96875"/>
      <point x="834.015625" y="1436.40625"/>
      <point x="914.890625" y="1436.40625" type="curve" smooth="yes"/>
      <point x="940.328125" y="1436.40625"/>
      <point x="976.90625" y="1430.40625"/>
      <point x="1002.703125" y="1417.28125" type="curve"/>
      <point x="1002.703125" y="1543.3125" type="line"/>
      <point x="973.34375" y="1559.21875"/>
      <point x="937.65625" y="1566.78125"/>
      <point x="892.625" y="1566.78125" type="curve" smooth="yes"/>
      <point x="735.5625" y="1566.78125"/>
      <point x="673.421875" y="1470.296875"/>
      <point x="622.9375" y="1238.671875" type="curve" smooth="yes"/>
      <point x="592.546875" y="1095.703125" type="line"/>
      <point x="380.53125" y="1095.703125" type="line"/>
      <point x="433.75" y="1347.234375" type="line"/>
      <point x="327.515625" y="1347.234375" type="line"/>
      <point x="241.703125" y="1094.140625" type="line"/>
      <point x="127.21875" y="1055.1875" type="line"/>
      <point x="110.09375" y="969.890625" type="line"/>
      <point x="207.875" y="969.890625" type="line"/>
      <point x="66.578125" y="306.15625" type="line" smooth="yes"/>
      <point x="53.46875" y="248.171875"/>
      <point x="47.03125" y="197.421875"/>
      <point x="47.03125" y="157.984375" type="curve" smooth="yes"/>
      <point x="47.03125" y="46.375"/>
      <point x="99.15625" y="-20.0"/>
      <point x="223.015625" y="-20.0" type="curve" smooth="yes"/>
      <point x="265.140625" y="-20.0"/>
      <point x="314.953125" y="-14.0"/>
      <point x="357.984375" y="-0.4375000000000009" type="curve"/>
      <point x="335.015625" y="-114.53125" type="line" smooth="yes"/>
      <point x="297.796875" y="-278.828125"/>
      <point x="273.9375" y="-359.84375"/>
      <point x="174.625" y="-359.84375" type="curve" smooth="yes"/>
      <point x="145.40625" y="-359.84375"/>
      <point x="112.15624999999997" y="-354.0625"/>
      <point x="89.48437499999997" y="-346.0625" type="curve"/>
      <point x="89.48437499999997" y="-477.65625" type="line"/>
      <point x="118.62499999999997" y="-487.0"/>
      <point x="152.53125" y="-492.0"/>
    </contour>
    <contour>
      <point x="273.765625" y="111.15624999999999" type="curve" smooth="yes"/>
      <point x="211.984375" y="111.15624999999999"/>
      <point x="193.546875" y="134.03125"/>
      <point x="193.546875" y="181.796875" type="curve" smooth="yes"/>
      <point x="193.546875" y="209.890625"/>
      <point x="199.984375" y="252.421875"/>
      <point x="208.75" y="296.8125" type="curve" smooth="yes"/>
      <point x="351.71875" y="969.890625" type="line"/>
      <point x="563.625" y="969.890625" type="line"/>
      <point x="385.796875" y="129.15625" type="line"/>
      <point x="348.4375" y="117.59375"/>
      <point x="304.53125" y="111.15624999999999"/>
    </contour>
  </outline>
</glyph>
<glyph name="uni02AB" format="2">
  <advance width="773.453125"/>
  <unicode hex="02AB"/>
  <anchor x="230.26562499999997" y="0.0" name="bottom"/>
  <anchor x="560.484375" y="1556.0" name="top"/>
  <outline>
    <contour>
      <point x="1.09375" y="0.0" type="line"/>
      <point x="615.453125" y="0.0" type="line"/>
      <point x="642.484375" y="127.59374999999999" type="line"/>
      <point x="325.390625" y="127.59374999999999" type="line"/>
      <point x="814.203125" y="989.703125" type="line"/>
      <point x="835.0" y="1095.703125" type="line"/>
      <point x="380.28125" y="1095.703125" type="line"/>
      <point x="478.71875" y="1556.0" type="line"/>
      <point x="333.09375" y="1556.0" type="line"/>
    </contour>
    <contour>
      <point x="175.75" y="140.265625" type="line"/>
      <point x="353.359375" y="969.890625" type="line"/>
      <point x="645.203125" y="969.890625" type="line"/>
    </contour>
  </outline>
</glyph>
<glyph name="uni02AF" format="2">
  <advance width="876.421875"/>
  <unicode hex="02AF"/>
  <anchor x="218.765625" y="-492.0" name="bottom"/>
  <anchor x="552.765625" y="1082.34375" name="top"/>
  <outline>
    <contour>
      <point x="584.328125" y="-492.0" type="curve" smooth="yes"/>
      <point x="629.796875" y="-492.0"/>
      <point x="674.828125" y="-481.21875"/>
      <point x="700.84375" y="-473.4375" type="curve"/>
      <point x="700.84375" y="-347.625" type="line"/>
      <point x="681.40625" y="-357.40625"/>
      <point x="653.84375" y="-363.40625"/>
      <point x="628.625" y="-363.40625" type="curve" smooth="yes"/>
      <point x="592.96875" y="-363.40625"/>
      <point x="567.625" y="-346.96875"/>
      <point x="567.625" y="-303.96875" type="curve" smooth="yes"/>
      <point x="567.625" y="-276.75"/>
      <point x="573.40625" y="-247.18750000000003"/>
      <point x="579.84375" y="-218.109375" type="curve" smooth="yes"/>
      <point x="857.046875" y="1095.703125" type="line"/>
      <point x="711.421875" y="1095.703125" type="line"/>
      <point x="582.859375" y="491.671875" type="line" smooth="yes"/>
      <point x="528.65625" y="230.3125"/>
      <point x="449.5625" y="114.71874999999999"/>
      <point x="332.1875" y="114.71874999999999" type="curve" smooth="yes"/>
      <point x="271.546875" y="114.71874999999999"/>
      <point x="238.796875" y="151.9375"/>
      <point x="238.796875" y="213.234375" type="curve" smooth="yes"/>
      <point x="238.796875" y="276.0"/>
      <point x="253.453125" y="348.421875"/>
      <point x="270.453125" y="423.078125" type="curve" smooth="yes"/>
      <point x="358.640625" y="839.578125" type="line" smooth="yes"/>
      <point x="368.421875" y="891.265625"/>
      <point x="374.421875" y="927.5"/>
      <point x="374.421875" y="964.0625" type="curve" smooth="yes"/>
      <point x="374.421875" y="1055.4375"/>
      <point x="317.9375" y="1115.8125"/>
      <point x="209.421875" y="1115.8125" type="curve" smooth="yes"/>
      <point x="162.171875" y="1115.8125"/>
      <point x="117.140625" y="1107.8125"/>
      <point x="91.125" y="1098.140625" type="curve"/>
      <point x="91.125" y="974.109375" type="line"/>
      <point x="110.453125" y="982.109375"/>
      <point x="138.125" y="990.0"/>
      <point x="165.125" y="990.0" type="curve" smooth="yes"/>
      <point x="199.0" y="990.0"/>
      <point x="224.34375" y="971.671875"/>
      <point x="224.34375" y="928.671875" type="curve" smooth="yes"/>
      <point x="224.34375" y="901.453125"/>
      <point x="220.34375" y="871.21875"/>
      <point x="213.90625" y="843.140625" type="curve" smooth="yes"/>
      <point x="118.921875" y="405.671875" type="line" smooth="yes"/>
      <point x="101.8125" y="330.578125"/>
      <point x="86.828125" y="243.734375"/>
      <point x="86.828125" y="185.078125" type="curve" smooth="yes"/>
      <point x="86.828125" y="51.03125"/>
      <point x="160.171875" y="-20.0"/>
      <point x="275.3125" y="-20.0" type="curve" smooth="yes"/>
      <point x="377.859375" y="-20.0"/>
      <point x="458.953125" y="36.31249999999999"/>
      <point x="514.859375" y="141.296875" type="curve"/>
      <point x="518.859375" y="141.296875" type="line"/>
      <point x="505.078125" y="92.078125"/>
      <point x="491.515625" y="40.96875"/>
      <point x="478.515625" y="-15.375" type="curve" smooth="yes"/>
      <point x="435.109375" y="-215.31250000000003" type="line" smooth="yes"/>
      <point x="428.890625" y="-254.53125"/>
      <point x="417.546875" y="-302.796875"/>
      <point x="417.546875" y="-339.359375" type="curve" smooth="yes"/>
      <point x="417.546875" y="-430.734375"/>
      <point x="475.8125" y="-492.0"/>
    </contour>
  </outline>
</glyph>
<glyph name="uni02BF" format="2">
  <advance width="349.8125"/>
  <unicode hex="02BF"/>
  <outline>
    <contour>
      <point x="421.703125" y="1176.0" type="curve"/>
      <point x="440.9375" y="1263.078125" type="line"/>
      <point x="375.859375" y="1263.078125"/>
      <point x="338.203125" y="1300.734375"/>
      <point x="338.203125" y="1373.59375" type="curve" smooth="yes"/>
      <point x="338.203125" y="1479.65625"/>
      <point x="406.390625" y="1535.96875"/>
      <point x="497.921875" y="1535.96875" type="curve"/>
      <point x="513.046875" y="1622.828125" type="line"/>
      <point x="347.3125" y="1624.609375"/>
      <point x="243.78125" y="1523.921875"/>
      <point x="243.78125" y="1371.8125" type="curve" smooth="yes"/>
      <point x="243.78125" y="1245.6875"/>
      <point x="331.5625" y="1176.0"/>
    </contour>
  </outline>
</glyph>
<glyph name="uni02C1" format="2">
  <advance width="452.0"/>
  <unicode hex="02C1"/>
  <outline>
    <contour>
      <point x="326.65625" y="1057.703125" type="line"/>
      <point x="433.328125" y="1057.703125" type="line"/>
      <point x="465.890625" y="1213.859375" type="line"/>
      <point x="372.6875" y="1226.09375"/>
      <point x="323.6875" y="1263.75"/>
      <point x="323.6875" y="1332.171875" type="curve" smooth="yes"/>
      <point x="323.6875" y="1402.578125"/>
      <point x="373.78125" y="1466.34375"/>
      <point x="464.296875" y="1466.34375" type="curve" smooth="yes"/>
      <point x="513.953125" y="1466.34375"/>
      <point x="556.046875" y="1447.796875"/>
      <point x="583.046875" y="1419.015625" type="curve"/>
      <point x="640.328125" y="1513.546875" type="line"/>
      <point x="594.859375" y="1545.5625"/>
      <point x="542.296875" y="1569.0"/>
      <point x="454.265625" y="1569.0" type="curve" smooth="yes"/>
      <point x="291.46875" y="1569.0"/>
      <point x="195.875" y="1451.75"/>
      <point x="195.875" y="1326.609375" type="curve" smooth="yes"/>
      <point x="195.875" y="1225.265625"/>
      <point x="249.96875" y="1169.046875"/>
      <point x="344.65625" y="1146.140625" type="curve"/>
    </contour>
  </outline>
</glyph>
<glyph name="circumflex" format="2">
  <advance width="646.71875"/>
  <unicode hex="02C6"/>
  <outline>
    <contour>
      <point x="229.4375" y="1241.0" type="line"/>
      <point x="314.5625" y="1241.0" type="line"/>
      <point x="375.390625" y="1291.171875"/>
      <point x="444.03125" y="1360.015625"/>
      <point x="516.171875" y="1438.234375" type="curve"/>
      <point x="552.515625" y="1362.484375"/>
      <point x="594.828125" y="1293.421875"/>
      <point x="632.265625" y="1241.0" type="curve"/>
      <point x="712.9375" y="1241.0" type="line"/>
      <point x="716.71875" y="1261.453125" type="line"/>
      <point x="681.71875" y="1333.46875"/>
      <point x="620.5" y="1493.90625"/>
      <point x="605.28125" y="1569.0" type="curve"/>
      <point x="475.0" y="1569.0" type="line"/>
      <point x="414.4375" y="1472.015625"/>
      <point x="326.140625" y="1360.828125"/>
      <point x="233.328125" y="1261.453125" type="curve"/>
    </contour>
  </outline>
</glyph>
<glyph name="caron" format="2">
  <advance width="648.5"/>
  <unicode hex="02C7"/>
  <outline>
    <contour>
      <point x="408.65625" y="1241.0" type="curve"/>
      <point x="538.9375" y="1241.0" type="line"/>
      <point x="585.25" y="1320.171875"/>
      <point x="715.40625" y="1480.34375"/>
      <point x="780.609375" y="1548.4375" type="curve"/>
      <point x="784.390625" y="1569.0" type="line"/>
      <point x="699.375" y="1569.0" type="line"/>
      <point x="636.765625" y="1518.828125"/>
      <point x="569.90625" y="1449.984375"/>
      <point x="497.65625" y="1371.765625" type="curve"/>
      <point x="452.515625" y="1458.203125"/>
      <point x="410.09375" y="1527.265625"/>
      <point x="381.671875" y="1569.0" type="curve"/>
      <point x="299.21875" y="1569.0" type="line"/>
      <point x="295.4375" y="1548.4375" type="line"/>
      <point x="330.4375" y="1480.09375"/>
      <point x="389.875" y="1312.53125"/>
    </contour>
  </outline>
</glyph>
<glyph name="macron" format="2">
  <advance width="649.203125"/>
  <unicode hex="02C9"/>
  <outline>
    <contour>
      <point x="231.21875" y="1249.4375" type="line"/>
      <point x="715.421875" y="1249.4375" type="line"/>
      <point x="740.78125" y="1364.671875" type="line"/>
      <point x="254.6875" y="1364.671875" type="line"/>
    </contour>
  </outline>
</glyph>
<glyph name="uni02CC" format="2">
  <advance width="286.6875"/>
  <unicode hex="02CC"/>
  <outline>
    <contour>
      <point x="-124.78125" y="-422.0" type="line"/>
      <point x="-4.093750000000007" y="-422.0" type="line"/>
      <point x="114.6875" y="127.46875" type="line"/>
      <point x="-4.21875" y="127.46875" type="line"/>
    </contour>
  </outline>
</glyph>
<glyph name="uni02D7" format="2">
  <advance width="529.59375"/>
  <unicode hex="02D7"/>
  <outline>
    <contour>
      <point x="116.53125" y="653.65625" type="line"/>
      <point x="96.296875" y="561.296875" type="line"/>
      <point x="439.15625" y="561.296875" type="line"/>
      <point x="457.609375" y="653.65625" type="line"/>
    </contour>
  </outline>
</glyph>
<glyph name="ogonek" format="2">
  <advance width="453.859375"/>
  <unicode hex="02DB"/>
  <outline>
    <contour>
      <point x="56.12500000000001" y="-456.921875" type="curve" smooth="yes"/>
      <point x="96.46875" y="-456.921875"/>
      <point x="130.046875" y="-452.484375"/>
      <point x="161.515625" y="-438.46875" type="curve"/>
      <point x="183.765625" y="-335.140625" type="line"/>
      <point x="156.421875" y="-341.140625"/>
      <point x="129.421875" y="-347.140625"/>
      <point x="108.65624999999999" y="-347.140625" type="curve" smooth="yes"/>
      <point x="63.468749999999986" y="-347.140625"/>
      <point x="39.593749999999986" y="-321.484375"/>
      <point x="39.593749999999986" y="-274.953125" type="curve" smooth="yes"/>
      <point x="39.374999999999986" y="-189.640625"/>
      <point x="88.8125" y="-108.515625"/>
      <point x="212.296875" y="0.0" type="curve"/>
      <point x="111.875" y="0.0" type="line"/>
      <point x="-32.53125000000001" y="-106.078125"/>
      <point x="-93.78125" y="-198.09375"/>
      <point x="-93.78125" y="-310.5625" type="curve" smooth="yes"/>
      <point x="-93.78125" y="-395.6875"/>
      <point x="-42.78125" y="-456.921875"/>
    </contour>
  </outline>
</glyph>
<glyph name="tilde" format="2">
  <advance width="713.640625"/>
  <unicode hex="02DC"/>
  <outline>
    <contour>
      <point x="229.765625" y="1245.65625" type="curve"/>
      <point x="325.296875" y="1245.65625" type="line"/>
      <point x="342.859375" y="1328.09375"/>
      <point x="371.859375" y="1372.078125"/>
      <point x="420.828125" y="1372.078125" type="curve" smooth="yes"/>
      <point x="492.578125" y="1372.078125"/>
      <point x="540.953125" y="1247.65625"/>
      <point x="647.390625" y="1247.65625" type="curve" smooth="yes"/>
      <point x="733.5" y="1247.65625"/>
      <point x="800.078125" y="1313.4375"/>
      <point x="833.21875" y="1496.109375" type="curve"/>
      <point x="737.6875" y="1496.109375" type="line"/>
      <point x="716.34375" y="1401.78125"/>
      <point x="693.8125" y="1371.796875"/>
      <point x="649.71875" y="1371.796875" type="curve" smooth="yes"/>
      <point x="581.296875" y="1371.796875"/>
      <point x="535.828125" y="1494.328125"/>
      <point x="425.046875" y="1494.328125" type="curve" smooth="yes"/>
      <point x="320.796875" y="1494.328125"/>
      <point x="262.90625" y="1404.046875"/>
    </contour>
  </outline>
</glyph>
<glyph name="uni02DF" format="2">
  <advance width="522.203125"/>
  <unicode hex="02DF"/>
  <outline>
    <contour>
      <point x="293.25" y="1188.1875" type="line"/>
      <point x="427.046875" y="1306.75" type="line"/>
      <point x="514.171875" y="1188.1875" type="line"/>
      <point x="588.203125" y="1243.65625" type="line"/>
      <point x="498.859375" y="1368.21875" type="line"/>
      <point x="637.859375" y="1489.21875" type="line"/>
      <point x="580.390625" y="1558.703125" type="line"/>
      <point x="445.828125" y="1441.921875" type="line"/>
      <point x="359.8125" y="1558.703125" type="line"/>
      <point x="285.0" y="1502.34375" type="line"/>
      <point x="372.34375" y="1381.5625" type="line"/>
      <point x="233.0" y="1256.78125" type="line"/>
    </contour>
  </outline>
</glyph>
<glyph name="uni02F0" format="2">
  <advance width="606.671875"/>
  <unicode hex="02F0"/>
  <outline>
    <contour>
      <point x="-130.125" y="-448.265625" type="line"/>
      <point x="-39.40625000000001" y="-448.265625" type="line"/>
      <point x="153.046875" y="-173.375" type="line"/>
      <point x="229.9375" y="-448.265625" type="line"/>
      <point x="312.546875" y="-448.265625" type="line"/>
      <point x="198.515625" y="-62.203125" type="line"/>
      <point x="144.59375" y="-62.203125" type="line"/>
    </contour>
  </outline>
</glyph>
<glyph name="uni02F3" format="2">
  <advance width="654.8125"/>
  <unicode hex="02F3"/>
  <outline>
    <contour>
      <point x="181.140625" y="-523.515625" type="curve" smooth="yes"/>
      <point x="306.0625" y="-523.515625"/>
      <point x="384.75" y="-440.28125"/>
      <point x="384.75" y="-320.796875" type="curve" smooth="yes"/>
      <point x="384.75" y="-204.09375"/>
      <point x="298.03125" y="-124.3125"/>
      <point x="181.140625" y="-124.3125" type="curve" smooth="yes"/>
      <point x="58.78124999999999" y="-124.3125"/>
      <point x="-21.687500000000014" y="-203.875"/>
      <point x="-21.687500000000014" y="-324.359375" type="curve" smooth="yes"/>
      <point x="-21.687500000000014" y="-445.828125"/>
      <point x="54.32812499999999" y="-523.515625"/>
    </contour>
    <contour>
      <point x="179.359375" y="-438.0" type="curve" smooth="yes"/>
      <point x="105.59374999999999" y="-438.0"/>
      <point x="67.71875" y="-394.125"/>
      <point x="67.71875" y="-324.359375" type="curve" smooth="yes"/>
      <point x="67.71875" y="-257.8125"/>
      <point x="107.37499999999999" y="-209.828125"/>
      <point x="179.359375" y="-209.828125" type="curve" smooth="yes"/>
      <point x="252.34375" y="-209.828125"/>
      <point x="293.5625" y="-257.59375"/>
      <point x="293.5625" y="-324.359375" type="curve" smooth="yes"/>
      <point x="293.5625" y="-392.34375"/>
      <point x="252.125" y="-438.0"/>
    </contour>
  </outline>
</glyph>
<glyph name="uni02FE" format="2">
  <advance width="693.796875"/>
  <unicode hex="02FE"/>
  <outline>
    <contour>
      <point x="-55.0" y="-397.46875" type="line"/>
      <point x="412.125" y="-397.46875" type="line"/>
      <point x="412.125" y="-305.0" type="line"/>
      <point x="37.46875" y="-305.0" type="line"/>
      <point x="37.46875" y="-93.09375" type="line"/>
      <point x="-55.0" y="-93.09375" type="line"/>
    </contour>
  </outline>
</glyph>
<glyph name="overlinecmb" format="2">
  <unicode hex="0305"/>
  <anchor x="102.90625" y="1082.34375" name="_top"/>
  <anchor x="232.5625" y="1715.34375" name="top"/>
  <outline>
    <contour>
      <point x="-124.125" y="1593.09375" type="line"/>
      <point x="551.21875" y="1593.09375" type="line"/>
      <point x="576.578125" y="1715.34375" type="line"/>
      <point x="-98.65625" y="1715.34375" type="line"/>
    </contour>
  </outline>
</glyph>
<glyph name="dblverticallineabovecomb" format="2">
  <unicode hex="030E"/>
  <anchor x="117.0" y="1082.34375" name="_top"/>
  <anchor x="171.90625" y="1537.75" name="top"/>
  <outline>
    <contour>
      <point x="224.09375" y="1221.0" type="line"/>
      <point x="344.890625" y="1221.0" type="line"/>
      <point x="418.78125" y="1565.359375" type="line"/>
      <point x="299.875" y="1565.359375" type="line"/>
    </contour>
    <contour>
      <point x="-53.453125" y="1221.0" type="line"/>
      <point x="67.234375" y="1221.0" type="line"/>
      <point x="140.34375" y="1565.359375" type="line"/>
      <point x="21.437500000000007" y="1565.359375" type="line"/>
    </contour>
  </outline>
</glyph>
<glyph name="candraBinducomb" format="2">
  <unicode hex="0310"/>
  <anchor x="119.6875" y="1082.34375" name="_top"/>
  <anchor x="228.125" y="1658.328125" name="top"/>
  <outline>
    <contour>
      <point x="171.125" y="1241.4375" type="curve" smooth="yes"/>
      <point x="311.71875" y="1241.4375"/>
      <point x="401.0" y="1331.25"/>
      <point x="433.578125" y="1506.546875" type="curve"/>
      <point x="346.9375" y="1506.546875" type="line"/>
      <point x="317.25" y="1393.78125"/>
      <point x="266.46875" y="1343.875"/>
      <point x="174.6875" y="1343.875" type="curve" smooth="yes"/>
      <point x="91.15625" y="1343.875"/>
      <point x="51.6875" y="1390.734375"/>
      <point x="51.6875" y="1506.546875" type="curve"/>
      <point x="-32.953125" y="1506.546875" type="line"/>
      <point x="-34.734375" y="1489.859375"/>
      <point x="-36.515625" y="1469.390625"/>
      <point x="-36.515625" y="1445.484375" type="curve" smooth="yes"/>
      <point x="-36.515625" y="1327.21875"/>
      <point x="30.3125" y="1241.4375"/>
    </contour>
    <contour>
      <point x="192.234375" y="1465.5625" type="curve" smooth="yes"/>
      <point x="245.703125" y="1465.5625"/>
      <point x="278.953125" y="1525.125"/>
      <point x="278.953125" y="1590.296875" type="curve" smooth="yes"/>
      <point x="278.953125" y="1638.65625"/>
      <point x="258.609375" y="1658.328125"/>
      <point x="221.46875" y="1658.328125" type="curve" smooth="yes"/>
      <point x="168.0" y="1658.328125"/>
      <point x="134.859375" y="1599.875"/>
      <point x="134.859375" y="1536.828125" type="curve" smooth="yes"/>
      <point x="134.859375" y="1488.125"/>
      <point x="155.09375" y="1465.5625"/>
    </contour>
  </outline>
</glyph>
<glyph name="leftangleabovecomb" format="2">
  <unicode hex="031A"/>
  <anchor x="431.59375" y="1331.0" name="_topright"/>
  <outline>
    <contour>
      <point x="313.03125" y="1388.484375" type="line"/>
      <point x="408.171875" y="1388.484375" type="line"/>
      <point x="500.421875" y="1806.171875" type="line"/>
      <point x="92.0" y="1806.171875" type="line"/>
      <point x="72.4375" y="1712.8125" type="line"/>
      <point x="387.171875" y="1712.8125" type="line"/>
    </contour>
  </outline>
</glyph>
<glyph name="uptackbelowcomb" format="2">
  <unicode hex="031D"/>
  <anchor x="-137.21875" y="0.0" name="_bottom"/>
  <anchor x="-214.3125" y="-409.015625" name="bottom"/>
  <outline>
    <contour>
      <point x="-345.59375" y="-409.015625" type="line"/>
      <point x="-57.29687500000001" y="-409.015625" type="line"/>
      <point x="-39.40625000000001" y="-315.765625" type="line"/>
      <point x="-132.09375" y="-315.765625" type="line"/>
      <point x="-85.09375" y="-98.0" type="line"/>
      <point x="-183.34375" y="-98.0" type="line"/>
      <point x="-230.34375" y="-315.765625" type="line"/>
      <point x="-325.703125" y="-315.765625" type="line"/>
    </contour>
  </outline>
</glyph>
<glyph name="downtackbelowcomb" format="2">
  <unicode hex="031E"/>
  <anchor x="-88.0" y="0.0" name="_bottom"/>
  <anchor x="-165.09375" y="-409.015625" name="bottom"/>
  <outline>
    <contour>
      <point x="-248.90625" y="-409.015625" type="line"/>
      <point x="-150.65625" y="-409.015625" type="line"/>
      <point x="-102.765625" y="-191.359375" type="line"/>
      <point x="-10.078125000000007" y="-191.359375" type="line"/>
      <point x="9.8125" y="-98.0" type="line"/>
      <point x="-276.703125" y="-98.0" type="line"/>
      <point x="-296.265625" y="-191.359375" type="line"/>
      <point x="-201.90625" y="-191.359375" type="line"/>
    </contour>
  </outline>
</glyph>
<glyph name="plusbelowcomb" format="2">
  <unicode hex="031F"/>
  <anchor x="-115.0" y="0.0" name="_bottom"/>
  <anchor x="-190.984375" y="-416.359375" name="bottom"/>
  <outline>
    <contour>
      <point x="-250.90625" y="-416.359375" type="line"/>
      <point x="-152.65625" y="-416.359375" type="line"/>
      <point x="-125.65625" y="-293.46875" type="line"/>
      <point x="-26.53125" y="-293.46875" type="line"/>
      <point x="-7.859375" y="-201.0" type="line"/>
      <point x="-107.203125" y="-201.0" type="line"/>
      <point x="-81.09375" y="-78.0" type="line"/>
      <point x="-179.34375" y="-78.0" type="line"/>
      <point x="-206.34375" y="-201.0" type="line"/>
      <point x="-305.46875" y="-201.0" type="line"/>
      <point x="-323.921875" y="-293.46875" type="line"/>
      <point x="-223.90625" y="-293.46875" type="line"/>
    </contour>
  </outline>
</glyph>
<glyph name="strokelongoverlaycomb" format="2">
  <unicode hex="0336"/>
  <anchor x="6.0" y="567.4375" name="_center"/>
  <outline>
    <contour>
      <point x="-655.25" y="508.484375" type="line"/>
      <point x="641.21875" y="508.484375" type="line"/>
      <point x="666.140625" y="627.171875" type="line"/>
      <point x="-632.78125" y="627.171875" type="line"/>
    </contour>
  </outline>
</glyph>
<glyph name="slashlongoverlaycomb" format="2">
  <unicode hex="0338"/>
  <anchor x="28.75" y="719.0" name="_center"/>
  <outline>
    <contour>
      <point x="-426.890625" y="-119.0" type="line"/>
      <point x="-322.578125" y="-119.0" type="line"/>
      <point x="483.28125" y="1556.0" type="line"/>
      <point x="378.96875" y="1556.0" type="line"/>
    </contour>
  </outline>
</glyph>
<glyph name="squarebelowcomb" format="2">
  <unicode hex="033B"/>
  <anchor x="-113.21875" y="0.0" name="_bottom"/>
  <anchor x="-198.96875" y="-465.0" name="bottom"/>
  <outline>
    <contour>
      <point x="-515.5625" y="-465.0" type="line"/>
      <point x="94.6875" y="-465.0" type="line"/>
      <point x="180.6875" y="-59.0" type="line"/>
      <point x="-429.5625" y="-59.0" type="line"/>
    </contour>
    <contour>
      <point x="-408.4375" y="-375.875" type="line"/>
      <point x="-360.0" y="-149.015625" type="line"/>
      <point x="70.0" y="-149.015625" type="line"/>
      <point x="22.453124999999996" y="-375.875" type="line"/>
    </contour>
  </outline>
</glyph>
<glyph name="xabovecomb" format="2">
  <unicode hex="033D"/>
  <anchor x="114.78125" y="1082.34375" name="_top"/>
  <anchor x="206.09375" y="1571.90625" name="top"/>
  <outline>
    <contour>
      <point x="12.437500000000002" y="1185.09375" type="line"/>
      <point x="160.4375" y="1306.09375" type="line"/>
      <point x="252.21875" y="1185.09375" type="line"/>
      <point x="340.90625" y="1255.0" type="line"/>
      <point x="244.90625" y="1378.0" type="line"/>
      <point x="393.90625" y="1499.0" type="line"/>
      <point x="337.78125" y="1571.90625" type="line"/>
      <point x="190.0" y="1448.90625" type="line"/>
      <point x="96.0" y="1571.90625" type="line"/>
      <point x="9.3125" y="1499.0" type="line"/>
      <point x="103.203125" y="1378.0" type="line"/>
      <point x="-43.68750000000001" y="1255.0" type="line"/>
    </contour>
  </outline>
</glyph>
<glyph name="leftanglebelowcomb" format="2">
  <unicode hex="0349"/>
  <anchor x="-90.21875" y="0.0" name="_bottom"/>
  <anchor x="-177.3125" y="-465.46875" name="bottom"/>
  <outline>
    <contour>
      <point x="-175.5625" y="-465.46875" type="line"/>
      <point x="-81.3125" y="-465.46875" type="line"/>
      <point x="-9.859375" y="-135.65625" type="line"/>
      <point x="-277.578125" y="-135.65625" type="line"/>
      <point x="-297.46875" y="-228.125" type="line"/>
      <point x="-122.78125" y="-228.125" type="line"/>
    </contour>
  </outline>
</glyph>
<glyph name="arrowleftrightbelowcomb" format="2">
  <unicode hex="034D"/>
  <anchor x="-115.0" y="0.0" name="_bottom"/>
  <anchor x="-188.984375" y="-408.390625" name="bottom"/>
  <outline>
    <contour>
      <point x="-290.046875" y="-436.890625" type="line"/>
      <point x="-263.8125" y="-315.28125" type="line"/>
      <point x="-100.984375" y="-315.28125" type="line"/>
      <point x="-127.21875" y="-436.890625" type="line"/>
      <point x="112.20312499999997" y="-260.4375" type="line"/>
      <point x="-52.39062500000001" y="-83.328125" type="line"/>
      <point x="-78.40625" y="-204.828125" type="line"/>
      <point x="-241.34375" y="-204.828125" type="line"/>
      <point x="-215.21875" y="-83.328125" type="line"/>
      <point x="-452.421875" y="-260.0" type="line"/>
    </contour>
  </outline>
</glyph>
<glyph name="arrowupbelowcomb" format="2">
  <unicode hex="034E"/>
  <anchor x="-113.21875" y="0.0" name="_bottom"/>
  <anchor x="-196.53125" y="-464.265625" name="bottom"/>
  <outline>
    <contour>
      <point x="-253.265625" y="-464.265625" type="line"/>
      <point x="-175.3125" y="-464.265625" type="line"/>
      <point x="-129.515625" y="-254.875" type="line"/>
      <point x="-53.046875" y="-254.875" type="line"/>
      <point x="-129.4375" y="-75.53125" type="line"/>
      <point x="-283.609375" y="-254.875" type="line"/>
      <point x="-207.46875" y="-254.875" type="line"/>
    </contour>
  </outline>
</glyph>
<glyph name="arrowheadleftbelowcomb" format="2">
  <unicode hex="0354"/>
  <anchor x="-133.21875" y="0.0" name="_bottom"/>
  <anchor x="-224.859375" y="-492.0" name="bottom"/>
  <outline>
    <contour>
      <point x="-91.3125" y="-492.0" type="curve"/>
      <point x="-79.53125" y="-492.0" type="line"/>
      <point x="-79.53125" y="-415.53125" type="line"/>
      <point x="-120.53125" y="-371.875"/>
      <point x="-165.53125" y="-330.4375"/>
      <point x="-217.875" y="-285.0" type="curve"/>
      <point x="-167.53125" y="-243.5625"/>
      <point x="-120.75" y="-202.125"/>
      <point x="-79.53125" y="-156.359375" type="curve"/>
      <point x="-79.53125" y="-80.0" type="line"/>
      <point x="-91.3125" y="-80.0" type="line"/>
      <point x="-168.1875" y="-153.53125"/>
      <point x="-248.21875" y="-210.09375"/>
      <point x="-308.125" y="-241.53125" type="curve"/>
      <point x="-308.125" y="-328.359375" type="line"/>
      <point x="-246.0" y="-365.796875"/>
      <point x="-147.765625" y="-441.5625"/>
    </contour>
  </outline>
</glyph>
<glyph name="uni0375" format="2">
  <advance width="871.484375"/>
  <unicode hex="0375"/>
  <outline>
    <contour>
      <point x="77.40625000000001" y="-453.0" type="line"/>
      <point x="221.25" y="-453.0" type="line"/>
      <point x="248.6875" y="-366.234375"/>
      <point x="324.65625" y="-219.90625"/>
      <point x="369.1875" y="-154.21875" type="curve"/>
      <point x="369.1875" y="-125.0" type="line"/>
      <point x="282.390625" y="-125.0" type="line"/>
      <point x="212.625" y="-195.21875"/>
      <point x="106.06250000000001" y="-345.78125"/>
      <point x="77.40625000000001" y="-431.78125" type="curve"/>
    </contour>
  </outline>
</glyph>
<glyph name="tonos" format="2">
  <advance width="1002.453125"/>
  <unicode hex="0384"/>
  <anchor x="579.75" y="1082.34375" name="_top"/>
  <outline>
    <contour>
      <point x="492.46875" y="1241.0" type="line"/>
      <point x="581.703125" y="1241.0" type="line"/>
      <point x="632.265625" y="1308.5625"/>
      <point x="765.78125" y="1510.171875"/>
      <point x="804.125" y="1579.1875" type="curve"/>
      <point x="808.125" y="1599.296875" type="line"/>
      <point x="657.09375" y="1599.296875" type="line"/>
      <point x="625.21875" y="1518.0"/>
      <point x="543.453125" y="1342.421875"/>
      <point x="497.359375" y="1263.5625" type="curve"/>
    </contour>
  </outline>
</glyph>
<glyph name="dieresistonos" format="2">
  <advance width="1010.703125"/>
  <unicode hex="0385"/>
  <anchor x="507.125" y="1082.34375" name="_top"/>
  <outline>
    <contour>
      <point x="538.0625" y="1395.359375" type="line"/>
      <point x="611.375" y="1395.359375" type="line"/>
      <point x="663.703125" y="1456.46875"/>
      <point x="769.046875" y="1625.5625"/>
      <point x="802.046875" y="1697.5625" type="curve"/>
      <point x="803.828125" y="1716.0" type="line"/>
      <point x="667.796875" y="1716.0" type="line"/>
      <point x="646.359375" y="1645.578125"/>
      <point x="577.265625" y="1488.125"/>
      <point x="538.0625" y="1415.03125" type="curve"/>
    </contour>
    <contour>
      <point x="388.796875" y="1295.609375" type="curve" smooth="yes"/>
      <point x="443.390625" y="1295.609375"/>
      <point x="483.65625" y="1353.0625"/>
      <point x="483.65625" y="1427.921875" type="curve" smooth="yes"/>
      <point x="483.65625" y="1473.171875"/>
      <point x="462.53125" y="1496.296875"/>
      <point x="423.609375" y="1496.296875" type="curve" smooth="yes"/>
      <point x="361.0" y="1496.296875"/>
      <point x="324.1875" y="1434.609375"/>
      <point x="324.1875" y="1368.4375" type="curve" smooth="yes"/>
      <point x="324.1875" y="1319.625"/>
      <point x="346.3125" y="1295.609375"/>
    </contour>
    <contour>
      <point x="773.296875" y="1295.609375" type="curve" smooth="yes"/>
      <point x="828.78125" y="1295.609375"/>
      <point x="869.046875" y="1353.0625"/>
      <point x="869.046875" y="1427.921875" type="curve" smooth="yes"/>
      <point x="869.046875" y="1473.171875"/>
      <point x="845.25" y="1496.296875"/>
      <point x="808.109375" y="1496.296875" type="curve" smooth="yes"/>
      <point x="746.390625" y="1496.296875"/>
      <point x="709.578125" y="1434.609375"/>
      <point x="709.578125" y="1368.4375" type="curve" smooth="yes"/>
      <point x="709.578125" y="1319.625"/>
      <point x="730.8125" y="1295.609375"/>
    </contour>
  </outline>
</glyph>
